%TF.GenerationSoftware,KiCad,Pcbnew,7.0.10*%
%TF.CreationDate,2024-06-28T18:16:17+02:00*%
%TF.ProjectId,lm7171opamp,6c6d3731-3731-46f7-9061-6d702e6b6963,rev?*%
%TF.SameCoordinates,Original*%
%TF.FileFunction,Legend,Top*%
%TF.FilePolarity,Positive*%
%FSLAX46Y46*%
G04 Gerber Fmt 4.6, Leading zero omitted, Abs format (unit mm)*
G04 Created by KiCad (PCBNEW 7.0.10) date 2024-06-28 18:16:17*
%MOMM*%
%LPD*%
G01*
G04 APERTURE LIST*
%ADD10C,0.150000*%
%ADD11C,0.120000*%
G04 APERTURE END LIST*
D10*
X82419819Y-96818220D02*
X81419819Y-96818220D01*
X81419819Y-96818220D02*
X82419819Y-96246792D01*
X82419819Y-96246792D02*
X81419819Y-96246792D01*
X82419819Y-95627744D02*
X82372200Y-95722982D01*
X82372200Y-95722982D02*
X82324580Y-95770601D01*
X82324580Y-95770601D02*
X82229342Y-95818220D01*
X82229342Y-95818220D02*
X81943628Y-95818220D01*
X81943628Y-95818220D02*
X81848390Y-95770601D01*
X81848390Y-95770601D02*
X81800771Y-95722982D01*
X81800771Y-95722982D02*
X81753152Y-95627744D01*
X81753152Y-95627744D02*
X81753152Y-95484887D01*
X81753152Y-95484887D02*
X81800771Y-95389649D01*
X81800771Y-95389649D02*
X81848390Y-95342030D01*
X81848390Y-95342030D02*
X81943628Y-95294411D01*
X81943628Y-95294411D02*
X82229342Y-95294411D01*
X82229342Y-95294411D02*
X82324580Y-95342030D01*
X82324580Y-95342030D02*
X82372200Y-95389649D01*
X82372200Y-95389649D02*
X82419819Y-95484887D01*
X82419819Y-95484887D02*
X82419819Y-95627744D01*
X81753152Y-94865839D02*
X82419819Y-94865839D01*
X81848390Y-94865839D02*
X81800771Y-94818220D01*
X81800771Y-94818220D02*
X81753152Y-94722982D01*
X81753152Y-94722982D02*
X81753152Y-94580125D01*
X81753152Y-94580125D02*
X81800771Y-94484887D01*
X81800771Y-94484887D02*
X81896009Y-94437268D01*
X81896009Y-94437268D02*
X82419819Y-94437268D01*
X82419819Y-93199172D02*
X81753152Y-93199172D01*
X81419819Y-93199172D02*
X81467438Y-93246791D01*
X81467438Y-93246791D02*
X81515057Y-93199172D01*
X81515057Y-93199172D02*
X81467438Y-93151553D01*
X81467438Y-93151553D02*
X81419819Y-93199172D01*
X81419819Y-93199172D02*
X81515057Y-93199172D01*
X81753152Y-92722982D02*
X82419819Y-92722982D01*
X81848390Y-92722982D02*
X81800771Y-92675363D01*
X81800771Y-92675363D02*
X81753152Y-92580125D01*
X81753152Y-92580125D02*
X81753152Y-92437268D01*
X81753152Y-92437268D02*
X81800771Y-92342030D01*
X81800771Y-92342030D02*
X81896009Y-92294411D01*
X81896009Y-92294411D02*
X82419819Y-92294411D01*
X81753152Y-91913458D02*
X82419819Y-91675363D01*
X82419819Y-91675363D02*
X81753152Y-91437268D01*
X82372200Y-90675363D02*
X82419819Y-90770601D01*
X82419819Y-90770601D02*
X82419819Y-90961077D01*
X82419819Y-90961077D02*
X82372200Y-91056315D01*
X82372200Y-91056315D02*
X82276961Y-91103934D01*
X82276961Y-91103934D02*
X81896009Y-91103934D01*
X81896009Y-91103934D02*
X81800771Y-91056315D01*
X81800771Y-91056315D02*
X81753152Y-90961077D01*
X81753152Y-90961077D02*
X81753152Y-90770601D01*
X81753152Y-90770601D02*
X81800771Y-90675363D01*
X81800771Y-90675363D02*
X81896009Y-90627744D01*
X81896009Y-90627744D02*
X81991247Y-90627744D01*
X81991247Y-90627744D02*
X82086485Y-91103934D01*
X82419819Y-90199172D02*
X81753152Y-90199172D01*
X81943628Y-90199172D02*
X81848390Y-90151553D01*
X81848390Y-90151553D02*
X81800771Y-90103934D01*
X81800771Y-90103934D02*
X81753152Y-90008696D01*
X81753152Y-90008696D02*
X81753152Y-89913458D01*
X81753152Y-89722981D02*
X81753152Y-89342029D01*
X81419819Y-89580124D02*
X82276961Y-89580124D01*
X82276961Y-89580124D02*
X82372200Y-89532505D01*
X82372200Y-89532505D02*
X82419819Y-89437267D01*
X82419819Y-89437267D02*
X82419819Y-89342029D01*
X82372200Y-88627743D02*
X82419819Y-88722981D01*
X82419819Y-88722981D02*
X82419819Y-88913457D01*
X82419819Y-88913457D02*
X82372200Y-89008695D01*
X82372200Y-89008695D02*
X82276961Y-89056314D01*
X82276961Y-89056314D02*
X81896009Y-89056314D01*
X81896009Y-89056314D02*
X81800771Y-89008695D01*
X81800771Y-89008695D02*
X81753152Y-88913457D01*
X81753152Y-88913457D02*
X81753152Y-88722981D01*
X81753152Y-88722981D02*
X81800771Y-88627743D01*
X81800771Y-88627743D02*
X81896009Y-88580124D01*
X81896009Y-88580124D02*
X81991247Y-88580124D01*
X81991247Y-88580124D02*
X82086485Y-89056314D01*
X82419819Y-88151552D02*
X81753152Y-88151552D01*
X81943628Y-88151552D02*
X81848390Y-88103933D01*
X81848390Y-88103933D02*
X81800771Y-88056314D01*
X81800771Y-88056314D02*
X81753152Y-87961076D01*
X81753152Y-87961076D02*
X81753152Y-87865838D01*
X82419819Y-86342028D02*
X81896009Y-86342028D01*
X81896009Y-86342028D02*
X81800771Y-86389647D01*
X81800771Y-86389647D02*
X81753152Y-86484885D01*
X81753152Y-86484885D02*
X81753152Y-86675361D01*
X81753152Y-86675361D02*
X81800771Y-86770599D01*
X82372200Y-86342028D02*
X82419819Y-86437266D01*
X82419819Y-86437266D02*
X82419819Y-86675361D01*
X82419819Y-86675361D02*
X82372200Y-86770599D01*
X82372200Y-86770599D02*
X82276961Y-86818218D01*
X82276961Y-86818218D02*
X82181723Y-86818218D01*
X82181723Y-86818218D02*
X82086485Y-86770599D01*
X82086485Y-86770599D02*
X82038866Y-86675361D01*
X82038866Y-86675361D02*
X82038866Y-86437266D01*
X82038866Y-86437266D02*
X81991247Y-86342028D01*
X82419819Y-85865837D02*
X81753152Y-85865837D01*
X81848390Y-85865837D02*
X81800771Y-85818218D01*
X81800771Y-85818218D02*
X81753152Y-85722980D01*
X81753152Y-85722980D02*
X81753152Y-85580123D01*
X81753152Y-85580123D02*
X81800771Y-85484885D01*
X81800771Y-85484885D02*
X81896009Y-85437266D01*
X81896009Y-85437266D02*
X82419819Y-85437266D01*
X81896009Y-85437266D02*
X81800771Y-85389647D01*
X81800771Y-85389647D02*
X81753152Y-85294409D01*
X81753152Y-85294409D02*
X81753152Y-85151552D01*
X81753152Y-85151552D02*
X81800771Y-85056313D01*
X81800771Y-85056313D02*
X81896009Y-85008694D01*
X81896009Y-85008694D02*
X82419819Y-85008694D01*
X81753152Y-84532504D02*
X82753152Y-84532504D01*
X81800771Y-84532504D02*
X81753152Y-84437266D01*
X81753152Y-84437266D02*
X81753152Y-84246790D01*
X81753152Y-84246790D02*
X81800771Y-84151552D01*
X81800771Y-84151552D02*
X81848390Y-84103933D01*
X81848390Y-84103933D02*
X81943628Y-84056314D01*
X81943628Y-84056314D02*
X82229342Y-84056314D01*
X82229342Y-84056314D02*
X82324580Y-84103933D01*
X82324580Y-84103933D02*
X82372200Y-84151552D01*
X82372200Y-84151552D02*
X82419819Y-84246790D01*
X82419819Y-84246790D02*
X82419819Y-84437266D01*
X82419819Y-84437266D02*
X82372200Y-84532504D01*
X82419819Y-83484885D02*
X82372200Y-83580123D01*
X82372200Y-83580123D02*
X82276961Y-83627742D01*
X82276961Y-83627742D02*
X81419819Y-83627742D01*
X82419819Y-83103932D02*
X81753152Y-83103932D01*
X81419819Y-83103932D02*
X81467438Y-83151551D01*
X81467438Y-83151551D02*
X81515057Y-83103932D01*
X81515057Y-83103932D02*
X81467438Y-83056313D01*
X81467438Y-83056313D02*
X81419819Y-83103932D01*
X81419819Y-83103932D02*
X81515057Y-83103932D01*
X81753152Y-82770599D02*
X81753152Y-82389647D01*
X82419819Y-82627742D02*
X81562676Y-82627742D01*
X81562676Y-82627742D02*
X81467438Y-82580123D01*
X81467438Y-82580123D02*
X81419819Y-82484885D01*
X81419819Y-82484885D02*
X81419819Y-82389647D01*
X82419819Y-82056313D02*
X81753152Y-82056313D01*
X81419819Y-82056313D02*
X81467438Y-82103932D01*
X81467438Y-82103932D02*
X81515057Y-82056313D01*
X81515057Y-82056313D02*
X81467438Y-82008694D01*
X81467438Y-82008694D02*
X81419819Y-82056313D01*
X81419819Y-82056313D02*
X81515057Y-82056313D01*
X82372200Y-81199171D02*
X82419819Y-81294409D01*
X82419819Y-81294409D02*
X82419819Y-81484885D01*
X82419819Y-81484885D02*
X82372200Y-81580123D01*
X82372200Y-81580123D02*
X82276961Y-81627742D01*
X82276961Y-81627742D02*
X81896009Y-81627742D01*
X81896009Y-81627742D02*
X81800771Y-81580123D01*
X81800771Y-81580123D02*
X81753152Y-81484885D01*
X81753152Y-81484885D02*
X81753152Y-81294409D01*
X81753152Y-81294409D02*
X81800771Y-81199171D01*
X81800771Y-81199171D02*
X81896009Y-81151552D01*
X81896009Y-81151552D02*
X81991247Y-81151552D01*
X81991247Y-81151552D02*
X82086485Y-81627742D01*
X82419819Y-80722980D02*
X81753152Y-80722980D01*
X81943628Y-80722980D02*
X81848390Y-80675361D01*
X81848390Y-80675361D02*
X81800771Y-80627742D01*
X81800771Y-80627742D02*
X81753152Y-80532504D01*
X81753152Y-80532504D02*
X81753152Y-80437266D01*
X82419819Y-79342027D02*
X81419819Y-79342027D01*
X81419819Y-79342027D02*
X81419819Y-79103932D01*
X81419819Y-79103932D02*
X81467438Y-78961075D01*
X81467438Y-78961075D02*
X81562676Y-78865837D01*
X81562676Y-78865837D02*
X81657914Y-78818218D01*
X81657914Y-78818218D02*
X81848390Y-78770599D01*
X81848390Y-78770599D02*
X81991247Y-78770599D01*
X81991247Y-78770599D02*
X82181723Y-78818218D01*
X82181723Y-78818218D02*
X82276961Y-78865837D01*
X82276961Y-78865837D02*
X82372200Y-78961075D01*
X82372200Y-78961075D02*
X82419819Y-79103932D01*
X82419819Y-79103932D02*
X82419819Y-79342027D01*
X82324580Y-77770599D02*
X82372200Y-77818218D01*
X82372200Y-77818218D02*
X82419819Y-77961075D01*
X82419819Y-77961075D02*
X82419819Y-78056313D01*
X82419819Y-78056313D02*
X82372200Y-78199170D01*
X82372200Y-78199170D02*
X82276961Y-78294408D01*
X82276961Y-78294408D02*
X82181723Y-78342027D01*
X82181723Y-78342027D02*
X81991247Y-78389646D01*
X81991247Y-78389646D02*
X81848390Y-78389646D01*
X81848390Y-78389646D02*
X81657914Y-78342027D01*
X81657914Y-78342027D02*
X81562676Y-78294408D01*
X81562676Y-78294408D02*
X81467438Y-78199170D01*
X81467438Y-78199170D02*
X81419819Y-78056313D01*
X81419819Y-78056313D02*
X81419819Y-77961075D01*
X81419819Y-77961075D02*
X81467438Y-77818218D01*
X81467438Y-77818218D02*
X81515057Y-77770599D01*
X82038866Y-77342027D02*
X82038866Y-76580123D01*
X81515057Y-76151551D02*
X81467438Y-76103932D01*
X81467438Y-76103932D02*
X81419819Y-76008694D01*
X81419819Y-76008694D02*
X81419819Y-75770599D01*
X81419819Y-75770599D02*
X81467438Y-75675361D01*
X81467438Y-75675361D02*
X81515057Y-75627742D01*
X81515057Y-75627742D02*
X81610295Y-75580123D01*
X81610295Y-75580123D02*
X81705533Y-75580123D01*
X81705533Y-75580123D02*
X81848390Y-75627742D01*
X81848390Y-75627742D02*
X82419819Y-76199170D01*
X82419819Y-76199170D02*
X82419819Y-75580123D01*
X81419819Y-74961075D02*
X81419819Y-74865837D01*
X81419819Y-74865837D02*
X81467438Y-74770599D01*
X81467438Y-74770599D02*
X81515057Y-74722980D01*
X81515057Y-74722980D02*
X81610295Y-74675361D01*
X81610295Y-74675361D02*
X81800771Y-74627742D01*
X81800771Y-74627742D02*
X82038866Y-74627742D01*
X82038866Y-74627742D02*
X82229342Y-74675361D01*
X82229342Y-74675361D02*
X82324580Y-74722980D01*
X82324580Y-74722980D02*
X82372200Y-74770599D01*
X82372200Y-74770599D02*
X82419819Y-74865837D01*
X82419819Y-74865837D02*
X82419819Y-74961075D01*
X82419819Y-74961075D02*
X82372200Y-75056313D01*
X82372200Y-75056313D02*
X82324580Y-75103932D01*
X82324580Y-75103932D02*
X82229342Y-75151551D01*
X82229342Y-75151551D02*
X82038866Y-75199170D01*
X82038866Y-75199170D02*
X81800771Y-75199170D01*
X81800771Y-75199170D02*
X81610295Y-75151551D01*
X81610295Y-75151551D02*
X81515057Y-75103932D01*
X81515057Y-75103932D02*
X81467438Y-75056313D01*
X81467438Y-75056313D02*
X81419819Y-74961075D01*
X81419819Y-74008694D02*
X81419819Y-73913456D01*
X81419819Y-73913456D02*
X81467438Y-73818218D01*
X81467438Y-73818218D02*
X81515057Y-73770599D01*
X81515057Y-73770599D02*
X81610295Y-73722980D01*
X81610295Y-73722980D02*
X81800771Y-73675361D01*
X81800771Y-73675361D02*
X82038866Y-73675361D01*
X82038866Y-73675361D02*
X82229342Y-73722980D01*
X82229342Y-73722980D02*
X82324580Y-73770599D01*
X82324580Y-73770599D02*
X82372200Y-73818218D01*
X82372200Y-73818218D02*
X82419819Y-73913456D01*
X82419819Y-73913456D02*
X82419819Y-74008694D01*
X82419819Y-74008694D02*
X82372200Y-74103932D01*
X82372200Y-74103932D02*
X82324580Y-74151551D01*
X82324580Y-74151551D02*
X82229342Y-74199170D01*
X82229342Y-74199170D02*
X82038866Y-74246789D01*
X82038866Y-74246789D02*
X81800771Y-74246789D01*
X81800771Y-74246789D02*
X81610295Y-74199170D01*
X81610295Y-74199170D02*
X81515057Y-74151551D01*
X81515057Y-74151551D02*
X81467438Y-74103932D01*
X81467438Y-74103932D02*
X81419819Y-74008694D01*
X82419819Y-73246789D02*
X81419819Y-73246789D01*
X81419819Y-73246789D02*
X82134104Y-72913456D01*
X82134104Y-72913456D02*
X81419819Y-72580123D01*
X81419819Y-72580123D02*
X82419819Y-72580123D01*
X82419819Y-72103932D02*
X81419819Y-72103932D01*
X81896009Y-72103932D02*
X81896009Y-71532504D01*
X82419819Y-71532504D02*
X81419819Y-71532504D01*
X81753152Y-71151551D02*
X81753152Y-70627742D01*
X81753152Y-70627742D02*
X82419819Y-71151551D01*
X82419819Y-71151551D02*
X82419819Y-70627742D01*
X107549819Y-73826666D02*
X107073628Y-74159999D01*
X107549819Y-74398094D02*
X106549819Y-74398094D01*
X106549819Y-74398094D02*
X106549819Y-74017142D01*
X106549819Y-74017142D02*
X106597438Y-73921904D01*
X106597438Y-73921904D02*
X106645057Y-73874285D01*
X106645057Y-73874285D02*
X106740295Y-73826666D01*
X106740295Y-73826666D02*
X106883152Y-73826666D01*
X106883152Y-73826666D02*
X106978390Y-73874285D01*
X106978390Y-73874285D02*
X107026009Y-73921904D01*
X107026009Y-73921904D02*
X107073628Y-74017142D01*
X107073628Y-74017142D02*
X107073628Y-74398094D01*
X107549819Y-72874285D02*
X107549819Y-73445713D01*
X107549819Y-73159999D02*
X106549819Y-73159999D01*
X106549819Y-73159999D02*
X106692676Y-73255237D01*
X106692676Y-73255237D02*
X106787914Y-73350475D01*
X106787914Y-73350475D02*
X106835533Y-73445713D01*
X105449819Y-74255238D02*
X105449819Y-74826666D01*
X105449819Y-74540952D02*
X104449819Y-74540952D01*
X104449819Y-74540952D02*
X104592676Y-74636190D01*
X104592676Y-74636190D02*
X104687914Y-74731428D01*
X104687914Y-74731428D02*
X104735533Y-74826666D01*
X104449819Y-73636190D02*
X104449819Y-73540952D01*
X104449819Y-73540952D02*
X104497438Y-73445714D01*
X104497438Y-73445714D02*
X104545057Y-73398095D01*
X104545057Y-73398095D02*
X104640295Y-73350476D01*
X104640295Y-73350476D02*
X104830771Y-73302857D01*
X104830771Y-73302857D02*
X105068866Y-73302857D01*
X105068866Y-73302857D02*
X105259342Y-73350476D01*
X105259342Y-73350476D02*
X105354580Y-73398095D01*
X105354580Y-73398095D02*
X105402200Y-73445714D01*
X105402200Y-73445714D02*
X105449819Y-73540952D01*
X105449819Y-73540952D02*
X105449819Y-73636190D01*
X105449819Y-73636190D02*
X105402200Y-73731428D01*
X105402200Y-73731428D02*
X105354580Y-73779047D01*
X105354580Y-73779047D02*
X105259342Y-73826666D01*
X105259342Y-73826666D02*
X105068866Y-73874285D01*
X105068866Y-73874285D02*
X104830771Y-73874285D01*
X104830771Y-73874285D02*
X104640295Y-73826666D01*
X104640295Y-73826666D02*
X104545057Y-73779047D01*
X104545057Y-73779047D02*
X104497438Y-73731428D01*
X104497438Y-73731428D02*
X104449819Y-73636190D01*
X105449819Y-72874285D02*
X104449819Y-72874285D01*
X105068866Y-72779047D02*
X105449819Y-72493333D01*
X104783152Y-72493333D02*
X105164104Y-72874285D01*
X108340833Y-96034580D02*
X108293214Y-96082200D01*
X108293214Y-96082200D02*
X108150357Y-96129819D01*
X108150357Y-96129819D02*
X108055119Y-96129819D01*
X108055119Y-96129819D02*
X107912262Y-96082200D01*
X107912262Y-96082200D02*
X107817024Y-95986961D01*
X107817024Y-95986961D02*
X107769405Y-95891723D01*
X107769405Y-95891723D02*
X107721786Y-95701247D01*
X107721786Y-95701247D02*
X107721786Y-95558390D01*
X107721786Y-95558390D02*
X107769405Y-95367914D01*
X107769405Y-95367914D02*
X107817024Y-95272676D01*
X107817024Y-95272676D02*
X107912262Y-95177438D01*
X107912262Y-95177438D02*
X108055119Y-95129819D01*
X108055119Y-95129819D02*
X108150357Y-95129819D01*
X108150357Y-95129819D02*
X108293214Y-95177438D01*
X108293214Y-95177438D02*
X108340833Y-95225057D01*
X108721786Y-95225057D02*
X108769405Y-95177438D01*
X108769405Y-95177438D02*
X108864643Y-95129819D01*
X108864643Y-95129819D02*
X109102738Y-95129819D01*
X109102738Y-95129819D02*
X109197976Y-95177438D01*
X109197976Y-95177438D02*
X109245595Y-95225057D01*
X109245595Y-95225057D02*
X109293214Y-95320295D01*
X109293214Y-95320295D02*
X109293214Y-95415533D01*
X109293214Y-95415533D02*
X109245595Y-95558390D01*
X109245595Y-95558390D02*
X108674167Y-96129819D01*
X108674167Y-96129819D02*
X109293214Y-96129819D01*
X107864642Y-99089819D02*
X107293214Y-99089819D01*
X107578928Y-99089819D02*
X107578928Y-98089819D01*
X107578928Y-98089819D02*
X107483690Y-98232676D01*
X107483690Y-98232676D02*
X107388452Y-98327914D01*
X107388452Y-98327914D02*
X107293214Y-98375533D01*
X108483690Y-98089819D02*
X108578928Y-98089819D01*
X108578928Y-98089819D02*
X108674166Y-98137438D01*
X108674166Y-98137438D02*
X108721785Y-98185057D01*
X108721785Y-98185057D02*
X108769404Y-98280295D01*
X108769404Y-98280295D02*
X108817023Y-98470771D01*
X108817023Y-98470771D02*
X108817023Y-98708866D01*
X108817023Y-98708866D02*
X108769404Y-98899342D01*
X108769404Y-98899342D02*
X108721785Y-98994580D01*
X108721785Y-98994580D02*
X108674166Y-99042200D01*
X108674166Y-99042200D02*
X108578928Y-99089819D01*
X108578928Y-99089819D02*
X108483690Y-99089819D01*
X108483690Y-99089819D02*
X108388452Y-99042200D01*
X108388452Y-99042200D02*
X108340833Y-98994580D01*
X108340833Y-98994580D02*
X108293214Y-98899342D01*
X108293214Y-98899342D02*
X108245595Y-98708866D01*
X108245595Y-98708866D02*
X108245595Y-98470771D01*
X108245595Y-98470771D02*
X108293214Y-98280295D01*
X108293214Y-98280295D02*
X108340833Y-98185057D01*
X108340833Y-98185057D02*
X108388452Y-98137438D01*
X108388452Y-98137438D02*
X108483690Y-98089819D01*
X109245595Y-98423152D02*
X109245595Y-99089819D01*
X109245595Y-98518390D02*
X109293214Y-98470771D01*
X109293214Y-98470771D02*
X109388452Y-98423152D01*
X109388452Y-98423152D02*
X109531309Y-98423152D01*
X109531309Y-98423152D02*
X109626547Y-98470771D01*
X109626547Y-98470771D02*
X109674166Y-98566009D01*
X109674166Y-98566009D02*
X109674166Y-99089819D01*
X97528333Y-77514819D02*
X97052143Y-77514819D01*
X97052143Y-77514819D02*
X97052143Y-76514819D01*
X97861667Y-77514819D02*
X97861667Y-76514819D01*
X97861667Y-76514819D02*
X98195000Y-77229104D01*
X98195000Y-77229104D02*
X98528333Y-76514819D01*
X98528333Y-76514819D02*
X98528333Y-77514819D01*
X98909286Y-76514819D02*
X99575952Y-76514819D01*
X99575952Y-76514819D02*
X99147381Y-77514819D01*
X100480714Y-77514819D02*
X99909286Y-77514819D01*
X100195000Y-77514819D02*
X100195000Y-76514819D01*
X100195000Y-76514819D02*
X100099762Y-76657676D01*
X100099762Y-76657676D02*
X100004524Y-76752914D01*
X100004524Y-76752914D02*
X99909286Y-76800533D01*
X100814048Y-76514819D02*
X101480714Y-76514819D01*
X101480714Y-76514819D02*
X101052143Y-77514819D01*
X102385476Y-77514819D02*
X101814048Y-77514819D01*
X102099762Y-77514819D02*
X102099762Y-76514819D01*
X102099762Y-76514819D02*
X102004524Y-76657676D01*
X102004524Y-76657676D02*
X101909286Y-76752914D01*
X101909286Y-76752914D02*
X101814048Y-76800533D01*
X108340833Y-82699580D02*
X108293214Y-82747200D01*
X108293214Y-82747200D02*
X108150357Y-82794819D01*
X108150357Y-82794819D02*
X108055119Y-82794819D01*
X108055119Y-82794819D02*
X107912262Y-82747200D01*
X107912262Y-82747200D02*
X107817024Y-82651961D01*
X107817024Y-82651961D02*
X107769405Y-82556723D01*
X107769405Y-82556723D02*
X107721786Y-82366247D01*
X107721786Y-82366247D02*
X107721786Y-82223390D01*
X107721786Y-82223390D02*
X107769405Y-82032914D01*
X107769405Y-82032914D02*
X107817024Y-81937676D01*
X107817024Y-81937676D02*
X107912262Y-81842438D01*
X107912262Y-81842438D02*
X108055119Y-81794819D01*
X108055119Y-81794819D02*
X108150357Y-81794819D01*
X108150357Y-81794819D02*
X108293214Y-81842438D01*
X108293214Y-81842438D02*
X108340833Y-81890057D01*
X108674167Y-81794819D02*
X109293214Y-81794819D01*
X109293214Y-81794819D02*
X108959881Y-82175771D01*
X108959881Y-82175771D02*
X109102738Y-82175771D01*
X109102738Y-82175771D02*
X109197976Y-82223390D01*
X109197976Y-82223390D02*
X109245595Y-82271009D01*
X109245595Y-82271009D02*
X109293214Y-82366247D01*
X109293214Y-82366247D02*
X109293214Y-82604342D01*
X109293214Y-82604342D02*
X109245595Y-82699580D01*
X109245595Y-82699580D02*
X109197976Y-82747200D01*
X109197976Y-82747200D02*
X109102738Y-82794819D01*
X109102738Y-82794819D02*
X108817024Y-82794819D01*
X108817024Y-82794819D02*
X108721786Y-82747200D01*
X108721786Y-82747200D02*
X108674167Y-82699580D01*
X107055119Y-84850057D02*
X107102738Y-84802438D01*
X107102738Y-84802438D02*
X107197976Y-84754819D01*
X107197976Y-84754819D02*
X107436071Y-84754819D01*
X107436071Y-84754819D02*
X107531309Y-84802438D01*
X107531309Y-84802438D02*
X107578928Y-84850057D01*
X107578928Y-84850057D02*
X107626547Y-84945295D01*
X107626547Y-84945295D02*
X107626547Y-85040533D01*
X107626547Y-85040533D02*
X107578928Y-85183390D01*
X107578928Y-85183390D02*
X107007500Y-85754819D01*
X107007500Y-85754819D02*
X107626547Y-85754819D01*
X108055119Y-85659580D02*
X108102738Y-85707200D01*
X108102738Y-85707200D02*
X108055119Y-85754819D01*
X108055119Y-85754819D02*
X108007500Y-85707200D01*
X108007500Y-85707200D02*
X108055119Y-85659580D01*
X108055119Y-85659580D02*
X108055119Y-85754819D01*
X108483690Y-84850057D02*
X108531309Y-84802438D01*
X108531309Y-84802438D02*
X108626547Y-84754819D01*
X108626547Y-84754819D02*
X108864642Y-84754819D01*
X108864642Y-84754819D02*
X108959880Y-84802438D01*
X108959880Y-84802438D02*
X109007499Y-84850057D01*
X109007499Y-84850057D02*
X109055118Y-84945295D01*
X109055118Y-84945295D02*
X109055118Y-85040533D01*
X109055118Y-85040533D02*
X109007499Y-85183390D01*
X109007499Y-85183390D02*
X108436071Y-85754819D01*
X108436071Y-85754819D02*
X109055118Y-85754819D01*
X109912261Y-85088152D02*
X109912261Y-85754819D01*
X109483690Y-85088152D02*
X109483690Y-85611961D01*
X109483690Y-85611961D02*
X109531309Y-85707200D01*
X109531309Y-85707200D02*
X109626547Y-85754819D01*
X109626547Y-85754819D02*
X109769404Y-85754819D01*
X109769404Y-85754819D02*
X109864642Y-85707200D01*
X109864642Y-85707200D02*
X109912261Y-85659580D01*
X103258866Y-98346428D02*
X103258866Y-97584524D01*
X103639819Y-96584524D02*
X103639819Y-97155952D01*
X103639819Y-96870238D02*
X102639819Y-96870238D01*
X102639819Y-96870238D02*
X102782676Y-96965476D01*
X102782676Y-96965476D02*
X102877914Y-97060714D01*
X102877914Y-97060714D02*
X102925533Y-97155952D01*
X102735057Y-96203571D02*
X102687438Y-96155952D01*
X102687438Y-96155952D02*
X102639819Y-96060714D01*
X102639819Y-96060714D02*
X102639819Y-95822619D01*
X102639819Y-95822619D02*
X102687438Y-95727381D01*
X102687438Y-95727381D02*
X102735057Y-95679762D01*
X102735057Y-95679762D02*
X102830295Y-95632143D01*
X102830295Y-95632143D02*
X102925533Y-95632143D01*
X102925533Y-95632143D02*
X103068390Y-95679762D01*
X103068390Y-95679762D02*
X103639819Y-96251190D01*
X103639819Y-96251190D02*
X103639819Y-95632143D01*
X102639819Y-95346428D02*
X103639819Y-95013095D01*
X103639819Y-95013095D02*
X102639819Y-94679762D01*
X102687438Y-91536904D02*
X102639819Y-91632142D01*
X102639819Y-91632142D02*
X102639819Y-91774999D01*
X102639819Y-91774999D02*
X102687438Y-91917856D01*
X102687438Y-91917856D02*
X102782676Y-92013094D01*
X102782676Y-92013094D02*
X102877914Y-92060713D01*
X102877914Y-92060713D02*
X103068390Y-92108332D01*
X103068390Y-92108332D02*
X103211247Y-92108332D01*
X103211247Y-92108332D02*
X103401723Y-92060713D01*
X103401723Y-92060713D02*
X103496961Y-92013094D01*
X103496961Y-92013094D02*
X103592200Y-91917856D01*
X103592200Y-91917856D02*
X103639819Y-91774999D01*
X103639819Y-91774999D02*
X103639819Y-91679761D01*
X103639819Y-91679761D02*
X103592200Y-91536904D01*
X103592200Y-91536904D02*
X103544580Y-91489285D01*
X103544580Y-91489285D02*
X103211247Y-91489285D01*
X103211247Y-91489285D02*
X103211247Y-91679761D01*
X103639819Y-91060713D02*
X102639819Y-91060713D01*
X102639819Y-91060713D02*
X103639819Y-90489285D01*
X103639819Y-90489285D02*
X102639819Y-90489285D01*
X103639819Y-90013094D02*
X102639819Y-90013094D01*
X102639819Y-90013094D02*
X102639819Y-89774999D01*
X102639819Y-89774999D02*
X102687438Y-89632142D01*
X102687438Y-89632142D02*
X102782676Y-89536904D01*
X102782676Y-89536904D02*
X102877914Y-89489285D01*
X102877914Y-89489285D02*
X103068390Y-89441666D01*
X103068390Y-89441666D02*
X103211247Y-89441666D01*
X103211247Y-89441666D02*
X103401723Y-89489285D01*
X103401723Y-89489285D02*
X103496961Y-89536904D01*
X103496961Y-89536904D02*
X103592200Y-89632142D01*
X103592200Y-89632142D02*
X103639819Y-89774999D01*
X103639819Y-89774999D02*
X103639819Y-90013094D01*
X103258866Y-86727379D02*
X103258866Y-85965475D01*
X103639819Y-86346427D02*
X102877914Y-86346427D01*
X103639819Y-84965475D02*
X103639819Y-85536903D01*
X103639819Y-85251189D02*
X102639819Y-85251189D01*
X102639819Y-85251189D02*
X102782676Y-85346427D01*
X102782676Y-85346427D02*
X102877914Y-85441665D01*
X102877914Y-85441665D02*
X102925533Y-85536903D01*
X102735057Y-84584522D02*
X102687438Y-84536903D01*
X102687438Y-84536903D02*
X102639819Y-84441665D01*
X102639819Y-84441665D02*
X102639819Y-84203570D01*
X102639819Y-84203570D02*
X102687438Y-84108332D01*
X102687438Y-84108332D02*
X102735057Y-84060713D01*
X102735057Y-84060713D02*
X102830295Y-84013094D01*
X102830295Y-84013094D02*
X102925533Y-84013094D01*
X102925533Y-84013094D02*
X103068390Y-84060713D01*
X103068390Y-84060713D02*
X103639819Y-84632141D01*
X103639819Y-84632141D02*
X103639819Y-84013094D01*
X102639819Y-83727379D02*
X103639819Y-83394046D01*
X103639819Y-83394046D02*
X102639819Y-83060713D01*
X87892143Y-79829819D02*
X87892143Y-78829819D01*
X88368333Y-79163152D02*
X88368333Y-79829819D01*
X88368333Y-79258390D02*
X88415952Y-79210771D01*
X88415952Y-79210771D02*
X88511190Y-79163152D01*
X88511190Y-79163152D02*
X88654047Y-79163152D01*
X88654047Y-79163152D02*
X88749285Y-79210771D01*
X88749285Y-79210771D02*
X88796904Y-79306009D01*
X88796904Y-79306009D02*
X88796904Y-79829819D01*
X89273095Y-79163152D02*
X89273095Y-80163152D01*
X89273095Y-79210771D02*
X89368333Y-79163152D01*
X89368333Y-79163152D02*
X89558809Y-79163152D01*
X89558809Y-79163152D02*
X89654047Y-79210771D01*
X89654047Y-79210771D02*
X89701666Y-79258390D01*
X89701666Y-79258390D02*
X89749285Y-79353628D01*
X89749285Y-79353628D02*
X89749285Y-79639342D01*
X89749285Y-79639342D02*
X89701666Y-79734580D01*
X89701666Y-79734580D02*
X89654047Y-79782200D01*
X89654047Y-79782200D02*
X89558809Y-79829819D01*
X89558809Y-79829819D02*
X89368333Y-79829819D01*
X89368333Y-79829819D02*
X89273095Y-79782200D01*
X90606428Y-79163152D02*
X90606428Y-79829819D01*
X90177857Y-79163152D02*
X90177857Y-79686961D01*
X90177857Y-79686961D02*
X90225476Y-79782200D01*
X90225476Y-79782200D02*
X90320714Y-79829819D01*
X90320714Y-79829819D02*
X90463571Y-79829819D01*
X90463571Y-79829819D02*
X90558809Y-79782200D01*
X90558809Y-79782200D02*
X90606428Y-79734580D01*
X90939762Y-79163152D02*
X91320714Y-79163152D01*
X91082619Y-78829819D02*
X91082619Y-79686961D01*
X91082619Y-79686961D02*
X91130238Y-79782200D01*
X91130238Y-79782200D02*
X91225476Y-79829819D01*
X91225476Y-79829819D02*
X91320714Y-79829819D01*
X107549819Y-70966666D02*
X107073628Y-71299999D01*
X107549819Y-71538094D02*
X106549819Y-71538094D01*
X106549819Y-71538094D02*
X106549819Y-71157142D01*
X106549819Y-71157142D02*
X106597438Y-71061904D01*
X106597438Y-71061904D02*
X106645057Y-71014285D01*
X106645057Y-71014285D02*
X106740295Y-70966666D01*
X106740295Y-70966666D02*
X106883152Y-70966666D01*
X106883152Y-70966666D02*
X106978390Y-71014285D01*
X106978390Y-71014285D02*
X107026009Y-71061904D01*
X107026009Y-71061904D02*
X107073628Y-71157142D01*
X107073628Y-71157142D02*
X107073628Y-71538094D01*
X106645057Y-70585713D02*
X106597438Y-70538094D01*
X106597438Y-70538094D02*
X106549819Y-70442856D01*
X106549819Y-70442856D02*
X106549819Y-70204761D01*
X106549819Y-70204761D02*
X106597438Y-70109523D01*
X106597438Y-70109523D02*
X106645057Y-70061904D01*
X106645057Y-70061904D02*
X106740295Y-70014285D01*
X106740295Y-70014285D02*
X106835533Y-70014285D01*
X106835533Y-70014285D02*
X106978390Y-70061904D01*
X106978390Y-70061904D02*
X107549819Y-70633332D01*
X107549819Y-70633332D02*
X107549819Y-70014285D01*
X105449819Y-70919047D02*
X105449819Y-71490475D01*
X105449819Y-71204761D02*
X104449819Y-71204761D01*
X104449819Y-71204761D02*
X104592676Y-71299999D01*
X104592676Y-71299999D02*
X104687914Y-71395237D01*
X104687914Y-71395237D02*
X104735533Y-71490475D01*
X105449819Y-70490475D02*
X104449819Y-70490475D01*
X105068866Y-70395237D02*
X105449819Y-70109523D01*
X104783152Y-70109523D02*
X105164104Y-70490475D01*
X108340833Y-91589580D02*
X108293214Y-91637200D01*
X108293214Y-91637200D02*
X108150357Y-91684819D01*
X108150357Y-91684819D02*
X108055119Y-91684819D01*
X108055119Y-91684819D02*
X107912262Y-91637200D01*
X107912262Y-91637200D02*
X107817024Y-91541961D01*
X107817024Y-91541961D02*
X107769405Y-91446723D01*
X107769405Y-91446723D02*
X107721786Y-91256247D01*
X107721786Y-91256247D02*
X107721786Y-91113390D01*
X107721786Y-91113390D02*
X107769405Y-90922914D01*
X107769405Y-90922914D02*
X107817024Y-90827676D01*
X107817024Y-90827676D02*
X107912262Y-90732438D01*
X107912262Y-90732438D02*
X108055119Y-90684819D01*
X108055119Y-90684819D02*
X108150357Y-90684819D01*
X108150357Y-90684819D02*
X108293214Y-90732438D01*
X108293214Y-90732438D02*
X108340833Y-90780057D01*
X109293214Y-91684819D02*
X108721786Y-91684819D01*
X109007500Y-91684819D02*
X109007500Y-90684819D01*
X109007500Y-90684819D02*
X108912262Y-90827676D01*
X108912262Y-90827676D02*
X108817024Y-90922914D01*
X108817024Y-90922914D02*
X108721786Y-90970533D01*
X107055119Y-93740057D02*
X107102738Y-93692438D01*
X107102738Y-93692438D02*
X107197976Y-93644819D01*
X107197976Y-93644819D02*
X107436071Y-93644819D01*
X107436071Y-93644819D02*
X107531309Y-93692438D01*
X107531309Y-93692438D02*
X107578928Y-93740057D01*
X107578928Y-93740057D02*
X107626547Y-93835295D01*
X107626547Y-93835295D02*
X107626547Y-93930533D01*
X107626547Y-93930533D02*
X107578928Y-94073390D01*
X107578928Y-94073390D02*
X107007500Y-94644819D01*
X107007500Y-94644819D02*
X107626547Y-94644819D01*
X108055119Y-94549580D02*
X108102738Y-94597200D01*
X108102738Y-94597200D02*
X108055119Y-94644819D01*
X108055119Y-94644819D02*
X108007500Y-94597200D01*
X108007500Y-94597200D02*
X108055119Y-94549580D01*
X108055119Y-94549580D02*
X108055119Y-94644819D01*
X108483690Y-93740057D02*
X108531309Y-93692438D01*
X108531309Y-93692438D02*
X108626547Y-93644819D01*
X108626547Y-93644819D02*
X108864642Y-93644819D01*
X108864642Y-93644819D02*
X108959880Y-93692438D01*
X108959880Y-93692438D02*
X109007499Y-93740057D01*
X109007499Y-93740057D02*
X109055118Y-93835295D01*
X109055118Y-93835295D02*
X109055118Y-93930533D01*
X109055118Y-93930533D02*
X109007499Y-94073390D01*
X109007499Y-94073390D02*
X108436071Y-94644819D01*
X108436071Y-94644819D02*
X109055118Y-94644819D01*
X109912261Y-93978152D02*
X109912261Y-94644819D01*
X109483690Y-93978152D02*
X109483690Y-94501961D01*
X109483690Y-94501961D02*
X109531309Y-94597200D01*
X109531309Y-94597200D02*
X109626547Y-94644819D01*
X109626547Y-94644819D02*
X109769404Y-94644819D01*
X109769404Y-94644819D02*
X109864642Y-94597200D01*
X109864642Y-94597200D02*
X109912261Y-94549580D01*
X108418333Y-87144580D02*
X108370714Y-87192200D01*
X108370714Y-87192200D02*
X108227857Y-87239819D01*
X108227857Y-87239819D02*
X108132619Y-87239819D01*
X108132619Y-87239819D02*
X107989762Y-87192200D01*
X107989762Y-87192200D02*
X107894524Y-87096961D01*
X107894524Y-87096961D02*
X107846905Y-87001723D01*
X107846905Y-87001723D02*
X107799286Y-86811247D01*
X107799286Y-86811247D02*
X107799286Y-86668390D01*
X107799286Y-86668390D02*
X107846905Y-86477914D01*
X107846905Y-86477914D02*
X107894524Y-86382676D01*
X107894524Y-86382676D02*
X107989762Y-86287438D01*
X107989762Y-86287438D02*
X108132619Y-86239819D01*
X108132619Y-86239819D02*
X108227857Y-86239819D01*
X108227857Y-86239819D02*
X108370714Y-86287438D01*
X108370714Y-86287438D02*
X108418333Y-86335057D01*
X109275476Y-86573152D02*
X109275476Y-87239819D01*
X109037381Y-86192200D02*
X108799286Y-86906485D01*
X108799286Y-86906485D02*
X109418333Y-86906485D01*
X107942142Y-90199819D02*
X107370714Y-90199819D01*
X107656428Y-90199819D02*
X107656428Y-89199819D01*
X107656428Y-89199819D02*
X107561190Y-89342676D01*
X107561190Y-89342676D02*
X107465952Y-89437914D01*
X107465952Y-89437914D02*
X107370714Y-89485533D01*
X108561190Y-89199819D02*
X108656428Y-89199819D01*
X108656428Y-89199819D02*
X108751666Y-89247438D01*
X108751666Y-89247438D02*
X108799285Y-89295057D01*
X108799285Y-89295057D02*
X108846904Y-89390295D01*
X108846904Y-89390295D02*
X108894523Y-89580771D01*
X108894523Y-89580771D02*
X108894523Y-89818866D01*
X108894523Y-89818866D02*
X108846904Y-90009342D01*
X108846904Y-90009342D02*
X108799285Y-90104580D01*
X108799285Y-90104580D02*
X108751666Y-90152200D01*
X108751666Y-90152200D02*
X108656428Y-90199819D01*
X108656428Y-90199819D02*
X108561190Y-90199819D01*
X108561190Y-90199819D02*
X108465952Y-90152200D01*
X108465952Y-90152200D02*
X108418333Y-90104580D01*
X108418333Y-90104580D02*
X108370714Y-90009342D01*
X108370714Y-90009342D02*
X108323095Y-89818866D01*
X108323095Y-89818866D02*
X108323095Y-89580771D01*
X108323095Y-89580771D02*
X108370714Y-89390295D01*
X108370714Y-89390295D02*
X108418333Y-89295057D01*
X108418333Y-89295057D02*
X108465952Y-89247438D01*
X108465952Y-89247438D02*
X108561190Y-89199819D01*
X109323095Y-89533152D02*
X109323095Y-90199819D01*
X109323095Y-89628390D02*
X109370714Y-89580771D01*
X109370714Y-89580771D02*
X109465952Y-89533152D01*
X109465952Y-89533152D02*
X109608809Y-89533152D01*
X109608809Y-89533152D02*
X109704047Y-89580771D01*
X109704047Y-89580771D02*
X109751666Y-89676009D01*
X109751666Y-89676009D02*
X109751666Y-90199819D01*
X111006190Y-78499819D02*
X111196666Y-78499819D01*
X111196666Y-78499819D02*
X111291904Y-78547438D01*
X111291904Y-78547438D02*
X111387142Y-78642676D01*
X111387142Y-78642676D02*
X111434761Y-78833152D01*
X111434761Y-78833152D02*
X111434761Y-79166485D01*
X111434761Y-79166485D02*
X111387142Y-79356961D01*
X111387142Y-79356961D02*
X111291904Y-79452200D01*
X111291904Y-79452200D02*
X111196666Y-79499819D01*
X111196666Y-79499819D02*
X111006190Y-79499819D01*
X111006190Y-79499819D02*
X110910952Y-79452200D01*
X110910952Y-79452200D02*
X110815714Y-79356961D01*
X110815714Y-79356961D02*
X110768095Y-79166485D01*
X110768095Y-79166485D02*
X110768095Y-78833152D01*
X110768095Y-78833152D02*
X110815714Y-78642676D01*
X110815714Y-78642676D02*
X110910952Y-78547438D01*
X110910952Y-78547438D02*
X111006190Y-78499819D01*
X112291904Y-78833152D02*
X112291904Y-79499819D01*
X111863333Y-78833152D02*
X111863333Y-79356961D01*
X111863333Y-79356961D02*
X111910952Y-79452200D01*
X111910952Y-79452200D02*
X112006190Y-79499819D01*
X112006190Y-79499819D02*
X112149047Y-79499819D01*
X112149047Y-79499819D02*
X112244285Y-79452200D01*
X112244285Y-79452200D02*
X112291904Y-79404580D01*
X112625238Y-78833152D02*
X113006190Y-78833152D01*
X112768095Y-78499819D02*
X112768095Y-79356961D01*
X112768095Y-79356961D02*
X112815714Y-79452200D01*
X112815714Y-79452200D02*
X112910952Y-79499819D01*
X112910952Y-79499819D02*
X113006190Y-79499819D01*
X113339524Y-78833152D02*
X113339524Y-79833152D01*
X113339524Y-78880771D02*
X113434762Y-78833152D01*
X113434762Y-78833152D02*
X113625238Y-78833152D01*
X113625238Y-78833152D02*
X113720476Y-78880771D01*
X113720476Y-78880771D02*
X113768095Y-78928390D01*
X113768095Y-78928390D02*
X113815714Y-79023628D01*
X113815714Y-79023628D02*
X113815714Y-79309342D01*
X113815714Y-79309342D02*
X113768095Y-79404580D01*
X113768095Y-79404580D02*
X113720476Y-79452200D01*
X113720476Y-79452200D02*
X113625238Y-79499819D01*
X113625238Y-79499819D02*
X113434762Y-79499819D01*
X113434762Y-79499819D02*
X113339524Y-79452200D01*
X114672857Y-78833152D02*
X114672857Y-79499819D01*
X114244286Y-78833152D02*
X114244286Y-79356961D01*
X114244286Y-79356961D02*
X114291905Y-79452200D01*
X114291905Y-79452200D02*
X114387143Y-79499819D01*
X114387143Y-79499819D02*
X114530000Y-79499819D01*
X114530000Y-79499819D02*
X114625238Y-79452200D01*
X114625238Y-79452200D02*
X114672857Y-79404580D01*
X115006191Y-78833152D02*
X115387143Y-78833152D01*
X115149048Y-78499819D02*
X115149048Y-79356961D01*
X115149048Y-79356961D02*
X115196667Y-79452200D01*
X115196667Y-79452200D02*
X115291905Y-79499819D01*
X115291905Y-79499819D02*
X115387143Y-79499819D01*
D11*
%TO.C,C2*%
X106997500Y-96370000D02*
X106997500Y-97940000D01*
X106997500Y-97940000D02*
X109307500Y-97940000D01*
X109307500Y-96370000D02*
X106997500Y-96370000D01*
%TO.C,U1*%
X99695000Y-71100000D02*
X96245000Y-71100000D01*
X99695000Y-71100000D02*
X101645000Y-71100000D01*
X99695000Y-76220000D02*
X97745000Y-76220000D01*
X99695000Y-76220000D02*
X101645000Y-76220000D01*
%TO.C,C3*%
X106997500Y-83035000D02*
X106997500Y-84605000D01*
X106997500Y-84605000D02*
X109307500Y-84605000D01*
X109307500Y-83035000D02*
X106997500Y-83035000D01*
%TO.C,J3*%
X89585000Y-98375000D02*
X102185000Y-98375000D01*
X102185000Y-98375000D02*
X102185000Y-82975000D01*
X94385000Y-82975000D02*
X94635000Y-82475000D01*
X99785000Y-82975000D02*
X94385000Y-82975000D01*
X101235000Y-82975000D02*
X101535000Y-82475000D01*
X102185000Y-82975000D02*
X101235000Y-82975000D01*
X89585000Y-82475000D02*
X89585000Y-98375000D01*
X94635000Y-82475000D02*
X89585000Y-82475000D01*
X99535000Y-82475000D02*
X99785000Y-82975000D01*
X101535000Y-82475000D02*
X99535000Y-82475000D01*
%TO.C,J1*%
X86180000Y-73355000D02*
X86180000Y-75235000D01*
X92890000Y-73355000D02*
X92890000Y-75235000D01*
%TO.C,C1*%
X106997500Y-91925000D02*
X106997500Y-93495000D01*
X106997500Y-93495000D02*
X109307500Y-93495000D01*
X109307500Y-91925000D02*
X106997500Y-91925000D01*
%TO.C,C4*%
X107075000Y-87480000D02*
X107075000Y-89050000D01*
X107075000Y-89050000D02*
X109385000Y-89050000D01*
X109385000Y-87480000D02*
X107075000Y-87480000D01*
%TO.C,J2*%
X109675000Y-73355000D02*
X109675000Y-75235000D01*
X116385000Y-73355000D02*
X116385000Y-75235000D01*
%TD*%
M02*
