%TF.GenerationSoftware,KiCad,Pcbnew,7.0.10*%
%TF.CreationDate,2024-03-14T12:03:47+01:00*%
%TF.ProjectId,FMC_breakout,464d435f-6272-4656-916b-6f75742e6b69,1.2*%
%TF.SameCoordinates,Original*%
%TF.FileFunction,Legend,Bot*%
%TF.FilePolarity,Positive*%
%FSLAX46Y46*%
G04 Gerber Fmt 4.6, Leading zero omitted, Abs format (unit mm)*
G04 Created by KiCad (PCBNEW 7.0.10) date 2024-03-14 12:03:47*
%MOMM*%
%LPD*%
G01*
G04 APERTURE LIST*
%ADD10C,0.150000*%
%ADD11C,0.120000*%
G04 APERTURE END LIST*
D10*
X71423333Y-61509819D02*
X71423333Y-62224104D01*
X71423333Y-62224104D02*
X71470952Y-62366961D01*
X71470952Y-62366961D02*
X71566190Y-62462200D01*
X71566190Y-62462200D02*
X71709047Y-62509819D01*
X71709047Y-62509819D02*
X71804285Y-62509819D01*
X70756666Y-61509819D02*
X70661428Y-61509819D01*
X70661428Y-61509819D02*
X70566190Y-61557438D01*
X70566190Y-61557438D02*
X70518571Y-61605057D01*
X70518571Y-61605057D02*
X70470952Y-61700295D01*
X70470952Y-61700295D02*
X70423333Y-61890771D01*
X70423333Y-61890771D02*
X70423333Y-62128866D01*
X70423333Y-62128866D02*
X70470952Y-62319342D01*
X70470952Y-62319342D02*
X70518571Y-62414580D01*
X70518571Y-62414580D02*
X70566190Y-62462200D01*
X70566190Y-62462200D02*
X70661428Y-62509819D01*
X70661428Y-62509819D02*
X70756666Y-62509819D01*
X70756666Y-62509819D02*
X70851904Y-62462200D01*
X70851904Y-62462200D02*
X70899523Y-62414580D01*
X70899523Y-62414580D02*
X70947142Y-62319342D01*
X70947142Y-62319342D02*
X70994761Y-62128866D01*
X70994761Y-62128866D02*
X70994761Y-61890771D01*
X70994761Y-61890771D02*
X70947142Y-61700295D01*
X70947142Y-61700295D02*
X70899523Y-61605057D01*
X70899523Y-61605057D02*
X70851904Y-61557438D01*
X70851904Y-61557438D02*
X70756666Y-61509819D01*
D11*
%TO.C,J0*%
X78790000Y-64775000D02*
X78790000Y-63775000D01*
X78790000Y-63775000D02*
X77790000Y-63775000D01*
X78540000Y-120005000D02*
X63640000Y-120005000D01*
X78540000Y-64005000D02*
X78540000Y-120005000D01*
X71960000Y-64005000D02*
X78540000Y-64005000D01*
X71960000Y-63115000D02*
X71960000Y-64005000D01*
X70220000Y-64005000D02*
X70220000Y-63115000D01*
X70220000Y-63115000D02*
X71960000Y-63115000D01*
X63640000Y-120005000D02*
X63640000Y-64005000D01*
X63640000Y-64005000D02*
X70220000Y-64005000D01*
%TD*%
M02*
