%TF.GenerationSoftware,KiCad,Pcbnew,7.0.10*%
%TF.CreationDate,2024-03-14T12:03:40+01:00*%
%TF.ProjectId,FMC_breakout,464d435f-6272-4656-916b-6f75742e6b69,1.2*%
%TF.SameCoordinates,Original*%
%TF.FileFunction,Drillmap*%
%TF.FilePolarity,Positive*%
%FSLAX45Y45*%
G04 Gerber Fmt 4.5, Leading zero omitted, Abs format (unit mm)*
G04 Created by KiCad (PCBNEW 7.0.10) date 2024-03-14 12:03:40*
%MOMM*%
%LPD*%
G01*
G04 APERTURE LIST*
%ADD10C,0.100000*%
%ADD11C,0.200000*%
G04 APERTURE END LIST*
D10*
X2984500Y-5588000D02*
X11493500Y-5588000D01*
X11493500Y-12954000D01*
X2984500Y-12954000D01*
X2984500Y-5588000D01*
D11*
D10*
X6520500Y-6838000D02*
X6560500Y-6878000D01*
X6560500Y-6838000D02*
X6520500Y-6878000D01*
X6520500Y-11537000D02*
X6560500Y-11577000D01*
X6560500Y-11537000D02*
X6520500Y-11577000D01*
X6774500Y-6965000D02*
X6814500Y-7005000D01*
X6814500Y-6965000D02*
X6774500Y-7005000D01*
X6774500Y-7854000D02*
X6814500Y-7894000D01*
X6814500Y-7854000D02*
X6774500Y-7894000D01*
X6774500Y-7981000D02*
X6814500Y-8021000D01*
X6814500Y-7981000D02*
X6774500Y-8021000D01*
X6774500Y-8997000D02*
X6814500Y-9037000D01*
X6814500Y-8997000D02*
X6774500Y-9037000D01*
X6774500Y-9124000D02*
X6814500Y-9164000D01*
X6814500Y-9124000D02*
X6774500Y-9164000D01*
X6774500Y-10140000D02*
X6814500Y-10180000D01*
X6814500Y-10140000D02*
X6774500Y-10180000D01*
X6774500Y-10267000D02*
X6814500Y-10307000D01*
X6814500Y-10267000D02*
X6774500Y-10307000D01*
X6774500Y-11283000D02*
X6814500Y-11323000D01*
X6814500Y-11283000D02*
X6774500Y-11323000D01*
X6774500Y-11410000D02*
X6814500Y-11450000D01*
X6814500Y-11410000D02*
X6774500Y-11450000D01*
X6901500Y-7346000D02*
X6941500Y-7386000D01*
X6941500Y-7346000D02*
X6901500Y-7386000D01*
X6901500Y-7473000D02*
X6941500Y-7513000D01*
X6941500Y-7473000D02*
X6901500Y-7513000D01*
X6901500Y-11664000D02*
X6941500Y-11704000D01*
X6941500Y-11664000D02*
X6901500Y-11704000D01*
X7282500Y-7600000D02*
X7322500Y-7640000D01*
X7322500Y-7600000D02*
X7282500Y-7640000D01*
X7282500Y-7727000D02*
X7322500Y-7767000D01*
X7322500Y-7727000D02*
X7282500Y-7767000D01*
X7282500Y-9124000D02*
X7322500Y-9164000D01*
X7322500Y-9124000D02*
X7282500Y-9164000D01*
X7282500Y-9251000D02*
X7322500Y-9291000D01*
X7322500Y-9251000D02*
X7282500Y-9291000D01*
X7282500Y-9886000D02*
X7322500Y-9926000D01*
X7322500Y-9886000D02*
X7282500Y-9926000D01*
X7282500Y-10013000D02*
X7322500Y-10053000D01*
X7322500Y-10013000D02*
X7282500Y-10053000D01*
X7282500Y-11537000D02*
X7322500Y-11577000D01*
X7322500Y-11537000D02*
X7282500Y-11577000D01*
X7409500Y-7854000D02*
X7449500Y-7894000D01*
X7449500Y-7854000D02*
X7409500Y-7894000D01*
X7409500Y-7981000D02*
X7449500Y-8021000D01*
X7449500Y-7981000D02*
X7409500Y-8021000D01*
X7409500Y-9378000D02*
X7449500Y-9418000D01*
X7449500Y-9378000D02*
X7409500Y-9418000D01*
X7409500Y-9505000D02*
X7449500Y-9545000D01*
X7449500Y-9505000D02*
X7409500Y-9545000D01*
X7409500Y-10775000D02*
X7449500Y-10815000D01*
X7449500Y-10775000D02*
X7409500Y-10815000D01*
X7663500Y-6711000D02*
X7703500Y-6751000D01*
X7703500Y-6711000D02*
X7663500Y-6751000D01*
X7663500Y-11664000D02*
X7703500Y-11704000D01*
X7703500Y-11664000D02*
X7663500Y-11704000D01*
D11*
X3240277Y-13270484D02*
X3240277Y-13070484D01*
X3240277Y-13070484D02*
X3287896Y-13070484D01*
X3287896Y-13070484D02*
X3316467Y-13080008D01*
X3316467Y-13080008D02*
X3335515Y-13099055D01*
X3335515Y-13099055D02*
X3345039Y-13118103D01*
X3345039Y-13118103D02*
X3354562Y-13156198D01*
X3354562Y-13156198D02*
X3354562Y-13184769D01*
X3354562Y-13184769D02*
X3345039Y-13222865D01*
X3345039Y-13222865D02*
X3335515Y-13241912D01*
X3335515Y-13241912D02*
X3316467Y-13260960D01*
X3316467Y-13260960D02*
X3287896Y-13270484D01*
X3287896Y-13270484D02*
X3240277Y-13270484D01*
X3440277Y-13270484D02*
X3440277Y-13137150D01*
X3440277Y-13175246D02*
X3449801Y-13156198D01*
X3449801Y-13156198D02*
X3459324Y-13146674D01*
X3459324Y-13146674D02*
X3478372Y-13137150D01*
X3478372Y-13137150D02*
X3497420Y-13137150D01*
X3564086Y-13270484D02*
X3564086Y-13137150D01*
X3564086Y-13070484D02*
X3554562Y-13080008D01*
X3554562Y-13080008D02*
X3564086Y-13089531D01*
X3564086Y-13089531D02*
X3573610Y-13080008D01*
X3573610Y-13080008D02*
X3564086Y-13070484D01*
X3564086Y-13070484D02*
X3564086Y-13089531D01*
X3687896Y-13270484D02*
X3668848Y-13260960D01*
X3668848Y-13260960D02*
X3659324Y-13241912D01*
X3659324Y-13241912D02*
X3659324Y-13070484D01*
X3792658Y-13270484D02*
X3773610Y-13260960D01*
X3773610Y-13260960D02*
X3764086Y-13241912D01*
X3764086Y-13241912D02*
X3764086Y-13070484D01*
X4021229Y-13270484D02*
X4021229Y-13070484D01*
X4021229Y-13070484D02*
X4087896Y-13213341D01*
X4087896Y-13213341D02*
X4154562Y-13070484D01*
X4154562Y-13070484D02*
X4154562Y-13270484D01*
X4335515Y-13270484D02*
X4335515Y-13165722D01*
X4335515Y-13165722D02*
X4325991Y-13146674D01*
X4325991Y-13146674D02*
X4306944Y-13137150D01*
X4306944Y-13137150D02*
X4268848Y-13137150D01*
X4268848Y-13137150D02*
X4249801Y-13146674D01*
X4335515Y-13260960D02*
X4316467Y-13270484D01*
X4316467Y-13270484D02*
X4268848Y-13270484D01*
X4268848Y-13270484D02*
X4249801Y-13260960D01*
X4249801Y-13260960D02*
X4240277Y-13241912D01*
X4240277Y-13241912D02*
X4240277Y-13222865D01*
X4240277Y-13222865D02*
X4249801Y-13203817D01*
X4249801Y-13203817D02*
X4268848Y-13194293D01*
X4268848Y-13194293D02*
X4316467Y-13194293D01*
X4316467Y-13194293D02*
X4335515Y-13184769D01*
X4430753Y-13137150D02*
X4430753Y-13337150D01*
X4430753Y-13146674D02*
X4449801Y-13137150D01*
X4449801Y-13137150D02*
X4487896Y-13137150D01*
X4487896Y-13137150D02*
X4506944Y-13146674D01*
X4506944Y-13146674D02*
X4516467Y-13156198D01*
X4516467Y-13156198D02*
X4525991Y-13175246D01*
X4525991Y-13175246D02*
X4525991Y-13232388D01*
X4525991Y-13232388D02*
X4516467Y-13251436D01*
X4516467Y-13251436D02*
X4506944Y-13260960D01*
X4506944Y-13260960D02*
X4487896Y-13270484D01*
X4487896Y-13270484D02*
X4449801Y-13270484D01*
X4449801Y-13270484D02*
X4430753Y-13260960D01*
X4611705Y-13251436D02*
X4621229Y-13260960D01*
X4621229Y-13260960D02*
X4611705Y-13270484D01*
X4611705Y-13270484D02*
X4602182Y-13260960D01*
X4602182Y-13260960D02*
X4611705Y-13251436D01*
X4611705Y-13251436D02*
X4611705Y-13270484D01*
X4611705Y-13146674D02*
X4621229Y-13156198D01*
X4621229Y-13156198D02*
X4611705Y-13165722D01*
X4611705Y-13165722D02*
X4602182Y-13156198D01*
X4602182Y-13156198D02*
X4611705Y-13146674D01*
X4611705Y-13146674D02*
X4611705Y-13165722D01*
D10*
X2939500Y-13579000D02*
X2979500Y-13619000D01*
X2979500Y-13579000D02*
X2939500Y-13619000D01*
D11*
X3278372Y-13490484D02*
X3297420Y-13490484D01*
X3297420Y-13490484D02*
X3316467Y-13500008D01*
X3316467Y-13500008D02*
X3325991Y-13509531D01*
X3325991Y-13509531D02*
X3335515Y-13528579D01*
X3335515Y-13528579D02*
X3345039Y-13566674D01*
X3345039Y-13566674D02*
X3345039Y-13614293D01*
X3345039Y-13614293D02*
X3335515Y-13652388D01*
X3335515Y-13652388D02*
X3325991Y-13671436D01*
X3325991Y-13671436D02*
X3316467Y-13680960D01*
X3316467Y-13680960D02*
X3297420Y-13690484D01*
X3297420Y-13690484D02*
X3278372Y-13690484D01*
X3278372Y-13690484D02*
X3259324Y-13680960D01*
X3259324Y-13680960D02*
X3249801Y-13671436D01*
X3249801Y-13671436D02*
X3240277Y-13652388D01*
X3240277Y-13652388D02*
X3230753Y-13614293D01*
X3230753Y-13614293D02*
X3230753Y-13566674D01*
X3230753Y-13566674D02*
X3240277Y-13528579D01*
X3240277Y-13528579D02*
X3249801Y-13509531D01*
X3249801Y-13509531D02*
X3259324Y-13500008D01*
X3259324Y-13500008D02*
X3278372Y-13490484D01*
X3430753Y-13671436D02*
X3440277Y-13680960D01*
X3440277Y-13680960D02*
X3430753Y-13690484D01*
X3430753Y-13690484D02*
X3421229Y-13680960D01*
X3421229Y-13680960D02*
X3430753Y-13671436D01*
X3430753Y-13671436D02*
X3430753Y-13690484D01*
X3611705Y-13557150D02*
X3611705Y-13690484D01*
X3564086Y-13480960D02*
X3516467Y-13623817D01*
X3516467Y-13623817D02*
X3640277Y-13623817D01*
X3754562Y-13490484D02*
X3773610Y-13490484D01*
X3773610Y-13490484D02*
X3792658Y-13500008D01*
X3792658Y-13500008D02*
X3802182Y-13509531D01*
X3802182Y-13509531D02*
X3811705Y-13528579D01*
X3811705Y-13528579D02*
X3821229Y-13566674D01*
X3821229Y-13566674D02*
X3821229Y-13614293D01*
X3821229Y-13614293D02*
X3811705Y-13652388D01*
X3811705Y-13652388D02*
X3802182Y-13671436D01*
X3802182Y-13671436D02*
X3792658Y-13680960D01*
X3792658Y-13680960D02*
X3773610Y-13690484D01*
X3773610Y-13690484D02*
X3754562Y-13690484D01*
X3754562Y-13690484D02*
X3735515Y-13680960D01*
X3735515Y-13680960D02*
X3725991Y-13671436D01*
X3725991Y-13671436D02*
X3716467Y-13652388D01*
X3716467Y-13652388D02*
X3706943Y-13614293D01*
X3706943Y-13614293D02*
X3706943Y-13566674D01*
X3706943Y-13566674D02*
X3716467Y-13528579D01*
X3716467Y-13528579D02*
X3725991Y-13509531D01*
X3725991Y-13509531D02*
X3735515Y-13500008D01*
X3735515Y-13500008D02*
X3754562Y-13490484D01*
X3945039Y-13490484D02*
X3964086Y-13490484D01*
X3964086Y-13490484D02*
X3983134Y-13500008D01*
X3983134Y-13500008D02*
X3992658Y-13509531D01*
X3992658Y-13509531D02*
X4002182Y-13528579D01*
X4002182Y-13528579D02*
X4011705Y-13566674D01*
X4011705Y-13566674D02*
X4011705Y-13614293D01*
X4011705Y-13614293D02*
X4002182Y-13652388D01*
X4002182Y-13652388D02*
X3992658Y-13671436D01*
X3992658Y-13671436D02*
X3983134Y-13680960D01*
X3983134Y-13680960D02*
X3964086Y-13690484D01*
X3964086Y-13690484D02*
X3945039Y-13690484D01*
X3945039Y-13690484D02*
X3925991Y-13680960D01*
X3925991Y-13680960D02*
X3916467Y-13671436D01*
X3916467Y-13671436D02*
X3906943Y-13652388D01*
X3906943Y-13652388D02*
X3897420Y-13614293D01*
X3897420Y-13614293D02*
X3897420Y-13566674D01*
X3897420Y-13566674D02*
X3906943Y-13528579D01*
X3906943Y-13528579D02*
X3916467Y-13509531D01*
X3916467Y-13509531D02*
X3925991Y-13500008D01*
X3925991Y-13500008D02*
X3945039Y-13490484D01*
X4097420Y-13690484D02*
X4097420Y-13557150D01*
X4097420Y-13576198D02*
X4106943Y-13566674D01*
X4106943Y-13566674D02*
X4125991Y-13557150D01*
X4125991Y-13557150D02*
X4154563Y-13557150D01*
X4154563Y-13557150D02*
X4173610Y-13566674D01*
X4173610Y-13566674D02*
X4183134Y-13585722D01*
X4183134Y-13585722D02*
X4183134Y-13690484D01*
X4183134Y-13585722D02*
X4192658Y-13566674D01*
X4192658Y-13566674D02*
X4211705Y-13557150D01*
X4211705Y-13557150D02*
X4240277Y-13557150D01*
X4240277Y-13557150D02*
X4259325Y-13566674D01*
X4259325Y-13566674D02*
X4268848Y-13585722D01*
X4268848Y-13585722D02*
X4268848Y-13690484D01*
X4364086Y-13690484D02*
X4364086Y-13557150D01*
X4364086Y-13576198D02*
X4373610Y-13566674D01*
X4373610Y-13566674D02*
X4392658Y-13557150D01*
X4392658Y-13557150D02*
X4421229Y-13557150D01*
X4421229Y-13557150D02*
X4440277Y-13566674D01*
X4440277Y-13566674D02*
X4449801Y-13585722D01*
X4449801Y-13585722D02*
X4449801Y-13690484D01*
X4449801Y-13585722D02*
X4459325Y-13566674D01*
X4459325Y-13566674D02*
X4478372Y-13557150D01*
X4478372Y-13557150D02*
X4506944Y-13557150D01*
X4506944Y-13557150D02*
X4525991Y-13566674D01*
X4525991Y-13566674D02*
X4535515Y-13585722D01*
X4535515Y-13585722D02*
X4535515Y-13690484D01*
X4925991Y-13480960D02*
X4754563Y-13738103D01*
X5183134Y-13490484D02*
X5202182Y-13490484D01*
X5202182Y-13490484D02*
X5221229Y-13500008D01*
X5221229Y-13500008D02*
X5230753Y-13509531D01*
X5230753Y-13509531D02*
X5240277Y-13528579D01*
X5240277Y-13528579D02*
X5249801Y-13566674D01*
X5249801Y-13566674D02*
X5249801Y-13614293D01*
X5249801Y-13614293D02*
X5240277Y-13652388D01*
X5240277Y-13652388D02*
X5230753Y-13671436D01*
X5230753Y-13671436D02*
X5221229Y-13680960D01*
X5221229Y-13680960D02*
X5202182Y-13690484D01*
X5202182Y-13690484D02*
X5183134Y-13690484D01*
X5183134Y-13690484D02*
X5164087Y-13680960D01*
X5164087Y-13680960D02*
X5154563Y-13671436D01*
X5154563Y-13671436D02*
X5145039Y-13652388D01*
X5145039Y-13652388D02*
X5135515Y-13614293D01*
X5135515Y-13614293D02*
X5135515Y-13566674D01*
X5135515Y-13566674D02*
X5145039Y-13528579D01*
X5145039Y-13528579D02*
X5154563Y-13509531D01*
X5154563Y-13509531D02*
X5164087Y-13500008D01*
X5164087Y-13500008D02*
X5183134Y-13490484D01*
X5335515Y-13671436D02*
X5345039Y-13680960D01*
X5345039Y-13680960D02*
X5335515Y-13690484D01*
X5335515Y-13690484D02*
X5325991Y-13680960D01*
X5325991Y-13680960D02*
X5335515Y-13671436D01*
X5335515Y-13671436D02*
X5335515Y-13690484D01*
X5468848Y-13490484D02*
X5487896Y-13490484D01*
X5487896Y-13490484D02*
X5506944Y-13500008D01*
X5506944Y-13500008D02*
X5516468Y-13509531D01*
X5516468Y-13509531D02*
X5525991Y-13528579D01*
X5525991Y-13528579D02*
X5535515Y-13566674D01*
X5535515Y-13566674D02*
X5535515Y-13614293D01*
X5535515Y-13614293D02*
X5525991Y-13652388D01*
X5525991Y-13652388D02*
X5516468Y-13671436D01*
X5516468Y-13671436D02*
X5506944Y-13680960D01*
X5506944Y-13680960D02*
X5487896Y-13690484D01*
X5487896Y-13690484D02*
X5468848Y-13690484D01*
X5468848Y-13690484D02*
X5449801Y-13680960D01*
X5449801Y-13680960D02*
X5440277Y-13671436D01*
X5440277Y-13671436D02*
X5430753Y-13652388D01*
X5430753Y-13652388D02*
X5421229Y-13614293D01*
X5421229Y-13614293D02*
X5421229Y-13566674D01*
X5421229Y-13566674D02*
X5430753Y-13528579D01*
X5430753Y-13528579D02*
X5440277Y-13509531D01*
X5440277Y-13509531D02*
X5449801Y-13500008D01*
X5449801Y-13500008D02*
X5468848Y-13490484D01*
X5725991Y-13690484D02*
X5611706Y-13690484D01*
X5668848Y-13690484D02*
X5668848Y-13490484D01*
X5668848Y-13490484D02*
X5649801Y-13519055D01*
X5649801Y-13519055D02*
X5630753Y-13538103D01*
X5630753Y-13538103D02*
X5611706Y-13547627D01*
X5906944Y-13490484D02*
X5811706Y-13490484D01*
X5811706Y-13490484D02*
X5802182Y-13585722D01*
X5802182Y-13585722D02*
X5811706Y-13576198D01*
X5811706Y-13576198D02*
X5830753Y-13566674D01*
X5830753Y-13566674D02*
X5878372Y-13566674D01*
X5878372Y-13566674D02*
X5897420Y-13576198D01*
X5897420Y-13576198D02*
X5906944Y-13585722D01*
X5906944Y-13585722D02*
X5916467Y-13604769D01*
X5916467Y-13604769D02*
X5916467Y-13652388D01*
X5916467Y-13652388D02*
X5906944Y-13671436D01*
X5906944Y-13671436D02*
X5897420Y-13680960D01*
X5897420Y-13680960D02*
X5878372Y-13690484D01*
X5878372Y-13690484D02*
X5830753Y-13690484D01*
X5830753Y-13690484D02*
X5811706Y-13680960D01*
X5811706Y-13680960D02*
X5802182Y-13671436D01*
X5983134Y-13490484D02*
X6116467Y-13490484D01*
X6116467Y-13490484D02*
X6030753Y-13690484D01*
X6183134Y-13490484D02*
X6183134Y-13528579D01*
X6259325Y-13490484D02*
X6259325Y-13528579D01*
X6554563Y-13766674D02*
X6545039Y-13757150D01*
X6545039Y-13757150D02*
X6525991Y-13728579D01*
X6525991Y-13728579D02*
X6516468Y-13709531D01*
X6516468Y-13709531D02*
X6506944Y-13680960D01*
X6506944Y-13680960D02*
X6497420Y-13633341D01*
X6497420Y-13633341D02*
X6497420Y-13595246D01*
X6497420Y-13595246D02*
X6506944Y-13547627D01*
X6506944Y-13547627D02*
X6516468Y-13519055D01*
X6516468Y-13519055D02*
X6525991Y-13500008D01*
X6525991Y-13500008D02*
X6545039Y-13471436D01*
X6545039Y-13471436D02*
X6554563Y-13461912D01*
X6621229Y-13509531D02*
X6630753Y-13500008D01*
X6630753Y-13500008D02*
X6649801Y-13490484D01*
X6649801Y-13490484D02*
X6697420Y-13490484D01*
X6697420Y-13490484D02*
X6716468Y-13500008D01*
X6716468Y-13500008D02*
X6725991Y-13509531D01*
X6725991Y-13509531D02*
X6735515Y-13528579D01*
X6735515Y-13528579D02*
X6735515Y-13547627D01*
X6735515Y-13547627D02*
X6725991Y-13576198D01*
X6725991Y-13576198D02*
X6611706Y-13690484D01*
X6611706Y-13690484D02*
X6735515Y-13690484D01*
X6849801Y-13576198D02*
X6830753Y-13566674D01*
X6830753Y-13566674D02*
X6821229Y-13557150D01*
X6821229Y-13557150D02*
X6811706Y-13538103D01*
X6811706Y-13538103D02*
X6811706Y-13528579D01*
X6811706Y-13528579D02*
X6821229Y-13509531D01*
X6821229Y-13509531D02*
X6830753Y-13500008D01*
X6830753Y-13500008D02*
X6849801Y-13490484D01*
X6849801Y-13490484D02*
X6887896Y-13490484D01*
X6887896Y-13490484D02*
X6906944Y-13500008D01*
X6906944Y-13500008D02*
X6916468Y-13509531D01*
X6916468Y-13509531D02*
X6925991Y-13528579D01*
X6925991Y-13528579D02*
X6925991Y-13538103D01*
X6925991Y-13538103D02*
X6916468Y-13557150D01*
X6916468Y-13557150D02*
X6906944Y-13566674D01*
X6906944Y-13566674D02*
X6887896Y-13576198D01*
X6887896Y-13576198D02*
X6849801Y-13576198D01*
X6849801Y-13576198D02*
X6830753Y-13585722D01*
X6830753Y-13585722D02*
X6821229Y-13595246D01*
X6821229Y-13595246D02*
X6811706Y-13614293D01*
X6811706Y-13614293D02*
X6811706Y-13652388D01*
X6811706Y-13652388D02*
X6821229Y-13671436D01*
X6821229Y-13671436D02*
X6830753Y-13680960D01*
X6830753Y-13680960D02*
X6849801Y-13690484D01*
X6849801Y-13690484D02*
X6887896Y-13690484D01*
X6887896Y-13690484D02*
X6906944Y-13680960D01*
X6906944Y-13680960D02*
X6916468Y-13671436D01*
X6916468Y-13671436D02*
X6925991Y-13652388D01*
X6925991Y-13652388D02*
X6925991Y-13614293D01*
X6925991Y-13614293D02*
X6916468Y-13595246D01*
X6916468Y-13595246D02*
X6906944Y-13585722D01*
X6906944Y-13585722D02*
X6887896Y-13576198D01*
X7164087Y-13690484D02*
X7164087Y-13490484D01*
X7249801Y-13690484D02*
X7249801Y-13585722D01*
X7249801Y-13585722D02*
X7240277Y-13566674D01*
X7240277Y-13566674D02*
X7221230Y-13557150D01*
X7221230Y-13557150D02*
X7192658Y-13557150D01*
X7192658Y-13557150D02*
X7173610Y-13566674D01*
X7173610Y-13566674D02*
X7164087Y-13576198D01*
X7373610Y-13690484D02*
X7354563Y-13680960D01*
X7354563Y-13680960D02*
X7345039Y-13671436D01*
X7345039Y-13671436D02*
X7335515Y-13652388D01*
X7335515Y-13652388D02*
X7335515Y-13595246D01*
X7335515Y-13595246D02*
X7345039Y-13576198D01*
X7345039Y-13576198D02*
X7354563Y-13566674D01*
X7354563Y-13566674D02*
X7373610Y-13557150D01*
X7373610Y-13557150D02*
X7402182Y-13557150D01*
X7402182Y-13557150D02*
X7421230Y-13566674D01*
X7421230Y-13566674D02*
X7430753Y-13576198D01*
X7430753Y-13576198D02*
X7440277Y-13595246D01*
X7440277Y-13595246D02*
X7440277Y-13652388D01*
X7440277Y-13652388D02*
X7430753Y-13671436D01*
X7430753Y-13671436D02*
X7421230Y-13680960D01*
X7421230Y-13680960D02*
X7402182Y-13690484D01*
X7402182Y-13690484D02*
X7373610Y-13690484D01*
X7554563Y-13690484D02*
X7535515Y-13680960D01*
X7535515Y-13680960D02*
X7525991Y-13661912D01*
X7525991Y-13661912D02*
X7525991Y-13490484D01*
X7706944Y-13680960D02*
X7687896Y-13690484D01*
X7687896Y-13690484D02*
X7649801Y-13690484D01*
X7649801Y-13690484D02*
X7630753Y-13680960D01*
X7630753Y-13680960D02*
X7621230Y-13661912D01*
X7621230Y-13661912D02*
X7621230Y-13585722D01*
X7621230Y-13585722D02*
X7630753Y-13566674D01*
X7630753Y-13566674D02*
X7649801Y-13557150D01*
X7649801Y-13557150D02*
X7687896Y-13557150D01*
X7687896Y-13557150D02*
X7706944Y-13566674D01*
X7706944Y-13566674D02*
X7716468Y-13585722D01*
X7716468Y-13585722D02*
X7716468Y-13604769D01*
X7716468Y-13604769D02*
X7621230Y-13623817D01*
X7792658Y-13680960D02*
X7811706Y-13690484D01*
X7811706Y-13690484D02*
X7849801Y-13690484D01*
X7849801Y-13690484D02*
X7868849Y-13680960D01*
X7868849Y-13680960D02*
X7878372Y-13661912D01*
X7878372Y-13661912D02*
X7878372Y-13652388D01*
X7878372Y-13652388D02*
X7868849Y-13633341D01*
X7868849Y-13633341D02*
X7849801Y-13623817D01*
X7849801Y-13623817D02*
X7821230Y-13623817D01*
X7821230Y-13623817D02*
X7802182Y-13614293D01*
X7802182Y-13614293D02*
X7792658Y-13595246D01*
X7792658Y-13595246D02*
X7792658Y-13585722D01*
X7792658Y-13585722D02*
X7802182Y-13566674D01*
X7802182Y-13566674D02*
X7821230Y-13557150D01*
X7821230Y-13557150D02*
X7849801Y-13557150D01*
X7849801Y-13557150D02*
X7868849Y-13566674D01*
X7945039Y-13766674D02*
X7954563Y-13757150D01*
X7954563Y-13757150D02*
X7973611Y-13728579D01*
X7973611Y-13728579D02*
X7983134Y-13709531D01*
X7983134Y-13709531D02*
X7992658Y-13680960D01*
X7992658Y-13680960D02*
X8002182Y-13633341D01*
X8002182Y-13633341D02*
X8002182Y-13595246D01*
X8002182Y-13595246D02*
X7992658Y-13547627D01*
X7992658Y-13547627D02*
X7983134Y-13519055D01*
X7983134Y-13519055D02*
X7973611Y-13500008D01*
X7973611Y-13500008D02*
X7954563Y-13471436D01*
X7954563Y-13471436D02*
X7945039Y-13461912D01*
M02*
