%TF.GenerationSoftware,KiCad,Pcbnew,7.0.10*%
%TF.CreationDate,2024-03-14T12:03:47+01:00*%
%TF.ProjectId,FMC_breakout,464d435f-6272-4656-916b-6f75742e6b69,1.2*%
%TF.SameCoordinates,Original*%
%TF.FileFunction,Copper,L2,Bot*%
%TF.FilePolarity,Positive*%
%FSLAX46Y46*%
G04 Gerber Fmt 4.6, Leading zero omitted, Abs format (unit mm)*
G04 Created by KiCad (PCBNEW 7.0.10) date 2024-03-14 12:03:47*
%MOMM*%
%LPD*%
G01*
G04 APERTURE LIST*
%TA.AperFunction,SMDPad,CuDef*%
%ADD10C,0.640000*%
%TD*%
%TA.AperFunction,ViaPad*%
%ADD11C,0.800000*%
%TD*%
G04 APERTURE END LIST*
D10*
%TO.P,J0,A1,Pin_1*%
%TO.N,GND*%
X76805000Y-67310000D03*
%TO.P,J0,A2,Pin_2*%
%TO.N,unconnected-(J0A-Pin_2-PadA2)*%
X76805000Y-68580000D03*
%TO.P,J0,A3,Pin_3*%
%TO.N,unconnected-(J0A-Pin_3-PadA3)*%
X76805000Y-69850000D03*
%TO.P,J0,A4,Pin_4*%
%TO.N,unconnected-(J0A-Pin_4-PadA4)*%
X76805000Y-71120000D03*
%TO.P,J0,A5,Pin_5*%
%TO.N,unconnected-(J0A-Pin_5-PadA5)*%
X76805000Y-72390000D03*
%TO.P,J0,A6,Pin_6*%
%TO.N,unconnected-(J0A-Pin_6-PadA6)*%
X76805000Y-73660000D03*
%TO.P,J0,A7,Pin_7*%
%TO.N,unconnected-(J0A-Pin_7-PadA7)*%
X76805000Y-74930000D03*
%TO.P,J0,A8,Pin_8*%
%TO.N,unconnected-(J0A-Pin_8-PadA8)*%
X76805000Y-76200000D03*
%TO.P,J0,A9,Pin_9*%
%TO.N,unconnected-(J0A-Pin_9-PadA9)*%
X76805000Y-77470000D03*
%TO.P,J0,A10,Pin_10*%
%TO.N,unconnected-(J0A-Pin_10-PadA10)*%
X76805000Y-78740000D03*
%TO.P,J0,A11,Pin_11*%
%TO.N,unconnected-(J0A-Pin_11-PadA11)*%
X76805000Y-80010000D03*
%TO.P,J0,A12,Pin_12*%
%TO.N,unconnected-(J0A-Pin_12-PadA12)*%
X76805000Y-81280000D03*
%TO.P,J0,A13,Pin_13*%
%TO.N,unconnected-(J0A-Pin_13-PadA13)*%
X76805000Y-82550000D03*
%TO.P,J0,A14,Pin_14*%
%TO.N,unconnected-(J0A-Pin_14-PadA14)*%
X76805000Y-83820000D03*
%TO.P,J0,A15,Pin_15*%
%TO.N,unconnected-(J0A-Pin_15-PadA15)*%
X76805000Y-85090000D03*
%TO.P,J0,A16,Pin_16*%
%TO.N,unconnected-(J0A-Pin_16-PadA16)*%
X76805000Y-86360000D03*
%TO.P,J0,A17,Pin_17*%
%TO.N,unconnected-(J0A-Pin_17-PadA17)*%
X76805000Y-87630000D03*
%TO.P,J0,A18,Pin_18*%
%TO.N,unconnected-(J0A-Pin_18-PadA18)*%
X76805000Y-88900000D03*
%TO.P,J0,A19,Pin_19*%
%TO.N,unconnected-(J0A-Pin_19-PadA19)*%
X76805000Y-90170000D03*
%TO.P,J0,A20,Pin_20*%
%TO.N,unconnected-(J0A-Pin_20-PadA20)*%
X76805000Y-91435000D03*
%TO.P,J0,A21,Pin_21*%
%TO.N,unconnected-(J0A-Pin_21-PadA21)*%
X76805000Y-92715000D03*
%TO.P,J0,A22,Pin_22*%
%TO.N,unconnected-(J0A-Pin_22-PadA22)*%
X76805000Y-93980000D03*
%TO.P,J0,A23,Pin_23*%
%TO.N,unconnected-(J0A-Pin_23-PadA23)*%
X76805000Y-95250000D03*
%TO.P,J0,A24,Pin_24*%
%TO.N,unconnected-(J0A-Pin_24-PadA24)*%
X76805000Y-96520000D03*
%TO.P,J0,A25,Pin_25*%
%TO.N,unconnected-(J0A-Pin_25-PadA25)*%
X76805000Y-97790000D03*
%TO.P,J0,A26,Pin_26*%
%TO.N,unconnected-(J0A-Pin_26-PadA26)*%
X76805000Y-99060000D03*
%TO.P,J0,A27,Pin_27*%
%TO.N,unconnected-(J0A-Pin_27-PadA27)*%
X76805000Y-100330000D03*
%TO.P,J0,A28,Pin_28*%
%TO.N,unconnected-(J0A-Pin_28-PadA28)*%
X76805000Y-101600000D03*
%TO.P,J0,A29,Pin_29*%
%TO.N,unconnected-(J0A-Pin_29-PadA29)*%
X76805000Y-102870000D03*
%TO.P,J0,A30,Pin_30*%
%TO.N,unconnected-(J0A-Pin_30-PadA30)*%
X76805000Y-104140000D03*
%TO.P,J0,A31,Pin_31*%
%TO.N,unconnected-(J0A-Pin_31-PadA31)*%
X76805000Y-105410000D03*
%TO.P,J0,A32,Pin_32*%
%TO.N,unconnected-(J0A-Pin_32-PadA32)*%
X76805000Y-106680000D03*
%TO.P,J0,A33,Pin_33*%
%TO.N,unconnected-(J0A-Pin_33-PadA33)*%
X76805000Y-107950000D03*
%TO.P,J0,A34,Pin_34*%
%TO.N,unconnected-(J0A-Pin_34-PadA34)*%
X76805000Y-109220000D03*
%TO.P,J0,A35,Pin_35*%
%TO.N,unconnected-(J0A-Pin_35-PadA35)*%
X76805000Y-110490000D03*
%TO.P,J0,A36,Pin_36*%
%TO.N,unconnected-(J0A-Pin_36-PadA36)*%
X76805000Y-111760000D03*
%TO.P,J0,A37,Pin_37*%
%TO.N,unconnected-(J0A-Pin_37-PadA37)*%
X76805000Y-113030000D03*
%TO.P,J0,A38,Pin_38*%
%TO.N,unconnected-(J0A-Pin_38-PadA38)*%
X76805000Y-114300000D03*
%TO.P,J0,A39,Pin_39*%
%TO.N,unconnected-(J0A-Pin_39-PadA39)*%
X76805000Y-115570000D03*
%TO.P,J0,A40,Pin_40*%
%TO.N,GND*%
X76805000Y-116840000D03*
%TO.P,J0,B1,Pin_1*%
%TO.N,unconnected-(J0B-Pin_1-PadB1)*%
X75535000Y-67310000D03*
%TO.P,J0,B2,Pin_2*%
%TO.N,unconnected-(J0B-Pin_2-PadB2)*%
X75535000Y-68580000D03*
%TO.P,J0,B3,Pin_3*%
%TO.N,unconnected-(J0B-Pin_3-PadB3)*%
X75535000Y-69850000D03*
%TO.P,J0,B4,Pin_4*%
%TO.N,unconnected-(J0B-Pin_4-PadB4)*%
X75535000Y-71120000D03*
%TO.P,J0,B5,Pin_5*%
%TO.N,unconnected-(J0B-Pin_5-PadB5)*%
X75535000Y-72390000D03*
%TO.P,J0,B6,Pin_6*%
%TO.N,unconnected-(J0B-Pin_6-PadB6)*%
X75535000Y-73660000D03*
%TO.P,J0,B7,Pin_7*%
%TO.N,unconnected-(J0B-Pin_7-PadB7)*%
X75535000Y-74930000D03*
%TO.P,J0,B8,Pin_8*%
%TO.N,unconnected-(J0B-Pin_8-PadB8)*%
X75535000Y-76200000D03*
%TO.P,J0,B9,Pin_9*%
%TO.N,unconnected-(J0B-Pin_9-PadB9)*%
X75535000Y-77470000D03*
%TO.P,J0,B10,Pin_10*%
%TO.N,unconnected-(J0B-Pin_10-PadB10)*%
X75535000Y-78740000D03*
%TO.P,J0,B11,Pin_11*%
%TO.N,unconnected-(J0B-Pin_11-PadB11)*%
X75535000Y-80010000D03*
%TO.P,J0,B12,Pin_12*%
%TO.N,unconnected-(J0B-Pin_12-PadB12)*%
X75535000Y-81280000D03*
%TO.P,J0,B13,Pin_13*%
%TO.N,unconnected-(J0B-Pin_13-PadB13)*%
X75535000Y-82550000D03*
%TO.P,J0,B14,Pin_14*%
%TO.N,unconnected-(J0B-Pin_14-PadB14)*%
X75535000Y-83820000D03*
%TO.P,J0,B15,Pin_15*%
%TO.N,unconnected-(J0B-Pin_15-PadB15)*%
X75535000Y-85090000D03*
%TO.P,J0,B16,Pin_16*%
%TO.N,unconnected-(J0B-Pin_16-PadB16)*%
X75535000Y-86360000D03*
%TO.P,J0,B17,Pin_17*%
%TO.N,unconnected-(J0B-Pin_17-PadB17)*%
X75535000Y-87630000D03*
%TO.P,J0,B18,Pin_18*%
%TO.N,unconnected-(J0B-Pin_18-PadB18)*%
X75535000Y-88900000D03*
%TO.P,J0,B19,Pin_19*%
%TO.N,unconnected-(J0B-Pin_19-PadB19)*%
X75535000Y-90170000D03*
%TO.P,J0,B20,Pin_20*%
%TO.N,unconnected-(J0B-Pin_20-PadB20)*%
X75535000Y-91435000D03*
%TO.P,J0,B21,Pin_21*%
%TO.N,unconnected-(J0B-Pin_21-PadB21)*%
X75535000Y-92715000D03*
%TO.P,J0,B22,Pin_22*%
%TO.N,unconnected-(J0B-Pin_22-PadB22)*%
X75535000Y-93980000D03*
%TO.P,J0,B23,Pin_23*%
%TO.N,unconnected-(J0B-Pin_23-PadB23)*%
X75535000Y-95250000D03*
%TO.P,J0,B24,Pin_24*%
%TO.N,unconnected-(J0B-Pin_24-PadB24)*%
X75535000Y-96520000D03*
%TO.P,J0,B25,Pin_25*%
%TO.N,unconnected-(J0B-Pin_25-PadB25)*%
X75535000Y-97790000D03*
%TO.P,J0,B26,Pin_26*%
%TO.N,unconnected-(J0B-Pin_26-PadB26)*%
X75535000Y-99060000D03*
%TO.P,J0,B27,Pin_27*%
%TO.N,unconnected-(J0B-Pin_27-PadB27)*%
X75535000Y-100330000D03*
%TO.P,J0,B28,Pin_28*%
%TO.N,unconnected-(J0B-Pin_28-PadB28)*%
X75535000Y-101600000D03*
%TO.P,J0,B29,Pin_29*%
%TO.N,unconnected-(J0B-Pin_29-PadB29)*%
X75535000Y-102870000D03*
%TO.P,J0,B30,Pin_30*%
%TO.N,unconnected-(J0B-Pin_30-PadB30)*%
X75535000Y-104140000D03*
%TO.P,J0,B31,Pin_31*%
%TO.N,unconnected-(J0B-Pin_31-PadB31)*%
X75535000Y-105410000D03*
%TO.P,J0,B32,Pin_32*%
%TO.N,unconnected-(J0B-Pin_32-PadB32)*%
X75535000Y-106680000D03*
%TO.P,J0,B33,Pin_33*%
%TO.N,unconnected-(J0B-Pin_33-PadB33)*%
X75535000Y-107950000D03*
%TO.P,J0,B34,Pin_34*%
%TO.N,unconnected-(J0B-Pin_34-PadB34)*%
X75535000Y-109220000D03*
%TO.P,J0,B35,Pin_35*%
%TO.N,unconnected-(J0B-Pin_35-PadB35)*%
X75535000Y-110490000D03*
%TO.P,J0,B36,Pin_36*%
%TO.N,unconnected-(J0B-Pin_36-PadB36)*%
X75535000Y-111760000D03*
%TO.P,J0,B37,Pin_37*%
%TO.N,unconnected-(J0B-Pin_37-PadB37)*%
X75535000Y-113030000D03*
%TO.P,J0,B38,Pin_38*%
%TO.N,unconnected-(J0B-Pin_38-PadB38)*%
X75535000Y-114300000D03*
%TO.P,J0,B39,Pin_39*%
%TO.N,unconnected-(J0B-Pin_39-PadB39)*%
X75535000Y-115570000D03*
%TO.P,J0,B40,Pin_40*%
%TO.N,unconnected-(J0B-Pin_40-PadB40)*%
X75535000Y-116840000D03*
%TO.P,J0,C1,Pin_1*%
%TO.N,unconnected-(J0C-Pin_1-PadC1)*%
X74265000Y-67310000D03*
%TO.P,J0,C2,Pin_2*%
%TO.N,unconnected-(J0C-Pin_2-PadC2)*%
X74265000Y-68580000D03*
%TO.P,J0,C3,Pin_3*%
%TO.N,unconnected-(J0C-Pin_3-PadC3)*%
X74265000Y-69850000D03*
%TO.P,J0,C4,Pin_4*%
%TO.N,unconnected-(J0C-Pin_4-PadC4)*%
X74265000Y-71120000D03*
%TO.P,J0,C5,Pin_5*%
%TO.N,unconnected-(J0C-Pin_5-PadC5)*%
X74265000Y-72390000D03*
%TO.P,J0,C6,Pin_6*%
%TO.N,unconnected-(J0C-Pin_6-PadC6)*%
X74265000Y-73660000D03*
%TO.P,J0,C7,Pin_7*%
%TO.N,unconnected-(J0C-Pin_7-PadC7)*%
X74265000Y-74930000D03*
%TO.P,J0,C8,Pin_8*%
%TO.N,unconnected-(J0C-Pin_8-PadC8)*%
X74265000Y-76200000D03*
%TO.P,J0,C9,Pin_9*%
%TO.N,unconnected-(J0C-Pin_9-PadC9)*%
X74265000Y-77470000D03*
%TO.P,J0,C10,Pin_10*%
%TO.N,Net-(J0C-Pin_10)*%
X74265000Y-78740000D03*
%TO.P,J0,C11,Pin_11*%
%TO.N,Net-(J0C-Pin_11)*%
X74265000Y-80010000D03*
%TO.P,J0,C12,Pin_12*%
%TO.N,unconnected-(J0C-Pin_12-PadC12)*%
X74265000Y-81280000D03*
%TO.P,J0,C13,Pin_13*%
%TO.N,unconnected-(J0C-Pin_13-PadC13)*%
X74265000Y-82550000D03*
%TO.P,J0,C14,Pin_14*%
%TO.N,unconnected-(J0C-Pin_14-PadC14)*%
X74265000Y-83820000D03*
%TO.P,J0,C15,Pin_15*%
%TO.N,unconnected-(J0C-Pin_15-PadC15)*%
X74265000Y-85090000D03*
%TO.P,J0,C16,Pin_16*%
%TO.N,unconnected-(J0C-Pin_16-PadC16)*%
X74265000Y-86360000D03*
%TO.P,J0,C17,Pin_17*%
%TO.N,unconnected-(J0C-Pin_17-PadC17)*%
X74265000Y-87630000D03*
%TO.P,J0,C18,Pin_18*%
%TO.N,unconnected-(J0C-Pin_18-PadC18)*%
X74265000Y-88900000D03*
%TO.P,J0,C19,Pin_19*%
%TO.N,unconnected-(J0C-Pin_19-PadC19)*%
X74265000Y-90170000D03*
%TO.P,J0,C20,Pin_20*%
%TO.N,unconnected-(J0C-Pin_20-PadC20)*%
X74265000Y-91435000D03*
%TO.P,J0,C21,Pin_21*%
%TO.N,unconnected-(J0C-Pin_21-PadC21)*%
X74265000Y-92715000D03*
%TO.P,J0,C22,Pin_22*%
%TO.N,Net-(J0C-Pin_22)*%
X74265000Y-93980000D03*
%TO.P,J0,C23,Pin_23*%
%TO.N,Net-(J0C-Pin_23)*%
X74265000Y-95250000D03*
%TO.P,J0,C24,Pin_24*%
%TO.N,unconnected-(J0C-Pin_24-PadC24)*%
X74265000Y-96520000D03*
%TO.P,J0,C25,Pin_25*%
%TO.N,unconnected-(J0C-Pin_25-PadC25)*%
X74265000Y-97790000D03*
%TO.P,J0,C26,Pin_26*%
%TO.N,unconnected-(J0C-Pin_26-PadC26)*%
X74265000Y-99060000D03*
%TO.P,J0,C27,Pin_27*%
%TO.N,unconnected-(J0C-Pin_27-PadC27)*%
X74265000Y-100330000D03*
%TO.P,J0,C28,Pin_28*%
%TO.N,unconnected-(J0C-Pin_28-PadC28)*%
X74265000Y-101600000D03*
%TO.P,J0,C29,Pin_29*%
%TO.N,unconnected-(J0C-Pin_29-PadC29)*%
X74265000Y-102870000D03*
%TO.P,J0,C30,Pin_30*%
%TO.N,unconnected-(J0C-Pin_30-PadC30)*%
X74265000Y-104140000D03*
%TO.P,J0,C31,Pin_31*%
%TO.N,unconnected-(J0C-Pin_31-PadC31)*%
X74265000Y-105410000D03*
%TO.P,J0,C32,Pin_32*%
%TO.N,unconnected-(J0C-Pin_32-PadC32)*%
X74265000Y-106680000D03*
%TO.P,J0,C33,Pin_33*%
%TO.N,GND*%
X74265000Y-107950000D03*
%TO.P,J0,C34,Pin_34*%
%TO.N,unconnected-(J0C-Pin_34-PadC34)*%
X74265000Y-109220000D03*
%TO.P,J0,C35,Pin_35*%
%TO.N,unconnected-(J0C-Pin_35-PadC35)*%
X74265000Y-110490000D03*
%TO.P,J0,C36,Pin_36*%
%TO.N,unconnected-(J0C-Pin_36-PadC36)*%
X74265000Y-111760000D03*
%TO.P,J0,C37,Pin_37*%
%TO.N,unconnected-(J0C-Pin_37-PadC37)*%
X74265000Y-113030000D03*
%TO.P,J0,C38,Pin_38*%
%TO.N,unconnected-(J0C-Pin_38-PadC38)*%
X74265000Y-114300000D03*
%TO.P,J0,C39,Pin_39*%
%TO.N,unconnected-(J0C-Pin_39-PadC39)*%
X74265000Y-115570000D03*
%TO.P,J0,C40,Pin_40*%
%TO.N,unconnected-(J0C-Pin_40-PadC40)*%
X74265000Y-116840000D03*
%TO.P,J0,D1,Pin_1*%
%TO.N,unconnected-(J0D-Pin_1-PadD1)*%
X72995000Y-67310000D03*
%TO.P,J0,D2,Pin_2*%
%TO.N,unconnected-(J0D-Pin_2-PadD2)*%
X72995000Y-68580000D03*
%TO.P,J0,D3,Pin_3*%
%TO.N,unconnected-(J0D-Pin_3-PadD3)*%
X72995000Y-69850000D03*
%TO.P,J0,D4,Pin_4*%
%TO.N,unconnected-(J0D-Pin_4-PadD4)*%
X72995000Y-71120000D03*
%TO.P,J0,D5,Pin_5*%
%TO.N,unconnected-(J0D-Pin_5-PadD5)*%
X72995000Y-72390000D03*
%TO.P,J0,D6,Pin_6*%
%TO.N,unconnected-(J0D-Pin_6-PadD6)*%
X72995000Y-73660000D03*
%TO.P,J0,D7,Pin_7*%
%TO.N,unconnected-(J0D-Pin_7-PadD7)*%
X72995000Y-74930000D03*
%TO.P,J0,D8,Pin_8*%
%TO.N,Net-(J0D-Pin_8)*%
X72995000Y-76200000D03*
%TO.P,J0,D9,Pin_9*%
%TO.N,Net-(J0D-Pin_9)*%
X72995000Y-77470000D03*
%TO.P,J0,D10,Pin_10*%
%TO.N,unconnected-(J0D-Pin_10-PadD10)*%
X72995000Y-78740000D03*
%TO.P,J0,D11,Pin_11*%
%TO.N,unconnected-(J0D-Pin_11-PadD11)*%
X72995000Y-80010000D03*
%TO.P,J0,D12,Pin_12*%
%TO.N,unconnected-(J0D-Pin_12-PadD12)*%
X72995000Y-81280000D03*
%TO.P,J0,D13,Pin_13*%
%TO.N,unconnected-(J0D-Pin_13-PadD13)*%
X72995000Y-82550000D03*
%TO.P,J0,D14,Pin_14*%
%TO.N,unconnected-(J0D-Pin_14-PadD14)*%
X72995000Y-83820000D03*
%TO.P,J0,D15,Pin_15*%
%TO.N,unconnected-(J0D-Pin_15-PadD15)*%
X72995000Y-85090000D03*
%TO.P,J0,D16,Pin_16*%
%TO.N,unconnected-(J0D-Pin_16-PadD16)*%
X72995000Y-86360000D03*
%TO.P,J0,D17,Pin_17*%
%TO.N,unconnected-(J0D-Pin_17-PadD17)*%
X72995000Y-87630000D03*
%TO.P,J0,D18,Pin_18*%
%TO.N,unconnected-(J0D-Pin_18-PadD18)*%
X72995000Y-88900000D03*
%TO.P,J0,D19,Pin_19*%
%TO.N,unconnected-(J0D-Pin_19-PadD19)*%
X72995000Y-90170000D03*
%TO.P,J0,D20,Pin_20*%
%TO.N,Net-(J0D-Pin_20)*%
X72995000Y-91435000D03*
%TO.P,J0,D21,Pin_21*%
%TO.N,Net-(J0D-Pin_21)*%
X72995000Y-92715000D03*
%TO.P,J0,D22,Pin_22*%
%TO.N,unconnected-(J0D-Pin_22-PadD22)*%
X72995000Y-93980000D03*
%TO.P,J0,D23,Pin_23*%
%TO.N,unconnected-(J0D-Pin_23-PadD23)*%
X72995000Y-95250000D03*
%TO.P,J0,D24,Pin_24*%
%TO.N,unconnected-(J0D-Pin_24-PadD24)*%
X72995000Y-96520000D03*
%TO.P,J0,D25,Pin_25*%
%TO.N,unconnected-(J0D-Pin_25-PadD25)*%
X72995000Y-97790000D03*
%TO.P,J0,D26,Pin_26*%
%TO.N,Net-(J0D-Pin_26)*%
X72995000Y-99060000D03*
%TO.P,J0,D27,Pin_27*%
%TO.N,Net-(J0D-Pin_27)*%
X72995000Y-100330000D03*
%TO.P,J0,D28,Pin_28*%
%TO.N,unconnected-(J0D-Pin_28-PadD28)*%
X72995000Y-101600000D03*
%TO.P,J0,D29,Pin_29*%
%TO.N,unconnected-(J0D-Pin_29-PadD29)*%
X72995000Y-102870000D03*
%TO.P,J0,D30,Pin_30*%
%TO.N,unconnected-(J0D-Pin_30-PadD30)*%
X72995000Y-104140000D03*
%TO.P,J0,D31,Pin_31*%
%TO.N,unconnected-(J0D-Pin_31-PadD31)*%
X72995000Y-105410000D03*
%TO.P,J0,D32,Pin_32*%
%TO.N,unconnected-(J0D-Pin_32-PadD32)*%
X72995000Y-106680000D03*
%TO.P,J0,D33,Pin_33*%
%TO.N,unconnected-(J0D-Pin_33-PadD33)*%
X72995000Y-107950000D03*
%TO.P,J0,D34,Pin_34*%
%TO.N,unconnected-(J0D-Pin_34-PadD34)*%
X72995000Y-109220000D03*
%TO.P,J0,D35,Pin_35*%
%TO.N,unconnected-(J0D-Pin_35-PadD35)*%
X72995000Y-110490000D03*
%TO.P,J0,D36,Pin_36*%
%TO.N,unconnected-(J0D-Pin_36-PadD36)*%
X72995000Y-111760000D03*
%TO.P,J0,D37,Pin_37*%
%TO.N,unconnected-(J0D-Pin_37-PadD37)*%
X72995000Y-113030000D03*
%TO.P,J0,D38,Pin_38*%
%TO.N,unconnected-(J0D-Pin_38-PadD38)*%
X72995000Y-114300000D03*
%TO.P,J0,D39,Pin_39*%
%TO.N,GND*%
X72995000Y-115570000D03*
%TO.P,J0,D40,Pin_40*%
%TO.N,unconnected-(J0D-Pin_40-PadD40)*%
X72995000Y-116840000D03*
%TO.P,J0,E1,Pin_1*%
%TO.N,unconnected-(J0E-Pin_1-PadE1)*%
X71730000Y-67310000D03*
%TO.P,J0,E2,Pin_2*%
%TO.N,unconnected-(J0E-Pin_2-PadE2)*%
X71730000Y-68580000D03*
%TO.P,J0,E3,Pin_3*%
%TO.N,unconnected-(J0E-Pin_3-PadE3)*%
X71730000Y-69850000D03*
%TO.P,J0,E4,Pin_4*%
%TO.N,unconnected-(J0E-Pin_4-PadE4)*%
X71730000Y-71120000D03*
%TO.P,J0,E5,Pin_5*%
%TO.N,unconnected-(J0E-Pin_5-PadE5)*%
X71730000Y-72390000D03*
%TO.P,J0,E6,Pin_6*%
%TO.N,unconnected-(J0E-Pin_6-PadE6)*%
X71730000Y-73660000D03*
%TO.P,J0,E7,Pin_7*%
%TO.N,unconnected-(J0E-Pin_7-PadE7)*%
X71730000Y-74930000D03*
%TO.P,J0,E8,Pin_8*%
%TO.N,unconnected-(J0E-Pin_8-PadE8)*%
X71730000Y-76200000D03*
%TO.P,J0,E9,Pin_9*%
%TO.N,unconnected-(J0E-Pin_9-PadE9)*%
X71730000Y-77470000D03*
%TO.P,J0,E10,Pin_10*%
%TO.N,unconnected-(J0E-Pin_10-PadE10)*%
X71730000Y-78740000D03*
%TO.P,J0,E11,Pin_11*%
%TO.N,unconnected-(J0E-Pin_11-PadE11)*%
X71730000Y-80010000D03*
%TO.P,J0,E12,Pin_12*%
%TO.N,unconnected-(J0E-Pin_12-PadE12)*%
X71730000Y-81280000D03*
%TO.P,J0,E13,Pin_13*%
%TO.N,unconnected-(J0E-Pin_13-PadE13)*%
X71730000Y-82550000D03*
%TO.P,J0,E14,Pin_14*%
%TO.N,unconnected-(J0E-Pin_14-PadE14)*%
X71730000Y-83820000D03*
%TO.P,J0,E15,Pin_15*%
%TO.N,unconnected-(J0E-Pin_15-PadE15)*%
X71730000Y-85090000D03*
%TO.P,J0,E16,Pin_16*%
%TO.N,unconnected-(J0E-Pin_16-PadE16)*%
X71730000Y-86360000D03*
%TO.P,J0,E17,Pin_17*%
%TO.N,unconnected-(J0E-Pin_17-PadE17)*%
X71730000Y-87630000D03*
%TO.P,J0,E18,Pin_18*%
%TO.N,unconnected-(J0E-Pin_18-PadE18)*%
X71730000Y-88900000D03*
%TO.P,J0,E19,Pin_19*%
%TO.N,unconnected-(J0E-Pin_19-PadE19)*%
X71730000Y-90170000D03*
%TO.P,J0,E20,Pin_20*%
%TO.N,unconnected-(J0E-Pin_20-PadE20)*%
X71730000Y-91435000D03*
%TO.P,J0,E21,Pin_21*%
%TO.N,unconnected-(J0E-Pin_21-PadE21)*%
X71730000Y-92715000D03*
%TO.P,J0,E22,Pin_22*%
%TO.N,unconnected-(J0E-Pin_22-PadE22)*%
X71730000Y-93980000D03*
%TO.P,J0,E23,Pin_23*%
%TO.N,unconnected-(J0E-Pin_23-PadE23)*%
X71730000Y-95250000D03*
%TO.P,J0,E24,Pin_24*%
%TO.N,unconnected-(J0E-Pin_24-PadE24)*%
X71730000Y-96520000D03*
%TO.P,J0,E25,Pin_25*%
%TO.N,unconnected-(J0E-Pin_25-PadE25)*%
X71730000Y-97790000D03*
%TO.P,J0,E26,Pin_26*%
%TO.N,unconnected-(J0E-Pin_26-PadE26)*%
X71730000Y-99060000D03*
%TO.P,J0,E27,Pin_27*%
%TO.N,unconnected-(J0E-Pin_27-PadE27)*%
X71730000Y-100330000D03*
%TO.P,J0,E28,Pin_28*%
%TO.N,unconnected-(J0E-Pin_28-PadE28)*%
X71730000Y-101600000D03*
%TO.P,J0,E29,Pin_29*%
%TO.N,unconnected-(J0E-Pin_29-PadE29)*%
X71730000Y-102870000D03*
%TO.P,J0,E30,Pin_30*%
%TO.N,unconnected-(J0E-Pin_30-PadE30)*%
X71730000Y-104140000D03*
%TO.P,J0,E31,Pin_31*%
%TO.N,unconnected-(J0E-Pin_31-PadE31)*%
X71730000Y-105410000D03*
%TO.P,J0,E32,Pin_32*%
%TO.N,unconnected-(J0E-Pin_32-PadE32)*%
X71730000Y-106680000D03*
%TO.P,J0,E33,Pin_33*%
%TO.N,unconnected-(J0E-Pin_33-PadE33)*%
X71730000Y-107950000D03*
%TO.P,J0,E34,Pin_34*%
%TO.N,unconnected-(J0E-Pin_34-PadE34)*%
X71730000Y-109220000D03*
%TO.P,J0,E35,Pin_35*%
%TO.N,unconnected-(J0E-Pin_35-PadE35)*%
X71730000Y-110490000D03*
%TO.P,J0,E36,Pin_36*%
%TO.N,unconnected-(J0E-Pin_36-PadE36)*%
X71730000Y-111760000D03*
%TO.P,J0,E37,Pin_37*%
%TO.N,unconnected-(J0E-Pin_37-PadE37)*%
X71730000Y-113030000D03*
%TO.P,J0,E38,Pin_38*%
%TO.N,unconnected-(J0E-Pin_38-PadE38)*%
X71730000Y-114300000D03*
%TO.P,J0,E39,Pin_39*%
%TO.N,unconnected-(J0E-Pin_39-PadE39)*%
X71730000Y-115570000D03*
%TO.P,J0,E40,Pin_40*%
%TO.N,unconnected-(J0E-Pin_40-PadE40)*%
X71730000Y-116840000D03*
%TO.P,J0,F1,Pin_1*%
%TO.N,unconnected-(J0F-Pin_1-PadF1)*%
X70450000Y-67310000D03*
%TO.P,J0,F2,Pin_2*%
%TO.N,unconnected-(J0F-Pin_2-PadF2)*%
X70450000Y-68580000D03*
%TO.P,J0,F3,Pin_3*%
%TO.N,unconnected-(J0F-Pin_3-PadF3)*%
X70450000Y-69850000D03*
%TO.P,J0,F4,Pin_4*%
%TO.N,unconnected-(J0F-Pin_4-PadF4)*%
X70450000Y-71120000D03*
%TO.P,J0,F5,Pin_5*%
%TO.N,unconnected-(J0F-Pin_5-PadF5)*%
X70450000Y-72390000D03*
%TO.P,J0,F6,Pin_6*%
%TO.N,unconnected-(J0F-Pin_6-PadF6)*%
X70450000Y-73660000D03*
%TO.P,J0,F7,Pin_7*%
%TO.N,unconnected-(J0F-Pin_7-PadF7)*%
X70450000Y-74930000D03*
%TO.P,J0,F8,Pin_8*%
%TO.N,unconnected-(J0F-Pin_8-PadF8)*%
X70450000Y-76200000D03*
%TO.P,J0,F9,Pin_9*%
%TO.N,unconnected-(J0F-Pin_9-PadF9)*%
X70450000Y-77470000D03*
%TO.P,J0,F10,Pin_10*%
%TO.N,unconnected-(J0F-Pin_10-PadF10)*%
X70450000Y-78740000D03*
%TO.P,J0,F11,Pin_11*%
%TO.N,unconnected-(J0F-Pin_11-PadF11)*%
X70450000Y-80010000D03*
%TO.P,J0,F12,Pin_12*%
%TO.N,unconnected-(J0F-Pin_12-PadF12)*%
X70450000Y-81280000D03*
%TO.P,J0,F13,Pin_13*%
%TO.N,unconnected-(J0F-Pin_13-PadF13)*%
X70450000Y-82550000D03*
%TO.P,J0,F14,Pin_14*%
%TO.N,unconnected-(J0F-Pin_14-PadF14)*%
X70450000Y-83820000D03*
%TO.P,J0,F15,Pin_15*%
%TO.N,unconnected-(J0F-Pin_15-PadF15)*%
X70450000Y-85090000D03*
%TO.P,J0,F16,Pin_16*%
%TO.N,unconnected-(J0F-Pin_16-PadF16)*%
X70450000Y-86360000D03*
%TO.P,J0,F17,Pin_17*%
%TO.N,unconnected-(J0F-Pin_17-PadF17)*%
X70450000Y-87630000D03*
%TO.P,J0,F18,Pin_18*%
%TO.N,unconnected-(J0F-Pin_18-PadF18)*%
X70450000Y-88900000D03*
%TO.P,J0,F19,Pin_19*%
%TO.N,unconnected-(J0F-Pin_19-PadF19)*%
X70450000Y-90170000D03*
%TO.P,J0,F20,Pin_20*%
%TO.N,unconnected-(J0F-Pin_20-PadF20)*%
X70450000Y-91435000D03*
%TO.P,J0,F21,Pin_21*%
%TO.N,unconnected-(J0F-Pin_21-PadF21)*%
X70450000Y-92715000D03*
%TO.P,J0,F22,Pin_22*%
%TO.N,unconnected-(J0F-Pin_22-PadF22)*%
X70450000Y-93980000D03*
%TO.P,J0,F23,Pin_23*%
%TO.N,unconnected-(J0F-Pin_23-PadF23)*%
X70450000Y-95250000D03*
%TO.P,J0,F24,Pin_24*%
%TO.N,unconnected-(J0F-Pin_24-PadF24)*%
X70450000Y-96520000D03*
%TO.P,J0,F25,Pin_25*%
%TO.N,unconnected-(J0F-Pin_25-PadF25)*%
X70450000Y-97790000D03*
%TO.P,J0,F26,Pin_26*%
%TO.N,unconnected-(J0F-Pin_26-PadF26)*%
X70450000Y-99060000D03*
%TO.P,J0,F27,Pin_27*%
%TO.N,unconnected-(J0F-Pin_27-PadF27)*%
X70450000Y-100330000D03*
%TO.P,J0,F28,Pin_28*%
%TO.N,unconnected-(J0F-Pin_28-PadF28)*%
X70450000Y-101600000D03*
%TO.P,J0,F29,Pin_29*%
%TO.N,unconnected-(J0F-Pin_29-PadF29)*%
X70450000Y-102870000D03*
%TO.P,J0,F30,Pin_30*%
%TO.N,unconnected-(J0F-Pin_30-PadF30)*%
X70450000Y-104140000D03*
%TO.P,J0,F31,Pin_31*%
%TO.N,unconnected-(J0F-Pin_31-PadF31)*%
X70450000Y-105410000D03*
%TO.P,J0,F32,Pin_32*%
%TO.N,unconnected-(J0F-Pin_32-PadF32)*%
X70450000Y-106680000D03*
%TO.P,J0,F33,Pin_33*%
%TO.N,unconnected-(J0F-Pin_33-PadF33)*%
X70450000Y-107950000D03*
%TO.P,J0,F34,Pin_34*%
%TO.N,unconnected-(J0F-Pin_34-PadF34)*%
X70450000Y-109220000D03*
%TO.P,J0,F35,Pin_35*%
%TO.N,unconnected-(J0F-Pin_35-PadF35)*%
X70450000Y-110490000D03*
%TO.P,J0,F36,Pin_36*%
%TO.N,unconnected-(J0F-Pin_36-PadF36)*%
X70450000Y-111760000D03*
%TO.P,J0,F37,Pin_37*%
%TO.N,unconnected-(J0F-Pin_37-PadF37)*%
X70450000Y-113030000D03*
%TO.P,J0,F38,Pin_38*%
%TO.N,unconnected-(J0F-Pin_38-PadF38)*%
X70450000Y-114300000D03*
%TO.P,J0,F39,Pin_39*%
%TO.N,unconnected-(J0F-Pin_39-PadF39)*%
X70450000Y-115570000D03*
%TO.P,J0,F40,Pin_40*%
%TO.N,unconnected-(J0F-Pin_40-PadF40)*%
X70450000Y-116840000D03*
%TO.P,J0,G1,Pin_1*%
%TO.N,unconnected-(J0G-Pin_1-PadG1)*%
X69185000Y-67310000D03*
%TO.P,J0,G2,Pin_2*%
%TO.N,unconnected-(J0G-Pin_2-PadG2)*%
X69185000Y-68580000D03*
%TO.P,J0,G3,Pin_3*%
%TO.N,unconnected-(J0G-Pin_3-PadG3)*%
X69185000Y-69850000D03*
%TO.P,J0,G4,Pin_4*%
%TO.N,unconnected-(J0G-Pin_4-PadG4)*%
X69185000Y-71120000D03*
%TO.P,J0,G5,Pin_5*%
%TO.N,unconnected-(J0G-Pin_5-PadG5)*%
X69185000Y-72390000D03*
%TO.P,J0,G6,Pin_6*%
%TO.N,Net-(J0G-Pin_6)*%
X69185000Y-73660000D03*
%TO.P,J0,G7,Pin_7*%
%TO.N,Net-(J0G-Pin_7)*%
X69185000Y-74930000D03*
%TO.P,J0,G8,Pin_8*%
%TO.N,unconnected-(J0G-Pin_8-PadG8)*%
X69185000Y-76200000D03*
%TO.P,J0,G9,Pin_9*%
%TO.N,unconnected-(J0G-Pin_9-PadG9)*%
X69185000Y-77470000D03*
%TO.P,J0,G10,Pin_10*%
%TO.N,unconnected-(J0G-Pin_10-PadG10)*%
X69185000Y-78740000D03*
%TO.P,J0,G11,Pin_11*%
%TO.N,unconnected-(J0G-Pin_11-PadG11)*%
X69185000Y-80010000D03*
%TO.P,J0,G12,Pin_12*%
%TO.N,unconnected-(J0G-Pin_12-PadG12)*%
X69185000Y-81280000D03*
%TO.P,J0,G13,Pin_13*%
%TO.N,unconnected-(J0G-Pin_13-PadG13)*%
X69185000Y-82550000D03*
%TO.P,J0,G14,Pin_14*%
%TO.N,unconnected-(J0G-Pin_14-PadG14)*%
X69185000Y-83820000D03*
%TO.P,J0,G15,Pin_15*%
%TO.N,unconnected-(J0G-Pin_15-PadG15)*%
X69185000Y-85090000D03*
%TO.P,J0,G16,Pin_16*%
%TO.N,unconnected-(J0G-Pin_16-PadG16)*%
X69185000Y-86360000D03*
%TO.P,J0,G17,Pin_17*%
%TO.N,unconnected-(J0G-Pin_17-PadG17)*%
X69185000Y-87630000D03*
%TO.P,J0,G18,Pin_18*%
%TO.N,unconnected-(J0G-Pin_18-PadG18)*%
X69185000Y-88900000D03*
%TO.P,J0,G19,Pin_19*%
%TO.N,unconnected-(J0G-Pin_19-PadG19)*%
X69185000Y-90170000D03*
%TO.P,J0,G20,Pin_20*%
%TO.N,unconnected-(J0G-Pin_20-PadG20)*%
X69185000Y-91435000D03*
%TO.P,J0,G21,Pin_21*%
%TO.N,unconnected-(J0G-Pin_21-PadG21)*%
X69185000Y-92715000D03*
%TO.P,J0,G22,Pin_22*%
%TO.N,unconnected-(J0G-Pin_22-PadG22)*%
X69185000Y-93980000D03*
%TO.P,J0,G23,Pin_23*%
%TO.N,unconnected-(J0G-Pin_23-PadG23)*%
X69185000Y-95250000D03*
%TO.P,J0,G24,Pin_24*%
%TO.N,unconnected-(J0G-Pin_24-PadG24)*%
X69185000Y-96520000D03*
%TO.P,J0,G25,Pin_25*%
%TO.N,unconnected-(J0G-Pin_25-PadG25)*%
X69185000Y-97790000D03*
%TO.P,J0,G26,Pin_26*%
%TO.N,unconnected-(J0G-Pin_26-PadG26)*%
X69185000Y-99060000D03*
%TO.P,J0,G27,Pin_27*%
%TO.N,unconnected-(J0G-Pin_27-PadG27)*%
X69185000Y-100330000D03*
%TO.P,J0,G28,Pin_28*%
%TO.N,unconnected-(J0G-Pin_28-PadG28)*%
X69185000Y-101600000D03*
%TO.P,J0,G29,Pin_29*%
%TO.N,unconnected-(J0G-Pin_29-PadG29)*%
X69185000Y-102870000D03*
%TO.P,J0,G30,Pin_30*%
%TO.N,unconnected-(J0G-Pin_30-PadG30)*%
X69185000Y-104140000D03*
%TO.P,J0,G31,Pin_31*%
%TO.N,unconnected-(J0G-Pin_31-PadG31)*%
X69185000Y-105410000D03*
%TO.P,J0,G32,Pin_32*%
%TO.N,unconnected-(J0G-Pin_32-PadG32)*%
X69185000Y-106680000D03*
%TO.P,J0,G33,Pin_33*%
%TO.N,unconnected-(J0G-Pin_33-PadG33)*%
X69185000Y-107950000D03*
%TO.P,J0,G34,Pin_34*%
%TO.N,unconnected-(J0G-Pin_34-PadG34)*%
X69185000Y-109220000D03*
%TO.P,J0,G35,Pin_35*%
%TO.N,unconnected-(J0G-Pin_35-PadG35)*%
X69185000Y-110490000D03*
%TO.P,J0,G36,Pin_36*%
%TO.N,unconnected-(J0G-Pin_36-PadG36)*%
X69185000Y-111760000D03*
%TO.P,J0,G37,Pin_37*%
%TO.N,unconnected-(J0G-Pin_37-PadG37)*%
X69185000Y-113030000D03*
%TO.P,J0,G38,Pin_38*%
%TO.N,unconnected-(J0G-Pin_38-PadG38)*%
X69185000Y-114300000D03*
%TO.P,J0,G39,Pin_39*%
%TO.N,unconnected-(J0G-Pin_39-PadG39)*%
X69185000Y-115570000D03*
%TO.P,J0,G40,Pin_40*%
%TO.N,GND*%
X69185000Y-116840000D03*
%TO.P,J0,H1,Pin_1*%
%TO.N,unconnected-(J0H-Pin_1-PadH1)*%
X67915000Y-67310000D03*
%TO.P,J0,H2,Pin_2*%
%TO.N,unconnected-(J0H-Pin_2-PadH2)*%
X67915000Y-68580000D03*
%TO.P,J0,H3,Pin_3*%
%TO.N,GND*%
X67915000Y-69850000D03*
%TO.P,J0,H4,Pin_4*%
%TO.N,unconnected-(J0H-Pin_4-PadH4)*%
X67915000Y-71120000D03*
%TO.P,J0,H5,Pin_5*%
%TO.N,unconnected-(J0H-Pin_5-PadH5)*%
X67915000Y-72390000D03*
%TO.P,J0,H6,Pin_6*%
%TO.N,unconnected-(J0H-Pin_6-PadH6)*%
X67915000Y-73660000D03*
%TO.P,J0,H7,Pin_7*%
%TO.N,unconnected-(J0H-Pin_7-PadH7)*%
X67915000Y-74930000D03*
%TO.P,J0,H8,Pin_8*%
%TO.N,unconnected-(J0H-Pin_8-PadH8)*%
X67915000Y-76200000D03*
%TO.P,J0,H9,Pin_9*%
%TO.N,unconnected-(J0H-Pin_9-PadH9)*%
X67915000Y-77470000D03*
%TO.P,J0,H10,Pin_10*%
%TO.N,Net-(J0H-Pin_10)*%
X67915000Y-78740000D03*
%TO.P,J0,H11,Pin_11*%
%TO.N,Net-(J0H-Pin_11)*%
X67915000Y-80010000D03*
%TO.P,J0,H12,Pin_12*%
%TO.N,unconnected-(J0H-Pin_12-PadH12)*%
X67915000Y-81280000D03*
%TO.P,J0,H13,Pin_13*%
%TO.N,unconnected-(J0H-Pin_13-PadH13)*%
X67915000Y-82550000D03*
%TO.P,J0,H14,Pin_14*%
%TO.N,unconnected-(J0H-Pin_14-PadH14)*%
X67915000Y-83820000D03*
%TO.P,J0,H15,Pin_15*%
%TO.N,unconnected-(J0H-Pin_15-PadH15)*%
X67915000Y-85090000D03*
%TO.P,J0,H16,Pin_16*%
%TO.N,unconnected-(J0H-Pin_16-PadH16)*%
X67915000Y-86360000D03*
%TO.P,J0,H17,Pin_17*%
%TO.N,unconnected-(J0H-Pin_17-PadH17)*%
X67915000Y-87630000D03*
%TO.P,J0,H18,Pin_18*%
%TO.N,unconnected-(J0H-Pin_18-PadH18)*%
X67915000Y-88900000D03*
%TO.P,J0,H19,Pin_19*%
%TO.N,Net-(J0H-Pin_19)*%
X67915000Y-90170000D03*
%TO.P,J0,H20,Pin_20*%
%TO.N,Net-(J0H-Pin_20)*%
X67915000Y-91435000D03*
%TO.P,J0,H21,Pin_21*%
%TO.N,unconnected-(J0H-Pin_21-PadH21)*%
X67915000Y-92715000D03*
%TO.P,J0,H22,Pin_22*%
%TO.N,unconnected-(J0H-Pin_22-PadH22)*%
X67915000Y-93980000D03*
%TO.P,J0,H23,Pin_23*%
%TO.N,unconnected-(J0H-Pin_23-PadH23)*%
X67915000Y-95250000D03*
%TO.P,J0,H24,Pin_24*%
%TO.N,unconnected-(J0H-Pin_24-PadH24)*%
X67915000Y-96520000D03*
%TO.P,J0,H25,Pin_25*%
%TO.N,unconnected-(J0H-Pin_25-PadH25)*%
X67915000Y-97790000D03*
%TO.P,J0,H26,Pin_26*%
%TO.N,unconnected-(J0H-Pin_26-PadH26)*%
X67915000Y-99060000D03*
%TO.P,J0,H27,Pin_27*%
%TO.N,unconnected-(J0H-Pin_27-PadH27)*%
X67915000Y-100330000D03*
%TO.P,J0,H28,Pin_28*%
%TO.N,Net-(J0H-Pin_28)*%
X67915000Y-101600000D03*
%TO.P,J0,H29,Pin_29*%
%TO.N,Net-(J0H-Pin_29)*%
X67915000Y-102870000D03*
%TO.P,J0,H30,Pin_30*%
%TO.N,unconnected-(J0H-Pin_30-PadH30)*%
X67915000Y-104140000D03*
%TO.P,J0,H31,Pin_31*%
%TO.N,unconnected-(J0H-Pin_31-PadH31)*%
X67915000Y-105410000D03*
%TO.P,J0,H32,Pin_32*%
%TO.N,unconnected-(J0H-Pin_32-PadH32)*%
X67915000Y-106680000D03*
%TO.P,J0,H33,Pin_33*%
%TO.N,unconnected-(J0H-Pin_33-PadH33)*%
X67915000Y-107950000D03*
%TO.P,J0,H34,Pin_34*%
%TO.N,unconnected-(J0H-Pin_34-PadH34)*%
X67915000Y-109220000D03*
%TO.P,J0,H35,Pin_35*%
%TO.N,unconnected-(J0H-Pin_35-PadH35)*%
X67915000Y-110490000D03*
%TO.P,J0,H36,Pin_36*%
%TO.N,unconnected-(J0H-Pin_36-PadH36)*%
X67915000Y-111760000D03*
%TO.P,J0,H37,Pin_37*%
%TO.N,Net-(J0H-Pin_37)*%
X67915000Y-113030000D03*
%TO.P,J0,H38,Pin_38*%
%TO.N,Net-(J0H-Pin_38)*%
X67915000Y-114300000D03*
%TO.P,J0,H39,Pin_39*%
%TO.N,unconnected-(J0H-Pin_39-PadH39)*%
X67915000Y-115570000D03*
%TO.P,J0,H40,Pin_40*%
%TO.N,unconnected-(J0H-Pin_40-PadH40)*%
X67915000Y-116840000D03*
%TO.P,J0,J1,Pin_1*%
%TO.N,unconnected-(J0I-Pin_1-PadJ1)*%
X66645000Y-67310000D03*
%TO.P,J0,J2,Pin_2*%
%TO.N,unconnected-(J0I-Pin_2-PadJ2)*%
X66645000Y-68580000D03*
%TO.P,J0,J3,Pin_3*%
%TO.N,unconnected-(J0I-Pin_3-PadJ3)*%
X66645000Y-69850000D03*
%TO.P,J0,J4,Pin_4*%
%TO.N,unconnected-(J0I-Pin_4-PadJ4)*%
X66645000Y-71120000D03*
%TO.P,J0,J5,Pin_5*%
%TO.N,unconnected-(J0I-Pin_5-PadJ5)*%
X66645000Y-72390000D03*
%TO.P,J0,J6,Pin_6*%
%TO.N,unconnected-(J0I-Pin_6-PadJ6)*%
X66645000Y-73660000D03*
%TO.P,J0,J7,Pin_7*%
%TO.N,unconnected-(J0I-Pin_7-PadJ7)*%
X66645000Y-74930000D03*
%TO.P,J0,J8,Pin_8*%
%TO.N,unconnected-(J0I-Pin_8-PadJ8)*%
X66645000Y-76200000D03*
%TO.P,J0,J9,Pin_9*%
%TO.N,unconnected-(J0I-Pin_9-PadJ9)*%
X66645000Y-77470000D03*
%TO.P,J0,J10,Pin_10*%
%TO.N,unconnected-(J0I-Pin_10-PadJ10)*%
X66645000Y-78740000D03*
%TO.P,J0,J11,Pin_11*%
%TO.N,unconnected-(J0I-Pin_11-PadJ11)*%
X66645000Y-80010000D03*
%TO.P,J0,J12,Pin_12*%
%TO.N,unconnected-(J0I-Pin_12-PadJ12)*%
X66645000Y-81280000D03*
%TO.P,J0,J13,Pin_13*%
%TO.N,unconnected-(J0I-Pin_13-PadJ13)*%
X66645000Y-82550000D03*
%TO.P,J0,J14,Pin_14*%
%TO.N,unconnected-(J0I-Pin_14-PadJ14)*%
X66645000Y-83820000D03*
%TO.P,J0,J15,Pin_15*%
%TO.N,unconnected-(J0I-Pin_15-PadJ15)*%
X66645000Y-85090000D03*
%TO.P,J0,J16,Pin_16*%
%TO.N,unconnected-(J0I-Pin_16-PadJ16)*%
X66645000Y-86360000D03*
%TO.P,J0,J17,Pin_17*%
%TO.N,unconnected-(J0I-Pin_17-PadJ17)*%
X66645000Y-87630000D03*
%TO.P,J0,J18,Pin_18*%
%TO.N,unconnected-(J0I-Pin_18-PadJ18)*%
X66645000Y-88900000D03*
%TO.P,J0,J19,Pin_19*%
%TO.N,unconnected-(J0I-Pin_19-PadJ19)*%
X66645000Y-90170000D03*
%TO.P,J0,J20,Pin_20*%
%TO.N,unconnected-(J0I-Pin_20-PadJ20)*%
X66645000Y-91435000D03*
%TO.P,J0,J21,Pin_21*%
%TO.N,unconnected-(J0I-Pin_21-PadJ21)*%
X66645000Y-92715000D03*
%TO.P,J0,J22,Pin_22*%
%TO.N,unconnected-(J0I-Pin_22-PadJ22)*%
X66645000Y-93980000D03*
%TO.P,J0,J23,Pin_23*%
%TO.N,unconnected-(J0I-Pin_23-PadJ23)*%
X66645000Y-95250000D03*
%TO.P,J0,J24,Pin_24*%
%TO.N,unconnected-(J0I-Pin_24-PadJ24)*%
X66645000Y-96520000D03*
%TO.P,J0,J25,Pin_25*%
%TO.N,unconnected-(J0I-Pin_25-PadJ25)*%
X66645000Y-97790000D03*
%TO.P,J0,J26,Pin_26*%
%TO.N,unconnected-(J0I-Pin_26-PadJ26)*%
X66645000Y-99060000D03*
%TO.P,J0,J27,Pin_27*%
%TO.N,unconnected-(J0I-Pin_27-PadJ27)*%
X66645000Y-100330000D03*
%TO.P,J0,J28,Pin_28*%
%TO.N,unconnected-(J0I-Pin_28-PadJ28)*%
X66645000Y-101600000D03*
%TO.P,J0,J29,Pin_29*%
%TO.N,unconnected-(J0I-Pin_29-PadJ29)*%
X66645000Y-102870000D03*
%TO.P,J0,J30,Pin_30*%
%TO.N,unconnected-(J0I-Pin_30-PadJ30)*%
X66645000Y-104140000D03*
%TO.P,J0,J31,Pin_31*%
%TO.N,unconnected-(J0I-Pin_31-PadJ31)*%
X66645000Y-105410000D03*
%TO.P,J0,J32,Pin_32*%
%TO.N,unconnected-(J0I-Pin_32-PadJ32)*%
X66645000Y-106680000D03*
%TO.P,J0,J33,Pin_33*%
%TO.N,unconnected-(J0I-Pin_33-PadJ33)*%
X66645000Y-107950000D03*
%TO.P,J0,J34,Pin_34*%
%TO.N,unconnected-(J0I-Pin_34-PadJ34)*%
X66645000Y-109220000D03*
%TO.P,J0,J35,Pin_35*%
%TO.N,unconnected-(J0I-Pin_35-PadJ35)*%
X66645000Y-110490000D03*
%TO.P,J0,J36,Pin_36*%
%TO.N,unconnected-(J0I-Pin_36-PadJ36)*%
X66645000Y-111760000D03*
%TO.P,J0,J37,Pin_37*%
%TO.N,unconnected-(J0I-Pin_37-PadJ37)*%
X66645000Y-113030000D03*
%TO.P,J0,J38,Pin_38*%
%TO.N,unconnected-(J0I-Pin_38-PadJ38)*%
X66645000Y-114300000D03*
%TO.P,J0,J39,Pin_39*%
%TO.N,unconnected-(J0I-Pin_39-PadJ39)*%
X66645000Y-115570000D03*
%TO.P,J0,J40,Pin_40*%
%TO.N,unconnected-(J0I-Pin_40-PadJ40)*%
X66645000Y-116840000D03*
%TO.P,J0,K1,Pin_1*%
%TO.N,unconnected-(J0J-Pin_1-PadK1)*%
X65375000Y-67310000D03*
%TO.P,J0,K2,Pin_2*%
%TO.N,GND*%
X65375000Y-68580000D03*
%TO.P,J0,K3,Pin_3*%
%TO.N,unconnected-(J0J-Pin_3-PadK3)*%
X65375000Y-69850000D03*
%TO.P,J0,K4,Pin_4*%
%TO.N,unconnected-(J0J-Pin_4-PadK4)*%
X65375000Y-71120000D03*
%TO.P,J0,K5,Pin_5*%
%TO.N,unconnected-(J0J-Pin_5-PadK5)*%
X65375000Y-72390000D03*
%TO.P,J0,K6,Pin_6*%
%TO.N,unconnected-(J0J-Pin_6-PadK6)*%
X65375000Y-73660000D03*
%TO.P,J0,K7,Pin_7*%
%TO.N,unconnected-(J0J-Pin_7-PadK7)*%
X65375000Y-74930000D03*
%TO.P,J0,K8,Pin_8*%
%TO.N,unconnected-(J0J-Pin_8-PadK8)*%
X65375000Y-76200000D03*
%TO.P,J0,K9,Pin_9*%
%TO.N,unconnected-(J0J-Pin_9-PadK9)*%
X65375000Y-77470000D03*
%TO.P,J0,K10,Pin_10*%
%TO.N,unconnected-(J0J-Pin_10-PadK10)*%
X65375000Y-78740000D03*
%TO.P,J0,K11,Pin_11*%
%TO.N,unconnected-(J0J-Pin_11-PadK11)*%
X65375000Y-80010000D03*
%TO.P,J0,K12,Pin_12*%
%TO.N,unconnected-(J0J-Pin_12-PadK12)*%
X65375000Y-81280000D03*
%TO.P,J0,K13,Pin_13*%
%TO.N,unconnected-(J0J-Pin_13-PadK13)*%
X65375000Y-82550000D03*
%TO.P,J0,K14,Pin_14*%
%TO.N,unconnected-(J0J-Pin_14-PadK14)*%
X65375000Y-83820000D03*
%TO.P,J0,K15,Pin_15*%
%TO.N,unconnected-(J0J-Pin_15-PadK15)*%
X65375000Y-85090000D03*
%TO.P,J0,K16,Pin_16*%
%TO.N,unconnected-(J0J-Pin_16-PadK16)*%
X65375000Y-86360000D03*
%TO.P,J0,K17,Pin_17*%
%TO.N,unconnected-(J0J-Pin_17-PadK17)*%
X65375000Y-87630000D03*
%TO.P,J0,K18,Pin_18*%
%TO.N,unconnected-(J0J-Pin_18-PadK18)*%
X65375000Y-88900000D03*
%TO.P,J0,K19,Pin_19*%
%TO.N,unconnected-(J0J-Pin_19-PadK19)*%
X65375000Y-90170000D03*
%TO.P,J0,K20,Pin_20*%
%TO.N,unconnected-(J0J-Pin_20-PadK20)*%
X65375000Y-91435000D03*
%TO.P,J0,K21,Pin_21*%
%TO.N,unconnected-(J0J-Pin_21-PadK21)*%
X65375000Y-92715000D03*
%TO.P,J0,K22,Pin_22*%
%TO.N,unconnected-(J0J-Pin_22-PadK22)*%
X65375000Y-93980000D03*
%TO.P,J0,K23,Pin_23*%
%TO.N,unconnected-(J0J-Pin_23-PadK23)*%
X65375000Y-95250000D03*
%TO.P,J0,K24,Pin_24*%
%TO.N,unconnected-(J0J-Pin_24-PadK24)*%
X65375000Y-96520000D03*
%TO.P,J0,K25,Pin_25*%
%TO.N,unconnected-(J0J-Pin_25-PadK25)*%
X65375000Y-97790000D03*
%TO.P,J0,K26,Pin_26*%
%TO.N,unconnected-(J0J-Pin_26-PadK26)*%
X65375000Y-99060000D03*
%TO.P,J0,K27,Pin_27*%
%TO.N,unconnected-(J0J-Pin_27-PadK27)*%
X65375000Y-100330000D03*
%TO.P,J0,K28,Pin_28*%
%TO.N,unconnected-(J0J-Pin_28-PadK28)*%
X65375000Y-101600000D03*
%TO.P,J0,K29,Pin_29*%
%TO.N,unconnected-(J0J-Pin_29-PadK29)*%
X65375000Y-102870000D03*
%TO.P,J0,K30,Pin_30*%
%TO.N,unconnected-(J0J-Pin_30-PadK30)*%
X65375000Y-104140000D03*
%TO.P,J0,K31,Pin_31*%
%TO.N,unconnected-(J0J-Pin_31-PadK31)*%
X65375000Y-105410000D03*
%TO.P,J0,K32,Pin_32*%
%TO.N,unconnected-(J0J-Pin_32-PadK32)*%
X65375000Y-106680000D03*
%TO.P,J0,K33,Pin_33*%
%TO.N,unconnected-(J0J-Pin_33-PadK33)*%
X65375000Y-107950000D03*
%TO.P,J0,K34,Pin_34*%
%TO.N,unconnected-(J0J-Pin_34-PadK34)*%
X65375000Y-109220000D03*
%TO.P,J0,K35,Pin_35*%
%TO.N,unconnected-(J0J-Pin_35-PadK35)*%
X65375000Y-110490000D03*
%TO.P,J0,K36,Pin_36*%
%TO.N,unconnected-(J0J-Pin_36-PadK36)*%
X65375000Y-111760000D03*
%TO.P,J0,K37,Pin_37*%
%TO.N,unconnected-(J0J-Pin_37-PadK37)*%
X65375000Y-113030000D03*
%TO.P,J0,K38,Pin_38*%
%TO.N,unconnected-(J0J-Pin_38-PadK38)*%
X65375000Y-114300000D03*
%TO.P,J0,K39,Pin_39*%
%TO.N,GND*%
X65375000Y-115570000D03*
%TO.P,J0,K40,Pin_40*%
%TO.N,unconnected-(J0J-Pin_40-PadK40)*%
X65375000Y-116840000D03*
%TD*%
D11*
%TO.N,GND*%
X74295000Y-107950000D03*
X76835000Y-116840000D03*
X73025000Y-115570000D03*
X69215000Y-116840000D03*
X65405000Y-115570000D03*
X76835000Y-67310000D03*
X67945000Y-69850000D03*
X65405000Y-68580000D03*
%TO.N,Net-(J0C-Pin_10)*%
X74295000Y-78740000D03*
%TO.N,Net-(J0C-Pin_11)*%
X74295000Y-80010000D03*
%TO.N,Net-(J0C-Pin_22)*%
X74295000Y-93980000D03*
%TO.N,Net-(J0C-Pin_23)*%
X74295000Y-95250000D03*
%TO.N,Net-(J0D-Pin_8)*%
X73025000Y-76200000D03*
%TO.N,Net-(J0D-Pin_9)*%
X73025000Y-77470000D03*
%TO.N,Net-(J0D-Pin_20)*%
X73025000Y-91440000D03*
%TO.N,Net-(J0D-Pin_21)*%
X73025000Y-92710000D03*
%TO.N,Net-(J0D-Pin_26)*%
X73025000Y-99060000D03*
%TO.N,Net-(J0D-Pin_27)*%
X73025000Y-100330000D03*
%TO.N,Net-(J0G-Pin_6)*%
X69215000Y-73660000D03*
%TO.N,Net-(J0G-Pin_7)*%
X69215000Y-74930000D03*
%TO.N,Net-(J0H-Pin_10)*%
X67945000Y-78740000D03*
%TO.N,Net-(J0H-Pin_11)*%
X67945000Y-80010000D03*
%TO.N,Net-(J0H-Pin_19)*%
X67945000Y-90170000D03*
%TO.N,Net-(J0H-Pin_20)*%
X67945000Y-91440000D03*
%TO.N,Net-(J0H-Pin_28)*%
X67945000Y-101600000D03*
%TO.N,Net-(J0H-Pin_29)*%
X67945000Y-102870000D03*
%TO.N,Net-(J0H-Pin_37)*%
X67945000Y-113030000D03*
%TO.N,Net-(J0H-Pin_38)*%
X67945000Y-114300000D03*
%TD*%
%TA.AperFunction,Conductor*%
%TO.N,GND*%
G36*
X114243039Y-56534685D02*
G01*
X114288794Y-56587489D01*
X114300000Y-56639000D01*
X114300000Y-128781000D01*
X114280315Y-128848039D01*
X114227511Y-128893794D01*
X114176000Y-128905000D01*
X30604000Y-128905000D01*
X30536961Y-128885315D01*
X30491206Y-128832511D01*
X30480000Y-128781000D01*
X30480000Y-117795000D01*
X50495000Y-117795000D01*
X50495000Y-119695000D01*
X52585000Y-119695000D01*
X52585000Y-119358069D01*
X67154500Y-119358069D01*
X67193199Y-119540141D01*
X67193201Y-119540147D01*
X67248742Y-119664891D01*
X67262147Y-119695000D01*
X67268910Y-119710188D01*
X67268909Y-119710188D01*
X67268910Y-119710189D01*
X67378320Y-119860779D01*
X67378321Y-119860780D01*
X67378322Y-119860781D01*
X67378324Y-119860784D01*
X67462469Y-119936547D01*
X67516649Y-119985331D01*
X67677851Y-120078401D01*
X67677853Y-120078401D01*
X67677856Y-120078403D01*
X67766365Y-120107161D01*
X67854880Y-120135921D01*
X67993589Y-120150500D01*
X67993594Y-120150500D01*
X68086406Y-120150500D01*
X68086411Y-120150500D01*
X68225120Y-120135921D01*
X68402149Y-120078401D01*
X68563351Y-119985331D01*
X68671709Y-119887764D01*
X68701675Y-119860784D01*
X68701675Y-119860782D01*
X68701680Y-119860779D01*
X68811090Y-119710189D01*
X68886800Y-119540142D01*
X68925500Y-119358070D01*
X68925500Y-119171930D01*
X68886800Y-118989858D01*
X68886798Y-118989852D01*
X68856386Y-118921547D01*
X68811090Y-118819811D01*
X68701680Y-118669221D01*
X68701677Y-118669218D01*
X68701675Y-118669215D01*
X68611536Y-118588055D01*
X68563351Y-118544669D01*
X68402149Y-118451599D01*
X68402143Y-118451596D01*
X68225124Y-118394080D01*
X68225122Y-118394079D01*
X68185488Y-118389913D01*
X68086411Y-118379500D01*
X67993589Y-118379500D01*
X67906895Y-118388611D01*
X67854877Y-118394079D01*
X67854875Y-118394080D01*
X67677856Y-118451596D01*
X67677850Y-118451599D01*
X67516650Y-118544668D01*
X67378324Y-118669215D01*
X67378322Y-118669218D01*
X67268909Y-118819811D01*
X67193201Y-118989852D01*
X67193199Y-118989858D01*
X67154500Y-119171930D01*
X67154500Y-119358069D01*
X52585000Y-119358069D01*
X52585000Y-117795000D01*
X98545000Y-117795000D01*
X98545000Y-119695000D01*
X100635000Y-119695000D01*
X100635000Y-117795000D01*
X98545000Y-117795000D01*
X52585000Y-117795000D01*
X50495000Y-117795000D01*
X30480000Y-117795000D01*
X30480000Y-116840003D01*
X64549308Y-116840003D01*
X64570009Y-117023733D01*
X64570009Y-117023736D01*
X64631075Y-117198250D01*
X64631076Y-117198254D01*
X64729448Y-117354811D01*
X64860189Y-117485552D01*
X64918374Y-117522111D01*
X65016745Y-117583923D01*
X65016749Y-117583924D01*
X65191265Y-117644990D01*
X65374996Y-117665692D01*
X65375000Y-117665692D01*
X65375004Y-117665692D01*
X65521987Y-117649130D01*
X65558734Y-117644990D01*
X65558736Y-117644990D01*
X65669815Y-117606121D01*
X65733254Y-117583923D01*
X65889811Y-117485552D01*
X65922319Y-117453044D01*
X65983642Y-117419559D01*
X66053334Y-117424543D01*
X66097681Y-117453044D01*
X66130189Y-117485552D01*
X66188374Y-117522111D01*
X66286745Y-117583923D01*
X66286749Y-117583924D01*
X66461265Y-117644990D01*
X66644996Y-117665692D01*
X66645000Y-117665692D01*
X66645004Y-117665692D01*
X66791987Y-117649130D01*
X66828734Y-117644990D01*
X66828736Y-117644990D01*
X66939815Y-117606121D01*
X67003254Y-117583923D01*
X67159811Y-117485552D01*
X67192319Y-117453044D01*
X67253642Y-117419559D01*
X67323334Y-117424543D01*
X67367681Y-117453044D01*
X67400189Y-117485552D01*
X67458374Y-117522111D01*
X67556745Y-117583923D01*
X67556749Y-117583924D01*
X67731265Y-117644990D01*
X67914996Y-117665692D01*
X67915000Y-117665692D01*
X67915004Y-117665692D01*
X68061987Y-117649130D01*
X68098734Y-117644990D01*
X68098736Y-117644990D01*
X68209815Y-117606121D01*
X68273254Y-117583923D01*
X68293554Y-117571168D01*
X68807384Y-117571168D01*
X68826965Y-117583471D01*
X69001370Y-117644498D01*
X69001383Y-117644501D01*
X69184996Y-117665189D01*
X69185004Y-117665189D01*
X69368616Y-117644501D01*
X69368629Y-117644498D01*
X69543033Y-117583470D01*
X69543039Y-117583468D01*
X69562614Y-117571168D01*
X69185001Y-117193553D01*
X69185000Y-117193553D01*
X68807384Y-117571167D01*
X68807384Y-117571168D01*
X68293554Y-117571168D01*
X68429811Y-117485552D01*
X68560552Y-117354811D01*
X68658923Y-117198254D01*
X68719990Y-117023734D01*
X68724310Y-116985391D01*
X68751373Y-116920983D01*
X68759848Y-116911596D01*
X69097318Y-116574127D01*
X69158641Y-116540642D01*
X69228333Y-116545626D01*
X69272680Y-116574127D01*
X69604515Y-116905961D01*
X69638000Y-116967284D01*
X69640054Y-116979757D01*
X69645008Y-117023728D01*
X69706077Y-117198255D01*
X69804448Y-117354811D01*
X69935189Y-117485552D01*
X69993374Y-117522111D01*
X70091745Y-117583923D01*
X70091749Y-117583924D01*
X70266265Y-117644990D01*
X70449996Y-117665692D01*
X70450000Y-117665692D01*
X70450004Y-117665692D01*
X70596987Y-117649130D01*
X70633734Y-117644990D01*
X70633736Y-117644990D01*
X70744815Y-117606121D01*
X70808254Y-117583923D01*
X70964811Y-117485552D01*
X71002319Y-117448044D01*
X71063642Y-117414559D01*
X71133334Y-117419543D01*
X71177681Y-117448044D01*
X71215189Y-117485552D01*
X71273374Y-117522111D01*
X71371745Y-117583923D01*
X71371749Y-117583924D01*
X71546265Y-117644990D01*
X71729996Y-117665692D01*
X71730000Y-117665692D01*
X71730004Y-117665692D01*
X71876987Y-117649130D01*
X71913734Y-117644990D01*
X71913736Y-117644990D01*
X72024815Y-117606121D01*
X72088254Y-117583923D01*
X72244811Y-117485552D01*
X72274819Y-117455544D01*
X72336142Y-117422059D01*
X72405834Y-117427043D01*
X72450181Y-117455544D01*
X72480189Y-117485552D01*
X72538374Y-117522111D01*
X72636745Y-117583923D01*
X72636749Y-117583924D01*
X72811265Y-117644990D01*
X72994996Y-117665692D01*
X72995000Y-117665692D01*
X72995004Y-117665692D01*
X73141987Y-117649130D01*
X73178734Y-117644990D01*
X73178736Y-117644990D01*
X73289815Y-117606121D01*
X73353254Y-117583923D01*
X73509811Y-117485552D01*
X73542319Y-117453044D01*
X73603642Y-117419559D01*
X73673334Y-117424543D01*
X73717681Y-117453044D01*
X73750189Y-117485552D01*
X73808374Y-117522111D01*
X73906745Y-117583923D01*
X73906749Y-117583924D01*
X74081265Y-117644990D01*
X74264996Y-117665692D01*
X74265000Y-117665692D01*
X74265004Y-117665692D01*
X74411987Y-117649130D01*
X74448734Y-117644990D01*
X74448736Y-117644990D01*
X74559815Y-117606121D01*
X74623254Y-117583923D01*
X74779811Y-117485552D01*
X74812319Y-117453044D01*
X74873642Y-117419559D01*
X74943334Y-117424543D01*
X74987681Y-117453044D01*
X75020189Y-117485552D01*
X75078374Y-117522111D01*
X75176745Y-117583923D01*
X75176749Y-117583924D01*
X75351265Y-117644990D01*
X75534996Y-117665692D01*
X75535000Y-117665692D01*
X75535004Y-117665692D01*
X75681987Y-117649130D01*
X75718734Y-117644990D01*
X75718736Y-117644990D01*
X75829815Y-117606121D01*
X75893254Y-117583923D01*
X75913554Y-117571168D01*
X76427384Y-117571168D01*
X76446965Y-117583471D01*
X76621370Y-117644498D01*
X76621383Y-117644501D01*
X76804996Y-117665189D01*
X76805004Y-117665189D01*
X76988616Y-117644501D01*
X76988629Y-117644498D01*
X77163033Y-117583470D01*
X77163039Y-117583468D01*
X77182614Y-117571168D01*
X76805001Y-117193553D01*
X76805000Y-117193553D01*
X76427384Y-117571167D01*
X76427384Y-117571168D01*
X75913554Y-117571168D01*
X76049811Y-117485552D01*
X76180552Y-117354811D01*
X76278923Y-117198254D01*
X76339990Y-117023734D01*
X76344310Y-116985391D01*
X76371373Y-116920983D01*
X76379848Y-116911595D01*
X76451444Y-116840000D01*
X77158553Y-116840000D01*
X77536168Y-117217614D01*
X77548468Y-117198039D01*
X77548470Y-117198033D01*
X77609498Y-117023629D01*
X77609501Y-117023616D01*
X77630189Y-116840003D01*
X77630189Y-116839996D01*
X77609501Y-116656383D01*
X77609498Y-116656370D01*
X77548471Y-116481965D01*
X77536167Y-116462384D01*
X77158553Y-116839999D01*
X77158553Y-116840000D01*
X76451444Y-116840000D01*
X76805001Y-116486446D01*
X76876595Y-116414850D01*
X76937917Y-116381363D01*
X76950369Y-116379312D01*
X76988734Y-116374990D01*
X77163254Y-116313923D01*
X77319811Y-116215552D01*
X77450552Y-116084811D01*
X77548923Y-115928254D01*
X77571121Y-115864815D01*
X77609990Y-115753736D01*
X77609990Y-115753733D01*
X77630692Y-115570003D01*
X77630692Y-115569996D01*
X77609990Y-115386266D01*
X77609990Y-115386263D01*
X77548924Y-115211749D01*
X77548923Y-115211745D01*
X77450551Y-115055188D01*
X77418044Y-115022681D01*
X77384559Y-114961358D01*
X77389543Y-114891666D01*
X77418044Y-114847319D01*
X77450552Y-114814811D01*
X77548923Y-114658254D01*
X77571121Y-114594815D01*
X77609990Y-114483736D01*
X77609990Y-114483733D01*
X77630692Y-114300003D01*
X77630692Y-114299996D01*
X77609990Y-114116266D01*
X77609990Y-114116263D01*
X77548924Y-113941749D01*
X77548923Y-113941745D01*
X77450551Y-113785188D01*
X77418044Y-113752681D01*
X77384559Y-113691358D01*
X77389543Y-113621666D01*
X77418044Y-113577319D01*
X77450552Y-113544811D01*
X77548923Y-113388254D01*
X77571121Y-113324815D01*
X77609990Y-113213736D01*
X77609990Y-113213733D01*
X77630692Y-113030003D01*
X77630692Y-113029996D01*
X77609990Y-112846266D01*
X77609990Y-112846263D01*
X77548924Y-112671749D01*
X77548923Y-112671745D01*
X77450551Y-112515188D01*
X77418044Y-112482681D01*
X77384559Y-112421358D01*
X77389543Y-112351666D01*
X77418044Y-112307319D01*
X77450552Y-112274811D01*
X77548923Y-112118254D01*
X77571121Y-112054815D01*
X77609990Y-111943736D01*
X77609990Y-111943733D01*
X77630692Y-111760003D01*
X77630692Y-111759996D01*
X77609990Y-111576266D01*
X77609990Y-111576263D01*
X77548924Y-111401749D01*
X77548923Y-111401745D01*
X77450551Y-111245188D01*
X77418044Y-111212681D01*
X77384559Y-111151358D01*
X77389543Y-111081666D01*
X77418044Y-111037319D01*
X77450552Y-111004811D01*
X77548923Y-110848254D01*
X77571121Y-110784815D01*
X77609990Y-110673736D01*
X77609990Y-110673733D01*
X77630692Y-110490003D01*
X77630692Y-110489996D01*
X77609990Y-110306266D01*
X77609990Y-110306263D01*
X77548924Y-110131749D01*
X77548923Y-110131745D01*
X77450551Y-109975188D01*
X77418044Y-109942681D01*
X77384559Y-109881358D01*
X77389543Y-109811666D01*
X77418044Y-109767319D01*
X77450552Y-109734811D01*
X77548923Y-109578254D01*
X77571121Y-109514815D01*
X77609990Y-109403736D01*
X77609990Y-109403733D01*
X77630692Y-109220003D01*
X77630692Y-109219996D01*
X77609990Y-109036266D01*
X77609990Y-109036263D01*
X77548924Y-108861749D01*
X77548923Y-108861745D01*
X77450551Y-108705188D01*
X77418044Y-108672681D01*
X77384559Y-108611358D01*
X77389543Y-108541666D01*
X77418044Y-108497319D01*
X77450552Y-108464811D01*
X77548923Y-108308254D01*
X77571121Y-108244815D01*
X77609990Y-108133736D01*
X77609990Y-108133733D01*
X77630692Y-107950003D01*
X77630692Y-107949996D01*
X77609990Y-107766266D01*
X77609990Y-107766263D01*
X77564058Y-107635000D01*
X90925000Y-107635000D01*
X90925000Y-109535000D01*
X93015000Y-109535000D01*
X93015000Y-107635000D01*
X90925000Y-107635000D01*
X77564058Y-107635000D01*
X77548924Y-107591749D01*
X77548923Y-107591745D01*
X77450551Y-107435188D01*
X77418044Y-107402681D01*
X77384559Y-107341358D01*
X77389543Y-107271666D01*
X77418044Y-107227319D01*
X77450552Y-107194811D01*
X77548923Y-107038254D01*
X77571121Y-106974815D01*
X77609990Y-106863736D01*
X77609990Y-106863733D01*
X77630692Y-106680003D01*
X77630692Y-106679996D01*
X77609990Y-106496266D01*
X77609990Y-106496263D01*
X77548924Y-106321749D01*
X77548923Y-106321745D01*
X77450551Y-106165188D01*
X77418044Y-106132681D01*
X77384559Y-106071358D01*
X77389543Y-106001666D01*
X77418044Y-105957319D01*
X77450552Y-105924811D01*
X77548923Y-105768254D01*
X77571121Y-105704815D01*
X77609990Y-105593736D01*
X77609990Y-105593733D01*
X77630692Y-105410003D01*
X77630692Y-105409996D01*
X77609990Y-105226266D01*
X77609990Y-105226263D01*
X77548924Y-105051749D01*
X77548923Y-105051745D01*
X77450551Y-104895188D01*
X77418044Y-104862681D01*
X77384559Y-104801358D01*
X77389543Y-104731666D01*
X77418044Y-104687319D01*
X77450552Y-104654811D01*
X77548923Y-104498254D01*
X77571121Y-104434815D01*
X77609990Y-104323736D01*
X77609990Y-104323733D01*
X77630692Y-104140003D01*
X77630692Y-104139996D01*
X77609990Y-103956266D01*
X77609990Y-103956263D01*
X77548924Y-103781749D01*
X77548923Y-103781745D01*
X77450551Y-103625188D01*
X77418044Y-103592681D01*
X77384559Y-103531358D01*
X77389543Y-103461666D01*
X77418044Y-103417319D01*
X77450552Y-103384811D01*
X77548923Y-103228254D01*
X77571121Y-103164815D01*
X77609990Y-103053736D01*
X77609990Y-103053733D01*
X77630692Y-102870003D01*
X77630692Y-102869996D01*
X77609990Y-102686266D01*
X77609990Y-102686263D01*
X77548924Y-102511749D01*
X77548923Y-102511745D01*
X77450551Y-102355188D01*
X77418044Y-102322681D01*
X77384559Y-102261358D01*
X77389543Y-102191666D01*
X77418044Y-102147319D01*
X77450552Y-102114811D01*
X77548923Y-101958254D01*
X77562308Y-101920000D01*
X102990000Y-101920000D01*
X102990000Y-103820000D01*
X105080000Y-103820000D01*
X105080000Y-101920000D01*
X102990000Y-101920000D01*
X77562308Y-101920000D01*
X77571121Y-101894815D01*
X77609990Y-101783736D01*
X77609990Y-101783733D01*
X77630692Y-101600003D01*
X77630692Y-101599996D01*
X77609990Y-101416266D01*
X77609990Y-101416263D01*
X77548924Y-101241749D01*
X77548923Y-101241745D01*
X77450551Y-101085188D01*
X77418044Y-101052681D01*
X77384559Y-100991358D01*
X77389543Y-100921666D01*
X77418044Y-100877319D01*
X77450552Y-100844811D01*
X77548923Y-100688254D01*
X77571121Y-100624815D01*
X77609990Y-100513736D01*
X77609990Y-100513733D01*
X77630692Y-100330003D01*
X77630692Y-100329996D01*
X77609990Y-100146266D01*
X77609990Y-100146263D01*
X77548924Y-99971749D01*
X77548923Y-99971745D01*
X77450551Y-99815188D01*
X77418044Y-99782681D01*
X77384559Y-99721358D01*
X77389543Y-99651666D01*
X77418044Y-99607319D01*
X77450552Y-99574811D01*
X77548923Y-99418254D01*
X77571121Y-99354815D01*
X77609990Y-99243736D01*
X77609990Y-99243733D01*
X77630692Y-99060003D01*
X77630692Y-99059996D01*
X77609990Y-98876266D01*
X77609990Y-98876263D01*
X77548924Y-98701749D01*
X77548923Y-98701745D01*
X77450551Y-98545188D01*
X77418044Y-98512681D01*
X77384559Y-98451358D01*
X77389543Y-98381666D01*
X77418044Y-98337319D01*
X77450552Y-98304811D01*
X77548923Y-98148254D01*
X77571121Y-98084815D01*
X77609990Y-97973736D01*
X77609990Y-97973733D01*
X77630692Y-97790003D01*
X77630692Y-97789996D01*
X77609990Y-97606266D01*
X77609990Y-97606263D01*
X77548924Y-97431749D01*
X77548923Y-97431745D01*
X77450551Y-97275188D01*
X77418044Y-97242681D01*
X77384559Y-97181358D01*
X77389543Y-97111666D01*
X77418044Y-97067319D01*
X77450552Y-97034811D01*
X77548923Y-96878254D01*
X77562308Y-96840000D01*
X108865000Y-96840000D01*
X108865000Y-98740000D01*
X110955000Y-98740000D01*
X110955000Y-96840000D01*
X108865000Y-96840000D01*
X77562308Y-96840000D01*
X77571121Y-96814815D01*
X77609990Y-96703736D01*
X77609990Y-96703733D01*
X77630692Y-96520003D01*
X77630692Y-96519996D01*
X77609990Y-96336266D01*
X77609990Y-96336263D01*
X77548924Y-96161749D01*
X77548923Y-96161745D01*
X77450551Y-96005188D01*
X77418044Y-95972681D01*
X77384559Y-95911358D01*
X77389543Y-95841666D01*
X77418044Y-95797319D01*
X77450552Y-95764811D01*
X77548923Y-95608254D01*
X77571121Y-95544815D01*
X77609990Y-95433736D01*
X77609990Y-95433733D01*
X77630692Y-95250003D01*
X77630692Y-95249996D01*
X77609990Y-95066266D01*
X77609990Y-95066263D01*
X77548924Y-94891749D01*
X77548923Y-94891745D01*
X77450551Y-94735188D01*
X77418044Y-94702681D01*
X77384559Y-94641358D01*
X77389543Y-94571666D01*
X77418044Y-94527319D01*
X77450552Y-94494811D01*
X77548923Y-94338254D01*
X77571121Y-94274815D01*
X77609990Y-94163736D01*
X77609990Y-94163733D01*
X77630692Y-93980003D01*
X77630692Y-93979996D01*
X77609990Y-93796266D01*
X77609990Y-93796263D01*
X77548924Y-93621749D01*
X77548923Y-93621745D01*
X77450551Y-93465188D01*
X77420544Y-93435181D01*
X77387059Y-93373858D01*
X77392043Y-93304166D01*
X77420544Y-93259819D01*
X77450552Y-93229811D01*
X77548923Y-93073254D01*
X77571121Y-93009815D01*
X77609990Y-92898736D01*
X77609990Y-92898733D01*
X77630692Y-92715003D01*
X77630692Y-92714996D01*
X77609990Y-92531266D01*
X77609990Y-92531263D01*
X77548924Y-92356749D01*
X77548923Y-92356745D01*
X77450551Y-92200188D01*
X77413044Y-92162681D01*
X77379559Y-92101358D01*
X77384543Y-92031666D01*
X77413044Y-91987319D01*
X77450552Y-91949811D01*
X77548923Y-91793254D01*
X77560559Y-91760000D01*
X98070000Y-91760000D01*
X98070000Y-93660000D01*
X100160000Y-93660000D01*
X100160000Y-91760000D01*
X98070000Y-91760000D01*
X77560559Y-91760000D01*
X77571121Y-91729815D01*
X77609990Y-91618736D01*
X77609990Y-91618733D01*
X77630692Y-91435003D01*
X77630692Y-91434996D01*
X77609990Y-91251266D01*
X77609990Y-91251263D01*
X77548924Y-91076749D01*
X77548923Y-91076745D01*
X77450551Y-90920188D01*
X77420544Y-90890181D01*
X77387059Y-90828858D01*
X77392043Y-90759166D01*
X77420544Y-90714819D01*
X77450552Y-90684811D01*
X77548923Y-90528254D01*
X77571121Y-90464815D01*
X77609990Y-90353736D01*
X77609990Y-90353733D01*
X77630692Y-90170003D01*
X77630692Y-90169996D01*
X77609990Y-89986266D01*
X77609990Y-89986263D01*
X77548924Y-89811749D01*
X77548923Y-89811745D01*
X77450551Y-89655188D01*
X77418044Y-89622681D01*
X77384559Y-89561358D01*
X77389543Y-89491666D01*
X77418044Y-89447319D01*
X77450552Y-89414811D01*
X77548923Y-89258254D01*
X77571121Y-89194815D01*
X77609990Y-89083736D01*
X77609990Y-89083733D01*
X77630692Y-88900003D01*
X77630692Y-88899996D01*
X77609990Y-88716266D01*
X77609990Y-88716263D01*
X77548924Y-88541749D01*
X77548923Y-88541745D01*
X77450551Y-88385188D01*
X77418044Y-88352681D01*
X77384559Y-88291358D01*
X77389543Y-88221666D01*
X77418044Y-88177319D01*
X77450552Y-88144811D01*
X77548923Y-87988254D01*
X77571121Y-87924815D01*
X77609990Y-87813736D01*
X77609990Y-87813733D01*
X77617735Y-87745000D01*
X90450000Y-87745000D01*
X90450000Y-89645000D01*
X92540000Y-89645000D01*
X92540000Y-87745000D01*
X90450000Y-87745000D01*
X77617735Y-87745000D01*
X77630692Y-87630003D01*
X77630692Y-87629996D01*
X77609990Y-87446266D01*
X77609990Y-87446263D01*
X77548924Y-87271749D01*
X77548923Y-87271745D01*
X77450551Y-87115188D01*
X77418044Y-87082681D01*
X77384559Y-87021358D01*
X77389543Y-86951666D01*
X77418044Y-86907319D01*
X77450552Y-86874811D01*
X77548923Y-86718254D01*
X77571121Y-86654815D01*
X77609990Y-86543736D01*
X77609990Y-86543733D01*
X77630692Y-86360003D01*
X77630692Y-86359996D01*
X77609990Y-86176266D01*
X77609990Y-86176263D01*
X77548924Y-86001749D01*
X77548923Y-86001745D01*
X77450551Y-85845188D01*
X77418044Y-85812681D01*
X77384559Y-85751358D01*
X77389543Y-85681666D01*
X77418044Y-85637319D01*
X77450552Y-85604811D01*
X77548923Y-85448254D01*
X77571121Y-85384815D01*
X77609990Y-85273736D01*
X77609990Y-85273733D01*
X77630692Y-85090003D01*
X77630692Y-85089996D01*
X77609990Y-84906266D01*
X77609990Y-84906263D01*
X77548924Y-84731749D01*
X77548923Y-84731745D01*
X77450551Y-84575188D01*
X77418044Y-84542681D01*
X77384559Y-84481358D01*
X77389543Y-84411666D01*
X77418044Y-84367319D01*
X77450552Y-84334811D01*
X77548923Y-84178254D01*
X77562308Y-84140000D01*
X102990000Y-84140000D01*
X102990000Y-86040000D01*
X105080000Y-86040000D01*
X105080000Y-84140000D01*
X102990000Y-84140000D01*
X77562308Y-84140000D01*
X77571121Y-84114815D01*
X77609990Y-84003736D01*
X77609990Y-84003733D01*
X77630692Y-83820003D01*
X77630692Y-83819996D01*
X77609990Y-83636266D01*
X77609990Y-83636263D01*
X77548924Y-83461749D01*
X77548923Y-83461745D01*
X77450551Y-83305188D01*
X77418044Y-83272681D01*
X77384559Y-83211358D01*
X77389543Y-83141666D01*
X77418044Y-83097319D01*
X77450552Y-83064811D01*
X77548923Y-82908254D01*
X77571121Y-82844815D01*
X77609990Y-82733736D01*
X77609990Y-82733733D01*
X77630692Y-82550003D01*
X77630692Y-82549996D01*
X77609990Y-82366266D01*
X77609990Y-82366263D01*
X77548924Y-82191749D01*
X77548923Y-82191745D01*
X77450551Y-82035188D01*
X77418044Y-82002681D01*
X77384559Y-81941358D01*
X77389543Y-81871666D01*
X77418044Y-81827319D01*
X77450552Y-81794811D01*
X77548923Y-81638254D01*
X77571121Y-81574815D01*
X77609990Y-81463736D01*
X77609990Y-81463733D01*
X77630692Y-81280003D01*
X77630692Y-81279996D01*
X77609990Y-81096266D01*
X77609990Y-81096263D01*
X77548924Y-80921749D01*
X77548923Y-80921745D01*
X77450551Y-80765188D01*
X77418044Y-80732681D01*
X77384559Y-80671358D01*
X77389543Y-80601666D01*
X77418044Y-80557319D01*
X77450552Y-80524811D01*
X77548923Y-80368254D01*
X77571121Y-80304815D01*
X77609990Y-80193736D01*
X77609990Y-80193733D01*
X77630692Y-80010003D01*
X77630692Y-80009996D01*
X77609990Y-79826266D01*
X77609990Y-79826263D01*
X77548924Y-79651749D01*
X77548923Y-79651745D01*
X77450551Y-79495188D01*
X77418044Y-79462681D01*
X77384559Y-79401358D01*
X77389543Y-79331666D01*
X77418044Y-79287319D01*
X77450552Y-79254811D01*
X77548923Y-79098254D01*
X77571121Y-79034815D01*
X77609990Y-78923736D01*
X77609990Y-78923733D01*
X77630692Y-78740003D01*
X77630692Y-78739996D01*
X77609990Y-78556266D01*
X77609990Y-78556263D01*
X77548924Y-78381749D01*
X77548923Y-78381745D01*
X77450551Y-78225188D01*
X77418044Y-78192681D01*
X77384559Y-78131358D01*
X77389543Y-78061666D01*
X77418044Y-78017319D01*
X77450552Y-77984811D01*
X77548923Y-77828254D01*
X77562308Y-77790000D01*
X108705000Y-77790000D01*
X108705000Y-79690000D01*
X110795000Y-79690000D01*
X110795000Y-77790000D01*
X108705000Y-77790000D01*
X77562308Y-77790000D01*
X77571121Y-77764815D01*
X77609990Y-77653736D01*
X77609990Y-77653733D01*
X77630692Y-77470003D01*
X77630692Y-77469996D01*
X77609990Y-77286266D01*
X77609990Y-77286263D01*
X77548924Y-77111749D01*
X77548923Y-77111745D01*
X77450551Y-76955188D01*
X77418044Y-76922681D01*
X77384559Y-76861358D01*
X77389543Y-76791666D01*
X77418044Y-76747319D01*
X77450552Y-76714811D01*
X77548923Y-76558254D01*
X77571121Y-76494815D01*
X77609990Y-76383736D01*
X77609990Y-76383733D01*
X77630692Y-76200003D01*
X77630692Y-76199996D01*
X77609990Y-76016266D01*
X77609990Y-76016263D01*
X77548924Y-75841749D01*
X77548923Y-75841745D01*
X77450551Y-75685188D01*
X77418044Y-75652681D01*
X77384559Y-75591358D01*
X77389543Y-75521666D01*
X77418044Y-75477319D01*
X77450552Y-75444811D01*
X77548923Y-75288254D01*
X77571121Y-75224815D01*
X77609990Y-75113736D01*
X77609990Y-75113733D01*
X77630692Y-74930003D01*
X77630692Y-74929996D01*
X77609990Y-74746266D01*
X77609990Y-74746263D01*
X77548924Y-74571749D01*
X77548923Y-74571745D01*
X77450551Y-74415188D01*
X77418044Y-74382681D01*
X77384559Y-74321358D01*
X77389543Y-74251666D01*
X77418044Y-74207319D01*
X77450552Y-74174811D01*
X77548923Y-74018254D01*
X77571121Y-73954815D01*
X77609990Y-73843736D01*
X77609990Y-73843733D01*
X77630692Y-73660003D01*
X77630692Y-73659996D01*
X77609990Y-73476266D01*
X77609990Y-73476263D01*
X77564058Y-73345000D01*
X90290000Y-73345000D01*
X90290000Y-75245000D01*
X92380000Y-75245000D01*
X92380000Y-73345000D01*
X90290000Y-73345000D01*
X77564058Y-73345000D01*
X77548924Y-73301749D01*
X77548923Y-73301745D01*
X77450551Y-73145188D01*
X77418044Y-73112681D01*
X77384559Y-73051358D01*
X77389543Y-72981666D01*
X77418044Y-72937319D01*
X77450552Y-72904811D01*
X77548923Y-72748254D01*
X77571121Y-72684815D01*
X77609990Y-72573736D01*
X77609990Y-72573733D01*
X77630692Y-72390003D01*
X77630692Y-72389996D01*
X77609990Y-72206266D01*
X77609990Y-72206263D01*
X77548924Y-72031749D01*
X77548923Y-72031745D01*
X77450551Y-71875188D01*
X77418044Y-71842681D01*
X77384559Y-71781358D01*
X77389543Y-71711666D01*
X77418044Y-71667319D01*
X77450552Y-71634811D01*
X77548923Y-71478254D01*
X77571121Y-71414815D01*
X77609990Y-71303736D01*
X77609990Y-71303733D01*
X77630692Y-71120003D01*
X77630692Y-71119996D01*
X77609990Y-70936266D01*
X77609990Y-70936263D01*
X77548924Y-70761749D01*
X77548923Y-70761745D01*
X77450551Y-70605188D01*
X77418044Y-70572681D01*
X77384559Y-70511358D01*
X77389543Y-70441666D01*
X77418044Y-70397319D01*
X77450552Y-70364811D01*
X77548923Y-70208254D01*
X77571121Y-70144815D01*
X77609990Y-70033736D01*
X77609990Y-70033733D01*
X77630692Y-69850003D01*
X77630692Y-69849996D01*
X77609990Y-69666266D01*
X77609990Y-69666263D01*
X77548924Y-69491749D01*
X77548923Y-69491745D01*
X77450551Y-69335188D01*
X77418044Y-69302681D01*
X77384559Y-69241358D01*
X77389543Y-69171666D01*
X77418044Y-69127319D01*
X77450552Y-69094811D01*
X77548923Y-68938254D01*
X77571121Y-68874815D01*
X77609990Y-68763736D01*
X77609990Y-68763733D01*
X77630692Y-68580003D01*
X77630692Y-68579996D01*
X77609990Y-68396266D01*
X77609990Y-68396263D01*
X77548924Y-68221749D01*
X77548923Y-68221745D01*
X77450551Y-68065188D01*
X77319811Y-67934448D01*
X77163254Y-67836076D01*
X77163250Y-67836075D01*
X76988735Y-67775009D01*
X76950393Y-67770689D01*
X76885980Y-67743622D01*
X76876597Y-67735150D01*
X76805000Y-67663553D01*
X76451446Y-67310000D01*
X77158553Y-67310000D01*
X77536168Y-67687614D01*
X77548468Y-67668039D01*
X77548470Y-67668033D01*
X77609498Y-67493629D01*
X77609501Y-67493616D01*
X77630189Y-67310003D01*
X77630189Y-67309996D01*
X77609501Y-67126383D01*
X77609498Y-67126370D01*
X77548471Y-66951965D01*
X77536167Y-66932384D01*
X77158553Y-67309999D01*
X77158553Y-67310000D01*
X76451446Y-67310000D01*
X76379848Y-67238402D01*
X76346363Y-67177079D01*
X76344312Y-67164626D01*
X76339990Y-67126266D01*
X76278923Y-66951746D01*
X76180552Y-66795189D01*
X76049811Y-66664448D01*
X75913553Y-66578831D01*
X76427384Y-66578831D01*
X76805000Y-66956446D01*
X76805001Y-66956446D01*
X77182613Y-66578831D01*
X77182613Y-66578830D01*
X77163035Y-66566529D01*
X76988629Y-66505501D01*
X76988616Y-66505498D01*
X76805004Y-66484811D01*
X76804996Y-66484811D01*
X76621383Y-66505498D01*
X76621370Y-66505501D01*
X76446966Y-66566528D01*
X76446966Y-66566529D01*
X76427384Y-66578831D01*
X75913553Y-66578831D01*
X75893254Y-66566076D01*
X75893250Y-66566075D01*
X75718734Y-66505009D01*
X75535004Y-66484308D01*
X75534996Y-66484308D01*
X75351266Y-66505009D01*
X75351263Y-66505009D01*
X75176749Y-66566075D01*
X75176745Y-66566076D01*
X75020188Y-66664448D01*
X74987681Y-66696956D01*
X74926358Y-66730441D01*
X74856666Y-66725457D01*
X74812319Y-66696956D01*
X74779811Y-66664448D01*
X74623254Y-66566076D01*
X74623250Y-66566075D01*
X74448734Y-66505009D01*
X74265004Y-66484308D01*
X74264996Y-66484308D01*
X74081266Y-66505009D01*
X74081263Y-66505009D01*
X73906749Y-66566075D01*
X73906745Y-66566076D01*
X73750188Y-66664448D01*
X73717681Y-66696956D01*
X73656358Y-66730441D01*
X73586666Y-66725457D01*
X73542319Y-66696956D01*
X73509811Y-66664448D01*
X73353254Y-66566076D01*
X73353250Y-66566075D01*
X73178734Y-66505009D01*
X72995004Y-66484308D01*
X72994996Y-66484308D01*
X72811266Y-66505009D01*
X72811263Y-66505009D01*
X72636749Y-66566075D01*
X72636745Y-66566076D01*
X72480188Y-66664448D01*
X72450181Y-66694456D01*
X72388858Y-66727941D01*
X72319166Y-66722957D01*
X72274819Y-66694456D01*
X72244811Y-66664448D01*
X72088254Y-66566076D01*
X72088250Y-66566075D01*
X71913734Y-66505009D01*
X71730004Y-66484308D01*
X71729996Y-66484308D01*
X71546266Y-66505009D01*
X71546263Y-66505009D01*
X71371749Y-66566075D01*
X71371745Y-66566076D01*
X71215188Y-66664448D01*
X71177681Y-66701956D01*
X71116358Y-66735441D01*
X71046666Y-66730457D01*
X71002319Y-66701956D01*
X70964811Y-66664448D01*
X70808254Y-66566076D01*
X70808250Y-66566075D01*
X70633734Y-66505009D01*
X70450004Y-66484308D01*
X70449996Y-66484308D01*
X70266266Y-66505009D01*
X70266263Y-66505009D01*
X70091749Y-66566075D01*
X70091745Y-66566076D01*
X69935188Y-66664448D01*
X69905181Y-66694456D01*
X69843858Y-66727941D01*
X69774166Y-66722957D01*
X69729819Y-66694456D01*
X69699811Y-66664448D01*
X69543254Y-66566076D01*
X69543250Y-66566075D01*
X69368734Y-66505009D01*
X69185004Y-66484308D01*
X69184996Y-66484308D01*
X69001266Y-66505009D01*
X69001263Y-66505009D01*
X68826749Y-66566075D01*
X68826745Y-66566076D01*
X68670188Y-66664448D01*
X68637681Y-66696956D01*
X68576358Y-66730441D01*
X68506666Y-66725457D01*
X68462319Y-66696956D01*
X68429811Y-66664448D01*
X68273254Y-66566076D01*
X68273250Y-66566075D01*
X68098734Y-66505009D01*
X67915004Y-66484308D01*
X67914996Y-66484308D01*
X67731266Y-66505009D01*
X67731263Y-66505009D01*
X67556749Y-66566075D01*
X67556745Y-66566076D01*
X67400188Y-66664448D01*
X67367681Y-66696956D01*
X67306358Y-66730441D01*
X67236666Y-66725457D01*
X67192319Y-66696956D01*
X67159811Y-66664448D01*
X67003254Y-66566076D01*
X67003250Y-66566075D01*
X66828734Y-66505009D01*
X66645004Y-66484308D01*
X66644996Y-66484308D01*
X66461266Y-66505009D01*
X66461263Y-66505009D01*
X66286749Y-66566075D01*
X66286745Y-66566076D01*
X66130188Y-66664448D01*
X66097681Y-66696956D01*
X66036358Y-66730441D01*
X65966666Y-66725457D01*
X65922319Y-66696956D01*
X65889811Y-66664448D01*
X65733254Y-66566076D01*
X65733250Y-66566075D01*
X65558734Y-66505009D01*
X65375004Y-66484308D01*
X65374996Y-66484308D01*
X65191266Y-66505009D01*
X65191263Y-66505009D01*
X65016749Y-66566075D01*
X65016745Y-66566076D01*
X64860188Y-66664448D01*
X64729448Y-66795188D01*
X64631076Y-66951745D01*
X64631075Y-66951749D01*
X64570009Y-67126263D01*
X64570009Y-67126266D01*
X64549308Y-67309996D01*
X64549308Y-67310003D01*
X64570009Y-67493733D01*
X64570009Y-67493736D01*
X64631075Y-67668250D01*
X64631076Y-67668254D01*
X64685148Y-67754308D01*
X64729448Y-67824811D01*
X64860189Y-67955552D01*
X65016746Y-68053923D01*
X65191266Y-68114990D01*
X65229604Y-68119309D01*
X65294015Y-68146373D01*
X65303401Y-68154848D01*
X65640872Y-68492319D01*
X65674357Y-68553642D01*
X65669373Y-68623334D01*
X65640872Y-68667681D01*
X65303402Y-69005150D01*
X65242079Y-69038635D01*
X65229606Y-69040689D01*
X65191271Y-69045008D01*
X65016744Y-69106077D01*
X64860188Y-69204448D01*
X64729448Y-69335188D01*
X64631076Y-69491745D01*
X64631075Y-69491749D01*
X64570009Y-69666263D01*
X64570009Y-69666266D01*
X64549308Y-69849996D01*
X64549308Y-69850003D01*
X64570009Y-70033733D01*
X64570009Y-70033736D01*
X64631075Y-70208250D01*
X64631076Y-70208254D01*
X64729448Y-70364811D01*
X64761956Y-70397319D01*
X64795441Y-70458642D01*
X64790457Y-70528334D01*
X64761956Y-70572681D01*
X64729448Y-70605188D01*
X64631076Y-70761745D01*
X64631075Y-70761749D01*
X64570009Y-70936263D01*
X64570009Y-70936266D01*
X64549308Y-71119996D01*
X64549308Y-71120003D01*
X64570009Y-71303733D01*
X64570009Y-71303736D01*
X64631075Y-71478250D01*
X64631076Y-71478254D01*
X64729448Y-71634811D01*
X64761956Y-71667319D01*
X64795441Y-71728642D01*
X64790457Y-71798334D01*
X64761956Y-71842681D01*
X64729448Y-71875188D01*
X64631076Y-72031745D01*
X64631075Y-72031749D01*
X64570009Y-72206263D01*
X64570009Y-72206266D01*
X64549308Y-72389996D01*
X64549308Y-72390003D01*
X64570009Y-72573733D01*
X64570009Y-72573736D01*
X64631075Y-72748250D01*
X64631076Y-72748254D01*
X64729448Y-72904811D01*
X64761956Y-72937319D01*
X64795441Y-72998642D01*
X64790457Y-73068334D01*
X64761956Y-73112681D01*
X64729448Y-73145188D01*
X64631076Y-73301745D01*
X64631075Y-73301749D01*
X64570009Y-73476263D01*
X64570009Y-73476266D01*
X64549308Y-73659996D01*
X64549308Y-73660003D01*
X64570009Y-73843733D01*
X64570009Y-73843736D01*
X64631075Y-74018250D01*
X64631076Y-74018254D01*
X64729448Y-74174811D01*
X64761956Y-74207319D01*
X64795441Y-74268642D01*
X64790457Y-74338334D01*
X64761956Y-74382681D01*
X64729448Y-74415188D01*
X64631076Y-74571745D01*
X64631075Y-74571749D01*
X64570009Y-74746263D01*
X64570009Y-74746266D01*
X64549308Y-74929996D01*
X64549308Y-74930003D01*
X64570009Y-75113733D01*
X64570009Y-75113736D01*
X64631075Y-75288250D01*
X64631076Y-75288254D01*
X64729448Y-75444811D01*
X64761956Y-75477319D01*
X64795441Y-75538642D01*
X64790457Y-75608334D01*
X64761956Y-75652681D01*
X64729448Y-75685188D01*
X64631076Y-75841745D01*
X64631075Y-75841749D01*
X64570009Y-76016263D01*
X64570009Y-76016266D01*
X64549308Y-76199996D01*
X64549308Y-76200003D01*
X64570009Y-76383733D01*
X64570009Y-76383736D01*
X64631075Y-76558250D01*
X64631076Y-76558254D01*
X64729448Y-76714811D01*
X64761956Y-76747319D01*
X64795441Y-76808642D01*
X64790457Y-76878334D01*
X64761956Y-76922681D01*
X64729448Y-76955188D01*
X64631076Y-77111745D01*
X64631075Y-77111749D01*
X64570009Y-77286263D01*
X64570009Y-77286266D01*
X64549308Y-77469996D01*
X64549308Y-77470003D01*
X64570009Y-77653733D01*
X64570009Y-77653736D01*
X64631075Y-77828250D01*
X64631076Y-77828254D01*
X64729448Y-77984811D01*
X64761956Y-78017319D01*
X64795441Y-78078642D01*
X64790457Y-78148334D01*
X64761956Y-78192681D01*
X64729448Y-78225188D01*
X64631076Y-78381745D01*
X64631075Y-78381749D01*
X64570009Y-78556263D01*
X64570009Y-78556266D01*
X64549308Y-78739996D01*
X64549308Y-78740003D01*
X64570009Y-78923733D01*
X64570009Y-78923736D01*
X64631075Y-79098250D01*
X64631076Y-79098254D01*
X64729448Y-79254811D01*
X64761956Y-79287319D01*
X64795441Y-79348642D01*
X64790457Y-79418334D01*
X64761956Y-79462681D01*
X64729448Y-79495188D01*
X64631076Y-79651745D01*
X64631075Y-79651749D01*
X64570009Y-79826263D01*
X64570009Y-79826266D01*
X64549308Y-80009996D01*
X64549308Y-80010003D01*
X64570009Y-80193733D01*
X64570009Y-80193736D01*
X64631075Y-80368250D01*
X64631076Y-80368254D01*
X64729448Y-80524811D01*
X64761956Y-80557319D01*
X64795441Y-80618642D01*
X64790457Y-80688334D01*
X64761956Y-80732681D01*
X64729448Y-80765188D01*
X64631076Y-80921745D01*
X64631075Y-80921749D01*
X64570009Y-81096263D01*
X64570009Y-81096266D01*
X64549308Y-81279996D01*
X64549308Y-81280003D01*
X64570009Y-81463733D01*
X64570009Y-81463736D01*
X64631075Y-81638250D01*
X64631076Y-81638254D01*
X64729448Y-81794811D01*
X64761956Y-81827319D01*
X64795441Y-81888642D01*
X64790457Y-81958334D01*
X64761956Y-82002681D01*
X64729448Y-82035188D01*
X64631076Y-82191745D01*
X64631075Y-82191749D01*
X64570009Y-82366263D01*
X64570009Y-82366266D01*
X64549308Y-82549996D01*
X64549308Y-82550003D01*
X64570009Y-82733733D01*
X64570009Y-82733736D01*
X64631075Y-82908250D01*
X64631076Y-82908254D01*
X64729448Y-83064811D01*
X64761956Y-83097319D01*
X64795441Y-83158642D01*
X64790457Y-83228334D01*
X64761956Y-83272681D01*
X64729448Y-83305188D01*
X64631076Y-83461745D01*
X64631075Y-83461749D01*
X64570009Y-83636263D01*
X64570009Y-83636266D01*
X64549308Y-83819996D01*
X64549308Y-83820003D01*
X64570009Y-84003733D01*
X64570009Y-84003736D01*
X64631075Y-84178250D01*
X64631076Y-84178254D01*
X64729448Y-84334811D01*
X64761956Y-84367319D01*
X64795441Y-84428642D01*
X64790457Y-84498334D01*
X64761956Y-84542681D01*
X64729448Y-84575188D01*
X64631076Y-84731745D01*
X64631075Y-84731749D01*
X64570009Y-84906263D01*
X64570009Y-84906266D01*
X64549308Y-85089996D01*
X64549308Y-85090003D01*
X64570009Y-85273733D01*
X64570009Y-85273736D01*
X64631075Y-85448250D01*
X64631076Y-85448254D01*
X64729448Y-85604811D01*
X64761956Y-85637319D01*
X64795441Y-85698642D01*
X64790457Y-85768334D01*
X64761956Y-85812681D01*
X64729448Y-85845188D01*
X64631076Y-86001745D01*
X64631075Y-86001749D01*
X64570009Y-86176263D01*
X64570009Y-86176266D01*
X64549308Y-86359996D01*
X64549308Y-86360003D01*
X64570009Y-86543733D01*
X64570009Y-86543736D01*
X64631075Y-86718250D01*
X64631076Y-86718254D01*
X64729448Y-86874811D01*
X64761956Y-86907319D01*
X64795441Y-86968642D01*
X64790457Y-87038334D01*
X64761956Y-87082681D01*
X64729448Y-87115188D01*
X64631076Y-87271745D01*
X64631075Y-87271749D01*
X64570009Y-87446263D01*
X64570009Y-87446266D01*
X64549308Y-87629996D01*
X64549308Y-87630003D01*
X64570009Y-87813733D01*
X64570009Y-87813736D01*
X64631075Y-87988250D01*
X64631076Y-87988254D01*
X64729448Y-88144811D01*
X64761956Y-88177319D01*
X64795441Y-88238642D01*
X64790457Y-88308334D01*
X64761956Y-88352681D01*
X64729448Y-88385188D01*
X64631076Y-88541745D01*
X64631075Y-88541749D01*
X64570009Y-88716263D01*
X64570009Y-88716266D01*
X64549308Y-88899996D01*
X64549308Y-88900003D01*
X64570009Y-89083733D01*
X64570009Y-89083736D01*
X64631075Y-89258250D01*
X64631076Y-89258254D01*
X64729448Y-89414811D01*
X64761956Y-89447319D01*
X64795441Y-89508642D01*
X64790457Y-89578334D01*
X64761956Y-89622681D01*
X64729448Y-89655188D01*
X64631076Y-89811745D01*
X64631075Y-89811749D01*
X64570009Y-89986263D01*
X64570009Y-89986266D01*
X64549308Y-90169996D01*
X64549308Y-90170003D01*
X64570009Y-90353733D01*
X64570009Y-90353736D01*
X64631075Y-90528250D01*
X64631076Y-90528254D01*
X64729448Y-90684811D01*
X64759456Y-90714819D01*
X64792941Y-90776142D01*
X64787957Y-90845834D01*
X64759456Y-90890181D01*
X64729448Y-90920188D01*
X64631076Y-91076745D01*
X64631075Y-91076749D01*
X64570009Y-91251263D01*
X64570009Y-91251266D01*
X64549308Y-91434996D01*
X64549308Y-91435003D01*
X64570009Y-91618733D01*
X64570009Y-91618736D01*
X64631075Y-91793250D01*
X64631076Y-91793254D01*
X64729448Y-91949811D01*
X64766956Y-91987319D01*
X64800441Y-92048642D01*
X64795457Y-92118334D01*
X64766956Y-92162681D01*
X64729448Y-92200188D01*
X64631076Y-92356745D01*
X64631075Y-92356749D01*
X64570009Y-92531263D01*
X64570009Y-92531266D01*
X64549308Y-92714996D01*
X64549308Y-92715003D01*
X64570009Y-92898733D01*
X64570009Y-92898736D01*
X64631075Y-93073250D01*
X64631076Y-93073254D01*
X64729448Y-93229811D01*
X64759456Y-93259819D01*
X64792941Y-93321142D01*
X64787957Y-93390834D01*
X64759456Y-93435181D01*
X64729448Y-93465188D01*
X64631076Y-93621745D01*
X64631075Y-93621749D01*
X64570009Y-93796263D01*
X64570009Y-93796266D01*
X64549308Y-93979996D01*
X64549308Y-93980003D01*
X64570009Y-94163733D01*
X64570009Y-94163736D01*
X64631075Y-94338250D01*
X64631076Y-94338254D01*
X64729448Y-94494811D01*
X64761956Y-94527319D01*
X64795441Y-94588642D01*
X64790457Y-94658334D01*
X64761956Y-94702681D01*
X64729448Y-94735188D01*
X64631076Y-94891745D01*
X64631075Y-94891749D01*
X64570009Y-95066263D01*
X64570009Y-95066266D01*
X64549308Y-95249996D01*
X64549308Y-95250003D01*
X64570009Y-95433733D01*
X64570009Y-95433736D01*
X64631075Y-95608250D01*
X64631076Y-95608254D01*
X64729448Y-95764811D01*
X64761956Y-95797319D01*
X64795441Y-95858642D01*
X64790457Y-95928334D01*
X64761956Y-95972681D01*
X64729448Y-96005188D01*
X64631076Y-96161745D01*
X64631075Y-96161749D01*
X64570009Y-96336263D01*
X64570009Y-96336266D01*
X64549308Y-96519996D01*
X64549308Y-96520003D01*
X64570009Y-96703733D01*
X64570009Y-96703736D01*
X64631075Y-96878250D01*
X64631076Y-96878254D01*
X64729448Y-97034811D01*
X64761956Y-97067319D01*
X64795441Y-97128642D01*
X64790457Y-97198334D01*
X64761956Y-97242681D01*
X64729448Y-97275188D01*
X64631076Y-97431745D01*
X64631075Y-97431749D01*
X64570009Y-97606263D01*
X64570009Y-97606266D01*
X64549308Y-97789996D01*
X64549308Y-97790003D01*
X64570009Y-97973733D01*
X64570009Y-97973736D01*
X64631075Y-98148250D01*
X64631076Y-98148254D01*
X64729448Y-98304811D01*
X64761956Y-98337319D01*
X64795441Y-98398642D01*
X64790457Y-98468334D01*
X64761956Y-98512681D01*
X64729448Y-98545188D01*
X64631076Y-98701745D01*
X64631075Y-98701749D01*
X64570009Y-98876263D01*
X64570009Y-98876266D01*
X64549308Y-99059996D01*
X64549308Y-99060003D01*
X64570009Y-99243733D01*
X64570009Y-99243736D01*
X64631075Y-99418250D01*
X64631076Y-99418254D01*
X64729448Y-99574811D01*
X64761956Y-99607319D01*
X64795441Y-99668642D01*
X64790457Y-99738334D01*
X64761956Y-99782681D01*
X64729448Y-99815188D01*
X64631076Y-99971745D01*
X64631075Y-99971749D01*
X64570009Y-100146263D01*
X64570009Y-100146266D01*
X64549308Y-100329996D01*
X64549308Y-100330003D01*
X64570009Y-100513733D01*
X64570009Y-100513736D01*
X64631075Y-100688250D01*
X64631076Y-100688254D01*
X64729448Y-100844811D01*
X64761956Y-100877319D01*
X64795441Y-100938642D01*
X64790457Y-101008334D01*
X64761956Y-101052681D01*
X64729448Y-101085188D01*
X64631076Y-101241745D01*
X64631075Y-101241749D01*
X64570009Y-101416263D01*
X64570009Y-101416266D01*
X64549308Y-101599996D01*
X64549308Y-101600003D01*
X64570009Y-101783733D01*
X64570009Y-101783736D01*
X64631075Y-101958250D01*
X64631076Y-101958254D01*
X64729448Y-102114811D01*
X64761956Y-102147319D01*
X64795441Y-102208642D01*
X64790457Y-102278334D01*
X64761956Y-102322681D01*
X64729448Y-102355188D01*
X64631076Y-102511745D01*
X64631075Y-102511749D01*
X64570009Y-102686263D01*
X64570009Y-102686266D01*
X64549308Y-102869996D01*
X64549308Y-102870003D01*
X64570009Y-103053733D01*
X64570009Y-103053736D01*
X64631075Y-103228250D01*
X64631076Y-103228254D01*
X64729448Y-103384811D01*
X64761956Y-103417319D01*
X64795441Y-103478642D01*
X64790457Y-103548334D01*
X64761956Y-103592681D01*
X64729448Y-103625188D01*
X64631076Y-103781745D01*
X64631075Y-103781749D01*
X64570009Y-103956263D01*
X64570009Y-103956266D01*
X64549308Y-104139996D01*
X64549308Y-104140003D01*
X64570009Y-104323733D01*
X64570009Y-104323736D01*
X64631075Y-104498250D01*
X64631076Y-104498254D01*
X64729448Y-104654811D01*
X64761956Y-104687319D01*
X64795441Y-104748642D01*
X64790457Y-104818334D01*
X64761956Y-104862681D01*
X64729448Y-104895188D01*
X64631076Y-105051745D01*
X64631075Y-105051749D01*
X64570009Y-105226263D01*
X64570009Y-105226266D01*
X64549308Y-105409996D01*
X64549308Y-105410003D01*
X64570009Y-105593733D01*
X64570009Y-105593736D01*
X64631075Y-105768250D01*
X64631076Y-105768254D01*
X64729448Y-105924811D01*
X64761956Y-105957319D01*
X64795441Y-106018642D01*
X64790457Y-106088334D01*
X64761956Y-106132681D01*
X64729448Y-106165188D01*
X64631076Y-106321745D01*
X64631075Y-106321749D01*
X64570009Y-106496263D01*
X64570009Y-106496266D01*
X64549308Y-106679996D01*
X64549308Y-106680003D01*
X64570009Y-106863733D01*
X64570009Y-106863736D01*
X64631075Y-107038250D01*
X64631076Y-107038254D01*
X64729448Y-107194811D01*
X64761956Y-107227319D01*
X64795441Y-107288642D01*
X64790457Y-107358334D01*
X64761956Y-107402681D01*
X64729448Y-107435188D01*
X64631076Y-107591745D01*
X64631075Y-107591749D01*
X64570009Y-107766263D01*
X64570009Y-107766266D01*
X64549308Y-107949996D01*
X64549308Y-107950003D01*
X64570009Y-108133733D01*
X64570009Y-108133736D01*
X64631075Y-108308250D01*
X64631076Y-108308254D01*
X64729448Y-108464811D01*
X64761956Y-108497319D01*
X64795441Y-108558642D01*
X64790457Y-108628334D01*
X64761956Y-108672681D01*
X64729448Y-108705188D01*
X64631076Y-108861745D01*
X64631075Y-108861749D01*
X64570009Y-109036263D01*
X64570009Y-109036266D01*
X64549308Y-109219996D01*
X64549308Y-109220003D01*
X64570009Y-109403733D01*
X64570009Y-109403736D01*
X64631075Y-109578250D01*
X64631076Y-109578254D01*
X64729448Y-109734811D01*
X64761956Y-109767319D01*
X64795441Y-109828642D01*
X64790457Y-109898334D01*
X64761956Y-109942681D01*
X64729448Y-109975188D01*
X64631076Y-110131745D01*
X64631075Y-110131749D01*
X64570009Y-110306263D01*
X64570009Y-110306266D01*
X64549308Y-110489996D01*
X64549308Y-110490003D01*
X64570009Y-110673733D01*
X64570009Y-110673736D01*
X64631075Y-110848250D01*
X64631076Y-110848254D01*
X64729448Y-111004811D01*
X64761956Y-111037319D01*
X64795441Y-111098642D01*
X64790457Y-111168334D01*
X64761956Y-111212681D01*
X64729448Y-111245188D01*
X64631076Y-111401745D01*
X64631075Y-111401749D01*
X64570009Y-111576263D01*
X64570009Y-111576266D01*
X64549308Y-111759996D01*
X64549308Y-111760003D01*
X64570009Y-111943733D01*
X64570009Y-111943736D01*
X64631075Y-112118250D01*
X64631076Y-112118254D01*
X64729448Y-112274811D01*
X64761956Y-112307319D01*
X64795441Y-112368642D01*
X64790457Y-112438334D01*
X64761956Y-112482681D01*
X64729448Y-112515188D01*
X64631076Y-112671745D01*
X64631075Y-112671749D01*
X64570009Y-112846263D01*
X64570009Y-112846266D01*
X64549308Y-113029996D01*
X64549308Y-113030003D01*
X64570009Y-113213733D01*
X64570009Y-113213736D01*
X64631075Y-113388250D01*
X64631076Y-113388254D01*
X64729448Y-113544811D01*
X64761956Y-113577319D01*
X64795441Y-113638642D01*
X64790457Y-113708334D01*
X64761956Y-113752681D01*
X64729448Y-113785188D01*
X64631076Y-113941745D01*
X64631075Y-113941749D01*
X64570009Y-114116263D01*
X64570009Y-114116266D01*
X64549308Y-114299996D01*
X64549308Y-114300003D01*
X64570009Y-114483733D01*
X64570009Y-114483736D01*
X64631075Y-114658250D01*
X64631076Y-114658254D01*
X64729448Y-114814811D01*
X64860189Y-114945552D01*
X65016746Y-115043923D01*
X65191266Y-115104990D01*
X65229604Y-115109309D01*
X65294015Y-115136373D01*
X65303401Y-115144848D01*
X65640872Y-115482319D01*
X65674357Y-115543642D01*
X65669373Y-115613334D01*
X65640872Y-115657681D01*
X65303402Y-115995150D01*
X65242079Y-116028635D01*
X65229606Y-116030689D01*
X65191271Y-116035008D01*
X65016744Y-116096077D01*
X64860188Y-116194448D01*
X64729448Y-116325188D01*
X64631076Y-116481745D01*
X64631075Y-116481749D01*
X64570009Y-116656263D01*
X64570009Y-116656266D01*
X64549308Y-116839996D01*
X64549308Y-116840003D01*
X30480000Y-116840003D01*
X30480000Y-115570003D01*
X64549811Y-115570003D01*
X64570498Y-115753616D01*
X64570501Y-115753629D01*
X64631529Y-115928035D01*
X64643830Y-115947613D01*
X64643831Y-115947613D01*
X65021446Y-115570000D01*
X65021446Y-115569999D01*
X64643831Y-115192384D01*
X64631529Y-115211966D01*
X64631528Y-115211966D01*
X64570501Y-115386370D01*
X64570498Y-115386383D01*
X64549811Y-115569996D01*
X64549811Y-115570003D01*
X30480000Y-115570003D01*
X30480000Y-112080000D01*
X56845000Y-112080000D01*
X56845000Y-113980000D01*
X58935000Y-113980000D01*
X58935000Y-112080000D01*
X56845000Y-112080000D01*
X30480000Y-112080000D01*
X30480000Y-107508000D01*
X46050000Y-107508000D01*
X46050000Y-109408000D01*
X48140000Y-109408000D01*
X48140000Y-107508000D01*
X46050000Y-107508000D01*
X30480000Y-107508000D01*
X30480000Y-100650000D01*
X33755000Y-100650000D01*
X33755000Y-102550000D01*
X35845000Y-102550000D01*
X35845000Y-100650000D01*
X33755000Y-100650000D01*
X30480000Y-100650000D01*
X30480000Y-96000000D01*
X45890000Y-96000000D01*
X45890000Y-97900000D01*
X47980000Y-97900000D01*
X47980000Y-96000000D01*
X45890000Y-96000000D01*
X30480000Y-96000000D01*
X30480000Y-89220000D01*
X50495000Y-89220000D01*
X50495000Y-91120000D01*
X52585000Y-91120000D01*
X52585000Y-89220000D01*
X50495000Y-89220000D01*
X30480000Y-89220000D01*
X30480000Y-82235000D01*
X45635000Y-82235000D01*
X45635000Y-84135000D01*
X47725000Y-84135000D01*
X47725000Y-82235000D01*
X45635000Y-82235000D01*
X30480000Y-82235000D01*
X30480000Y-77790000D01*
X33755000Y-77790000D01*
X33755000Y-79690000D01*
X35845000Y-79690000D01*
X35845000Y-77790000D01*
X33755000Y-77790000D01*
X30480000Y-77790000D01*
X30480000Y-73980000D01*
X56845000Y-73980000D01*
X56845000Y-75880000D01*
X58935000Y-75880000D01*
X58935000Y-73980000D01*
X56845000Y-73980000D01*
X30480000Y-73980000D01*
X30480000Y-68580003D01*
X64549811Y-68580003D01*
X64570498Y-68763616D01*
X64570501Y-68763629D01*
X64631529Y-68938035D01*
X64643830Y-68957613D01*
X64643831Y-68957613D01*
X65021446Y-68580000D01*
X65021446Y-68579999D01*
X64643831Y-68202384D01*
X64631529Y-68221966D01*
X64631528Y-68221966D01*
X64570501Y-68396370D01*
X64570498Y-68396383D01*
X64549811Y-68579996D01*
X64549811Y-68580003D01*
X30480000Y-68580003D01*
X30480000Y-66360000D01*
X51130000Y-66360000D01*
X51130000Y-68260000D01*
X53220000Y-68260000D01*
X53220000Y-66360000D01*
X97910000Y-66360000D01*
X97910000Y-68260000D01*
X100000000Y-68260000D01*
X100000000Y-66360000D01*
X97910000Y-66360000D01*
X53220000Y-66360000D01*
X51130000Y-66360000D01*
X30480000Y-66360000D01*
X30480000Y-64978069D01*
X70204500Y-64978069D01*
X70243199Y-65160141D01*
X70243201Y-65160147D01*
X70318910Y-65330188D01*
X70318909Y-65330188D01*
X70318910Y-65330189D01*
X70428320Y-65480779D01*
X70428321Y-65480780D01*
X70428322Y-65480781D01*
X70428324Y-65480784D01*
X70512469Y-65556547D01*
X70566649Y-65605331D01*
X70727851Y-65698401D01*
X70727853Y-65698401D01*
X70727856Y-65698403D01*
X70816365Y-65727161D01*
X70904880Y-65755921D01*
X71043589Y-65770500D01*
X71043594Y-65770500D01*
X71136406Y-65770500D01*
X71136411Y-65770500D01*
X71275120Y-65755921D01*
X71452149Y-65698401D01*
X71613351Y-65605331D01*
X71721709Y-65507764D01*
X71751675Y-65480784D01*
X71751675Y-65480782D01*
X71751680Y-65480779D01*
X71861090Y-65330189D01*
X71936800Y-65160142D01*
X71975500Y-64978070D01*
X71975500Y-64791930D01*
X71936800Y-64609858D01*
X71936798Y-64609852D01*
X71906386Y-64541547D01*
X71861090Y-64439811D01*
X71751680Y-64289221D01*
X71751677Y-64289218D01*
X71751675Y-64289215D01*
X71661536Y-64208055D01*
X71613351Y-64164669D01*
X71452149Y-64071599D01*
X71452143Y-64071596D01*
X71275124Y-64014080D01*
X71275122Y-64014079D01*
X71235488Y-64009913D01*
X71136411Y-63999500D01*
X71043589Y-63999500D01*
X70956895Y-64008611D01*
X70904877Y-64014079D01*
X70904875Y-64014080D01*
X70727856Y-64071596D01*
X70727850Y-64071599D01*
X70566650Y-64164668D01*
X70428324Y-64289215D01*
X70428322Y-64289218D01*
X70318909Y-64439811D01*
X70243201Y-64609852D01*
X70243199Y-64609858D01*
X70204500Y-64791930D01*
X70204500Y-64978069D01*
X30480000Y-64978069D01*
X30480000Y-56639000D01*
X30499685Y-56571961D01*
X30552489Y-56526206D01*
X30604000Y-56515000D01*
X114176000Y-56515000D01*
X114243039Y-56534685D01*
G37*
%TD.AperFunction*%
%TD*%
M02*
