%TF.GenerationSoftware,KiCad,Pcbnew,7.0.10*%
%TF.CreationDate,2024-03-14T12:03:47+01:00*%
%TF.ProjectId,FMC_breakout,464d435f-6272-4656-916b-6f75742e6b69,1.2*%
%TF.SameCoordinates,Original*%
%TF.FileFunction,Paste,Bot*%
%TF.FilePolarity,Positive*%
%FSLAX46Y46*%
G04 Gerber Fmt 4.6, Leading zero omitted, Abs format (unit mm)*
G04 Created by KiCad (PCBNEW 7.0.10) date 2024-03-14 12:03:47*
%MOMM*%
%LPD*%
G01*
G04 APERTURE LIST*
%ADD10C,0.640000*%
G04 APERTURE END LIST*
D10*
%TO.C,J0*%
X76805000Y-67310000D03*
X76805000Y-68580000D03*
X76805000Y-69850000D03*
X76805000Y-71120000D03*
X76805000Y-72390000D03*
X76805000Y-73660000D03*
X76805000Y-74930000D03*
X76805000Y-76200000D03*
X76805000Y-77470000D03*
X76805000Y-78740000D03*
X76805000Y-80010000D03*
X76805000Y-81280000D03*
X76805000Y-82550000D03*
X76805000Y-83820000D03*
X76805000Y-85090000D03*
X76805000Y-86360000D03*
X76805000Y-87630000D03*
X76805000Y-88900000D03*
X76805000Y-90170000D03*
X76805000Y-91435000D03*
X76805000Y-92715000D03*
X76805000Y-93980000D03*
X76805000Y-95250000D03*
X76805000Y-96520000D03*
X76805000Y-97790000D03*
X76805000Y-99060000D03*
X76805000Y-100330000D03*
X76805000Y-101600000D03*
X76805000Y-102870000D03*
X76805000Y-104140000D03*
X76805000Y-105410000D03*
X76805000Y-106680000D03*
X76805000Y-107950000D03*
X76805000Y-109220000D03*
X76805000Y-110490000D03*
X76805000Y-111760000D03*
X76805000Y-113030000D03*
X76805000Y-114300000D03*
X76805000Y-115570000D03*
X76805000Y-116840000D03*
X75535000Y-67310000D03*
X75535000Y-68580000D03*
X75535000Y-69850000D03*
X75535000Y-71120000D03*
X75535000Y-72390000D03*
X75535000Y-73660000D03*
X75535000Y-74930000D03*
X75535000Y-76200000D03*
X75535000Y-77470000D03*
X75535000Y-78740000D03*
X75535000Y-80010000D03*
X75535000Y-81280000D03*
X75535000Y-82550000D03*
X75535000Y-83820000D03*
X75535000Y-85090000D03*
X75535000Y-86360000D03*
X75535000Y-87630000D03*
X75535000Y-88900000D03*
X75535000Y-90170000D03*
X75535000Y-91435000D03*
X75535000Y-92715000D03*
X75535000Y-93980000D03*
X75535000Y-95250000D03*
X75535000Y-96520000D03*
X75535000Y-97790000D03*
X75535000Y-99060000D03*
X75535000Y-100330000D03*
X75535000Y-101600000D03*
X75535000Y-102870000D03*
X75535000Y-104140000D03*
X75535000Y-105410000D03*
X75535000Y-106680000D03*
X75535000Y-107950000D03*
X75535000Y-109220000D03*
X75535000Y-110490000D03*
X75535000Y-111760000D03*
X75535000Y-113030000D03*
X75535000Y-114300000D03*
X75535000Y-115570000D03*
X75535000Y-116840000D03*
X74265000Y-67310000D03*
X74265000Y-68580000D03*
X74265000Y-69850000D03*
X74265000Y-71120000D03*
X74265000Y-72390000D03*
X74265000Y-73660000D03*
X74265000Y-74930000D03*
X74265000Y-76200000D03*
X74265000Y-77470000D03*
X74265000Y-78740000D03*
X74265000Y-80010000D03*
X74265000Y-81280000D03*
X74265000Y-82550000D03*
X74265000Y-83820000D03*
X74265000Y-85090000D03*
X74265000Y-86360000D03*
X74265000Y-87630000D03*
X74265000Y-88900000D03*
X74265000Y-90170000D03*
X74265000Y-91435000D03*
X74265000Y-92715000D03*
X74265000Y-93980000D03*
X74265000Y-95250000D03*
X74265000Y-96520000D03*
X74265000Y-97790000D03*
X74265000Y-99060000D03*
X74265000Y-100330000D03*
X74265000Y-101600000D03*
X74265000Y-102870000D03*
X74265000Y-104140000D03*
X74265000Y-105410000D03*
X74265000Y-106680000D03*
X74265000Y-107950000D03*
X74265000Y-109220000D03*
X74265000Y-110490000D03*
X74265000Y-111760000D03*
X74265000Y-113030000D03*
X74265000Y-114300000D03*
X74265000Y-115570000D03*
X74265000Y-116840000D03*
X72995000Y-67310000D03*
X72995000Y-68580000D03*
X72995000Y-69850000D03*
X72995000Y-71120000D03*
X72995000Y-72390000D03*
X72995000Y-73660000D03*
X72995000Y-74930000D03*
X72995000Y-76200000D03*
X72995000Y-77470000D03*
X72995000Y-78740000D03*
X72995000Y-80010000D03*
X72995000Y-81280000D03*
X72995000Y-82550000D03*
X72995000Y-83820000D03*
X72995000Y-85090000D03*
X72995000Y-86360000D03*
X72995000Y-87630000D03*
X72995000Y-88900000D03*
X72995000Y-90170000D03*
X72995000Y-91435000D03*
X72995000Y-92715000D03*
X72995000Y-93980000D03*
X72995000Y-95250000D03*
X72995000Y-96520000D03*
X72995000Y-97790000D03*
X72995000Y-99060000D03*
X72995000Y-100330000D03*
X72995000Y-101600000D03*
X72995000Y-102870000D03*
X72995000Y-104140000D03*
X72995000Y-105410000D03*
X72995000Y-106680000D03*
X72995000Y-107950000D03*
X72995000Y-109220000D03*
X72995000Y-110490000D03*
X72995000Y-111760000D03*
X72995000Y-113030000D03*
X72995000Y-114300000D03*
X72995000Y-115570000D03*
X72995000Y-116840000D03*
X71730000Y-67310000D03*
X71730000Y-68580000D03*
X71730000Y-69850000D03*
X71730000Y-71120000D03*
X71730000Y-72390000D03*
X71730000Y-73660000D03*
X71730000Y-74930000D03*
X71730000Y-76200000D03*
X71730000Y-77470000D03*
X71730000Y-78740000D03*
X71730000Y-80010000D03*
X71730000Y-81280000D03*
X71730000Y-82550000D03*
X71730000Y-83820000D03*
X71730000Y-85090000D03*
X71730000Y-86360000D03*
X71730000Y-87630000D03*
X71730000Y-88900000D03*
X71730000Y-90170000D03*
X71730000Y-91435000D03*
X71730000Y-92715000D03*
X71730000Y-93980000D03*
X71730000Y-95250000D03*
X71730000Y-96520000D03*
X71730000Y-97790000D03*
X71730000Y-99060000D03*
X71730000Y-100330000D03*
X71730000Y-101600000D03*
X71730000Y-102870000D03*
X71730000Y-104140000D03*
X71730000Y-105410000D03*
X71730000Y-106680000D03*
X71730000Y-107950000D03*
X71730000Y-109220000D03*
X71730000Y-110490000D03*
X71730000Y-111760000D03*
X71730000Y-113030000D03*
X71730000Y-114300000D03*
X71730000Y-115570000D03*
X71730000Y-116840000D03*
X70450000Y-67310000D03*
X70450000Y-68580000D03*
X70450000Y-69850000D03*
X70450000Y-71120000D03*
X70450000Y-72390000D03*
X70450000Y-73660000D03*
X70450000Y-74930000D03*
X70450000Y-76200000D03*
X70450000Y-77470000D03*
X70450000Y-78740000D03*
X70450000Y-80010000D03*
X70450000Y-81280000D03*
X70450000Y-82550000D03*
X70450000Y-83820000D03*
X70450000Y-85090000D03*
X70450000Y-86360000D03*
X70450000Y-87630000D03*
X70450000Y-88900000D03*
X70450000Y-90170000D03*
X70450000Y-91435000D03*
X70450000Y-92715000D03*
X70450000Y-93980000D03*
X70450000Y-95250000D03*
X70450000Y-96520000D03*
X70450000Y-97790000D03*
X70450000Y-99060000D03*
X70450000Y-100330000D03*
X70450000Y-101600000D03*
X70450000Y-102870000D03*
X70450000Y-104140000D03*
X70450000Y-105410000D03*
X70450000Y-106680000D03*
X70450000Y-107950000D03*
X70450000Y-109220000D03*
X70450000Y-110490000D03*
X70450000Y-111760000D03*
X70450000Y-113030000D03*
X70450000Y-114300000D03*
X70450000Y-115570000D03*
X70450000Y-116840000D03*
X69185000Y-67310000D03*
X69185000Y-68580000D03*
X69185000Y-69850000D03*
X69185000Y-71120000D03*
X69185000Y-72390000D03*
X69185000Y-73660000D03*
X69185000Y-74930000D03*
X69185000Y-76200000D03*
X69185000Y-77470000D03*
X69185000Y-78740000D03*
X69185000Y-80010000D03*
X69185000Y-81280000D03*
X69185000Y-82550000D03*
X69185000Y-83820000D03*
X69185000Y-85090000D03*
X69185000Y-86360000D03*
X69185000Y-87630000D03*
X69185000Y-88900000D03*
X69185000Y-90170000D03*
X69185000Y-91435000D03*
X69185000Y-92715000D03*
X69185000Y-93980000D03*
X69185000Y-95250000D03*
X69185000Y-96520000D03*
X69185000Y-97790000D03*
X69185000Y-99060000D03*
X69185000Y-100330000D03*
X69185000Y-101600000D03*
X69185000Y-102870000D03*
X69185000Y-104140000D03*
X69185000Y-105410000D03*
X69185000Y-106680000D03*
X69185000Y-107950000D03*
X69185000Y-109220000D03*
X69185000Y-110490000D03*
X69185000Y-111760000D03*
X69185000Y-113030000D03*
X69185000Y-114300000D03*
X69185000Y-115570000D03*
X69185000Y-116840000D03*
X67915000Y-67310000D03*
X67915000Y-68580000D03*
X67915000Y-69850000D03*
X67915000Y-71120000D03*
X67915000Y-72390000D03*
X67915000Y-73660000D03*
X67915000Y-74930000D03*
X67915000Y-76200000D03*
X67915000Y-77470000D03*
X67915000Y-78740000D03*
X67915000Y-80010000D03*
X67915000Y-81280000D03*
X67915000Y-82550000D03*
X67915000Y-83820000D03*
X67915000Y-85090000D03*
X67915000Y-86360000D03*
X67915000Y-87630000D03*
X67915000Y-88900000D03*
X67915000Y-90170000D03*
X67915000Y-91435000D03*
X67915000Y-92715000D03*
X67915000Y-93980000D03*
X67915000Y-95250000D03*
X67915000Y-96520000D03*
X67915000Y-97790000D03*
X67915000Y-99060000D03*
X67915000Y-100330000D03*
X67915000Y-101600000D03*
X67915000Y-102870000D03*
X67915000Y-104140000D03*
X67915000Y-105410000D03*
X67915000Y-106680000D03*
X67915000Y-107950000D03*
X67915000Y-109220000D03*
X67915000Y-110490000D03*
X67915000Y-111760000D03*
X67915000Y-113030000D03*
X67915000Y-114300000D03*
X67915000Y-115570000D03*
X67915000Y-116840000D03*
X66645000Y-67310000D03*
X66645000Y-68580000D03*
X66645000Y-69850000D03*
X66645000Y-71120000D03*
X66645000Y-72390000D03*
X66645000Y-73660000D03*
X66645000Y-74930000D03*
X66645000Y-76200000D03*
X66645000Y-77470000D03*
X66645000Y-78740000D03*
X66645000Y-80010000D03*
X66645000Y-81280000D03*
X66645000Y-82550000D03*
X66645000Y-83820000D03*
X66645000Y-85090000D03*
X66645000Y-86360000D03*
X66645000Y-87630000D03*
X66645000Y-88900000D03*
X66645000Y-90170000D03*
X66645000Y-91435000D03*
X66645000Y-92715000D03*
X66645000Y-93980000D03*
X66645000Y-95250000D03*
X66645000Y-96520000D03*
X66645000Y-97790000D03*
X66645000Y-99060000D03*
X66645000Y-100330000D03*
X66645000Y-101600000D03*
X66645000Y-102870000D03*
X66645000Y-104140000D03*
X66645000Y-105410000D03*
X66645000Y-106680000D03*
X66645000Y-107950000D03*
X66645000Y-109220000D03*
X66645000Y-110490000D03*
X66645000Y-111760000D03*
X66645000Y-113030000D03*
X66645000Y-114300000D03*
X66645000Y-115570000D03*
X66645000Y-116840000D03*
X65375000Y-67310000D03*
X65375000Y-68580000D03*
X65375000Y-69850000D03*
X65375000Y-71120000D03*
X65375000Y-72390000D03*
X65375000Y-73660000D03*
X65375000Y-74930000D03*
X65375000Y-76200000D03*
X65375000Y-77470000D03*
X65375000Y-78740000D03*
X65375000Y-80010000D03*
X65375000Y-81280000D03*
X65375000Y-82550000D03*
X65375000Y-83820000D03*
X65375000Y-85090000D03*
X65375000Y-86360000D03*
X65375000Y-87630000D03*
X65375000Y-88900000D03*
X65375000Y-90170000D03*
X65375000Y-91435000D03*
X65375000Y-92715000D03*
X65375000Y-93980000D03*
X65375000Y-95250000D03*
X65375000Y-96520000D03*
X65375000Y-97790000D03*
X65375000Y-99060000D03*
X65375000Y-100330000D03*
X65375000Y-101600000D03*
X65375000Y-102870000D03*
X65375000Y-104140000D03*
X65375000Y-105410000D03*
X65375000Y-106680000D03*
X65375000Y-107950000D03*
X65375000Y-109220000D03*
X65375000Y-110490000D03*
X65375000Y-111760000D03*
X65375000Y-113030000D03*
X65375000Y-114300000D03*
X65375000Y-115570000D03*
X65375000Y-116840000D03*
%TD*%
M02*
