%TF.GenerationSoftware,KiCad,Pcbnew,7.0.10*%
%TF.CreationDate,2024-03-14T12:03:47+01:00*%
%TF.ProjectId,FMC_breakout,464d435f-6272-4656-916b-6f75742e6b69,1.2*%
%TF.SameCoordinates,Original*%
%TF.FileFunction,Paste,Top*%
%TF.FilePolarity,Positive*%
%FSLAX46Y46*%
G04 Gerber Fmt 4.6, Leading zero omitted, Abs format (unit mm)*
G04 Created by KiCad (PCBNEW 7.0.10) date 2024-03-14 12:03:47*
%MOMM*%
%LPD*%
G01*
G04 APERTURE LIST*
G04 Aperture macros list*
%AMRoundRect*
0 Rectangle with rounded corners*
0 $1 Rounding radius*
0 $2 $3 $4 $5 $6 $7 $8 $9 X,Y pos of 4 corners*
0 Add a 4 corners polygon primitive as box body*
4,1,4,$2,$3,$4,$5,$6,$7,$8,$9,$2,$3,0*
0 Add four circle primitives for the rounded corners*
1,1,$1+$1,$2,$3*
1,1,$1+$1,$4,$5*
1,1,$1+$1,$6,$7*
1,1,$1+$1,$8,$9*
0 Add four rect primitives between the rounded corners*
20,1,$1+$1,$2,$3,$4,$5,0*
20,1,$1+$1,$4,$5,$6,$7,0*
20,1,$1+$1,$6,$7,$8,$9,0*
20,1,$1+$1,$8,$9,$2,$3,0*%
G04 Aperture macros list end*
%ADD10RoundRect,0.250000X0.275000X0.250000X-0.275000X0.250000X-0.275000X-0.250000X0.275000X-0.250000X0*%
%ADD11RoundRect,0.250000X0.850000X0.275000X-0.850000X0.275000X-0.850000X-0.275000X0.850000X-0.275000X0*%
%ADD12RoundRect,0.135000X-0.185000X0.135000X-0.185000X-0.135000X0.185000X-0.135000X0.185000X0.135000X0*%
%ADD13RoundRect,0.250000X-0.275000X-0.250000X0.275000X-0.250000X0.275000X0.250000X-0.275000X0.250000X0*%
%ADD14RoundRect,0.250000X-0.850000X-0.275000X0.850000X-0.275000X0.850000X0.275000X-0.850000X0.275000X0*%
%ADD15RoundRect,0.135000X0.185000X-0.135000X0.185000X0.135000X-0.185000X0.135000X-0.185000X-0.135000X0*%
G04 APERTURE END LIST*
D10*
%TO.C,J7*%
X53755000Y-67310000D03*
D11*
X52230000Y-68785000D03*
X52230000Y-65835000D03*
%TD*%
D12*
%TO.C,R4*%
X86360000Y-92835000D03*
X86360000Y-93855000D03*
%TD*%
D13*
%TO.C,J6*%
X102455000Y-102870000D03*
D14*
X103980000Y-101395000D03*
X103980000Y-104345000D03*
%TD*%
D13*
%TO.C,J4*%
X97535000Y-92710000D03*
D14*
X99060000Y-91235000D03*
X99060000Y-94185000D03*
%TD*%
D12*
%TO.C,R20*%
X96520000Y-80135000D03*
X96520000Y-81155000D03*
%TD*%
D13*
%TO.C,J2*%
X89755000Y-74295000D03*
D14*
X91280000Y-72820000D03*
X91280000Y-75770000D03*
%TD*%
D10*
%TO.C,J12*%
X48675000Y-108458000D03*
D11*
X47150000Y-109933000D03*
X47150000Y-106983000D03*
%TD*%
D12*
%TO.C,R1*%
X90170000Y-67435000D03*
X90170000Y-68455000D03*
%TD*%
D11*
%TO.C,J15*%
X34855000Y-77265000D03*
X34855000Y-80215000D03*
D10*
X36380000Y-78740000D03*
%TD*%
D13*
%TO.C,J19*%
X108170000Y-78740000D03*
D14*
X109695000Y-77265000D03*
X109695000Y-80215000D03*
%TD*%
D10*
%TO.C,J11*%
X36380000Y-101600000D03*
D11*
X34855000Y-103075000D03*
X34855000Y-100125000D03*
%TD*%
D15*
%TO.C,R5*%
X103505000Y-97790000D03*
X103505000Y-96770000D03*
%TD*%
D13*
%TO.C,J5*%
X108330000Y-97790000D03*
D14*
X109855000Y-96315000D03*
X109855000Y-99265000D03*
%TD*%
D15*
%TO.C,R14*%
X59690000Y-97030000D03*
X59690000Y-96010000D03*
%TD*%
D10*
%TO.C,J8*%
X59470000Y-74930000D03*
D11*
X57945000Y-76405000D03*
X57945000Y-73455000D03*
%TD*%
D12*
%TO.C,R6*%
X96520000Y-102995000D03*
X96520000Y-104015000D03*
%TD*%
D13*
%TO.C,J20*%
X102455000Y-85090000D03*
D14*
X103980000Y-83615000D03*
X103980000Y-86565000D03*
%TD*%
D12*
%TO.C,R15*%
X41275000Y-79885000D03*
X41275000Y-78865000D03*
%TD*%
D13*
%TO.C,J17*%
X90390000Y-108585000D03*
D14*
X91915000Y-107110000D03*
X91915000Y-110060000D03*
%TD*%
D10*
%TO.C,J10*%
X53120000Y-118745000D03*
D11*
X51595000Y-120220000D03*
X51595000Y-117270000D03*
%TD*%
D13*
%TO.C,J3*%
X89915000Y-88695000D03*
D14*
X91440000Y-87220000D03*
X91440000Y-90170000D03*
%TD*%
D10*
%TO.C,J9*%
X59470000Y-113030000D03*
D11*
X57945000Y-114505000D03*
X57945000Y-111555000D03*
%TD*%
D10*
%TO.C,J14*%
X48515000Y-96950000D03*
D11*
X46990000Y-98425000D03*
X46990000Y-95475000D03*
%TD*%
D12*
%TO.C,R17*%
X86360000Y-108710000D03*
X86360000Y-109730000D03*
%TD*%
D13*
%TO.C,J18*%
X98010000Y-118745000D03*
D14*
X99535000Y-117270000D03*
X99535000Y-120220000D03*
%TD*%
D15*
%TO.C,R3*%
X86360000Y-88775000D03*
X86360000Y-87755000D03*
%TD*%
D10*
%TO.C,J13*%
X53120000Y-90170000D03*
D11*
X51595000Y-91645000D03*
X51595000Y-88695000D03*
%TD*%
D13*
%TO.C,J1*%
X97375000Y-67310000D03*
D14*
X98900000Y-65835000D03*
X98900000Y-68785000D03*
%TD*%
D15*
%TO.C,R19*%
X103505000Y-78615000D03*
X103505000Y-77595000D03*
%TD*%
D12*
%TO.C,R18*%
X93980000Y-118745000D03*
X93980000Y-119765000D03*
%TD*%
D15*
%TO.C,R2*%
X86360000Y-74170000D03*
X86360000Y-73150000D03*
%TD*%
%TO.C,R16*%
X52705000Y-83060000D03*
X52705000Y-82040000D03*
%TD*%
D10*
%TO.C,J16*%
X48260000Y-83185000D03*
D11*
X46735000Y-84660000D03*
X46735000Y-81710000D03*
%TD*%
D15*
%TO.C,R13*%
X59690000Y-90045000D03*
X59690000Y-89025000D03*
%TD*%
M02*
